<?xml version="1.0" encoding="UTF-8" standalone="no"?>
<svg
   xmlns:dc="http://purl.org/dc/elements/1.1/"
   xmlns:cc="http://creativecommons.org/ns#"
   xmlns:rdf="http://www.w3.org/1999/02/22-rdf-syntax-ns#"
   xmlns:svg="http://www.w3.org/2000/svg"
   xmlns="http://www.w3.org/2000/svg"
   xmlns:sodipodi="http://sodipodi.sourceforge.net/DTD/sodipodi-0.dtd"
   xmlns:inkscape="http://www.inkscape.org/namespaces/inkscape"
   style="fill-rule:evenodd;stroke-linecap:round"
   version="1.1"
   id="svg6781"
   width="513.74701"
   viewBox="0 0 3424.98 3284.4215"
   preserveAspectRatio="none"
   height="492.66324"
   inkscape:version="0.91 r13725"
   sodipodi:docname="UBL-2.2-BusinessCard.svg"
   inkscape:export-filename="/Users/admin/z/data/kendata/dev/ubl/hub/art/UBL-2.2-BusinesCard.png"
   inkscape:export-xdpi="600"
   inkscape:export-ydpi="600">
  <sodipodi:namedview
     pagecolor="#ffffff"
     bordercolor="#666666"
     borderopacity="1"
     objecttolerance="10"
     gridtolerance="10"
     guidetolerance="10"
     inkscape:pageopacity="0"
     inkscape:pageshadow="2"
     inkscape:window-width="1204"
     inkscape:window-height="1140"
     id="namedview9"
     showgrid="false"
     inkscape:showpageshadow="false"
     showborder="false"
     fit-margin-top="0"
     fit-margin-left="0"
     fit-margin-right="0"
     fit-margin-bottom="0"
     inkscape:zoom="2.0048779"
     inkscape:cx="256.87349"
     inkscape:cy="400.09919"
     inkscape:window-x="468"
     inkscape:window-y="23"
     inkscape:window-maximized="0"
     inkscape:current-layer="svg6781" />
  <metadata
     id="metadata7279">
    <rdf:RDF>
      <cc:Work
         rdf:about="">
        <dc:format>image/svg+xml</dc:format>
        <dc:type
           rdf:resource="http://purl.org/dc/dcmitype/StillImage" />
        <dc:title />
      </cc:Work>
    </rdf:RDF>
  </metadata>
  <defs
     id="defs7277">
    <marker
       style="overflow:visible"
       id="Arrow1Lend"
       refX="0"
       refY="0"
       orient="auto">
      <path
         transform="matrix(-0.8,0,0,-0.8,-10,0)"
         style="fill-rule:evenodd;stroke:#000000;stroke-width:1pt;marker-start:none"
         d="M 0,0 5,-5 -12.5,0 5,5 0,0 Z"
         id="path9186"
         inkscape:connector-curvature="0" />
    </marker>
    <pattern
       y="0"
       x="0"
       height="6"
       width="6"
       patternUnits="userSpaceOnUse"
       id="EMFhbasepattern" />
  </defs>
  <style
     id="style6783"
     type="text/css">
.brush0 { fill: rgb(255,255,255); }
.pen0 { stroke: rgb(0,0,0); stroke-width: 1; stroke-linejoin: round; }
.pen1 { stroke: none; }
.brush1 { fill: none; }
.pen2 { stroke: rgb(26,26,26); stroke-width: 7; stroke-linejoin: round; }
.font0 { font-weight: bold; font-size: 74px; font-family: Arial, sans-serif; }
.font1 { font-weight: bold; font-size: 16px; font-family: System, sans-serif; }
.pen3 { stroke: rgb(0,0,0); stroke-width: 3; stroke-linejoin: round; }
.brush2 { fill: rgb(0,0,0); }
.brush3 { fill: rgb(230,230,230); }
.font2 { font-weight: bold; font-size: 59px; font-family: Arial, sans-serif; }
.font3 { font-weight: bold; font-size: 59px; font-family: Arial, sans-serif; }
</style>
  <rect
     y="-1229.0872"
     x="5.0999999"
     height="1223.9871"
     width="3414.7798"
     id="rect7281"
     style="fill:none;stroke:#000000;stroke-width:10.19999981;stroke-linecap:round;stroke-linejoin:miter;stroke-miterlimit:4;stroke-dasharray:none;stroke-dashoffset:0;stroke-opacity:1"
     transform="scale(1,-1)" />
  <path
     style="fill:none;stroke:#000000;stroke-width:6.24290419px;stroke-linecap:square;stroke-linejoin:miter;stroke-miterlimit:10;stroke-dasharray:none;stroke-opacity:1"
     d="m 1724.3925,6.2673168 0,1220.7674832"
     id="path3377"
     inkscape:connector-curvature="0" />
  <path
     style="fill:#000000;fill-opacity:1;fill-rule:evenodd;stroke:none"
     d="m 1003.6836,221.94722 c 0,-27.3368 -22.05376,-49.7033 -49.70188,-49.7033 -27.33497,0 -49.70186,22.3665 -49.70186,49.7033 0,27.6472 22.36689,49.7028 49.70186,49.7028 27.64812,0 49.70188,-22.0556 49.70188,-49.7028 z"
     id="path3395"
     inkscape:connector-curvature="0" />
  <path
     style="fill:none;stroke:#000000;stroke-width:6.24290419px;stroke-linecap:round;stroke-linejoin:round;stroke-miterlimit:10;stroke-dasharray:none;stroke-opacity:1"
     d="m 1003.6836,221.94722 c 0,-27.3368 -22.05376,-49.7033 -49.70188,-49.7033 -27.33497,0 -49.70186,22.3665 -49.70186,49.7033 0,27.6472 22.36689,49.7028 49.70186,49.7028 27.64812,0 49.70188,-22.0556 49.70188,-49.7028"
     id="path3397"
     inkscape:connector-curvature="0" />
  <path
     style="fill:#ffffff;fill-opacity:1;fill-rule:evenodd;stroke:none"
     d="m 1490.782,390.93762 0,188.873 447.3327,0 0,-188.873 -447.3327,0 z"
     id="path3407"
     inkscape:connector-curvature="0" />
  <path
     style="fill:none;stroke:#000000;stroke-width:6.24290419px;stroke-linecap:round;stroke-linejoin:round;stroke-miterlimit:10;stroke-dasharray:none;stroke-opacity:1"
     d="m 1490.782,579.81062 447.3327,0 0,-188.873 -447.3327,0 z"
     id="path3409"
     inkscape:connector-curvature="0" />
  <path
     style="fill:#ffffff;fill-opacity:1;fill-rule:evenodd;stroke:none"
     d="m 1207.4697,415.78712 c 41.3156,0 74.5581,31.379 74.5581,69.5838 l 0,0 0,-4.968 0,0 c 0,38.5179 -33.2425,69.5838 -74.5581,69.5838 0,0 0,0 0,0 l 0,0 -511.94936,0 0,0 c -41.00243,0 -74.5528,-31.0659 -74.5528,-69.5838 l 0,4.968 c 0,-38.2048 33.55037,-69.5838 74.5528,-69.5838 0,0 0,0 0,0 l 0,0 511.94936,0 z"
     id="path3423"
     inkscape:connector-curvature="0" />
  <path
     style="fill:none;stroke:#000000;stroke-width:6.24290419px;stroke-linecap:round;stroke-linejoin:round;stroke-miterlimit:4;stroke-dasharray:none;stroke-opacity:1"
     d="m 1207.4697,415.78712 c 41.3156,0 74.5581,31.379 74.5581,69.5838 l 0,0 0,-4.968 0,0 c 0,38.5179 -33.2425,69.5838 -74.5581,69.5838 0,0 0,0 0,0 l 0,0 -511.94936,0 0,0 c -41.00243,0 -74.5528,-31.0659 -74.5528,-69.5838 l 0,4.968 c 0,-38.2048 33.55037,-69.5838 74.5528,-69.5838 0,0 0,0 0,0 l 0,0 511.94936,0 z"
     id="path3425"
     inkscape:connector-curvature="0" />
  <path
     style="fill:#ffffff;fill-opacity:1;fill-rule:evenodd;stroke:none"
     d="m 2852.6684,744.48163 c 41.3154,0 74.5527,30.1317 74.5527,67.0998 l 0,0 0,-4.9733 0,0 c 0,37.2812 -33.2373,67.0998 -74.5527,67.0998 0,0 0,0 0,0 l 0,0 -680.9433,0 0,0 c -41.0078,0 -74.558,-29.8186 -74.558,-67.0998 l 0,4.9733 c 0,-36.9681 33.5502,-67.0998 74.558,-67.0998 0,0 0,0 0,0 l 0,0 680.9433,0 z"
     id="path3499"
     inkscape:connector-curvature="0" />
  <path
     style="fill:none;stroke:#000000;stroke-width:6.24290419px;stroke-linecap:round;stroke-linejoin:round;stroke-miterlimit:4;stroke-dasharray:none;stroke-opacity:1"
     d="m 2852.6684,744.48163 c 41.3154,0 74.5527,30.1317 74.5527,67.0998 l 0,0 0,-4.9733 0,0 c 0,37.2812 -33.2373,67.0998 -74.5527,67.0998 0,0 0,0 0,0 l 0,0 -680.9433,0 0,0 c -41.0078,0 -74.558,-29.8186 -74.558,-67.0998 l 0,4.9733 c 0,-36.9681 33.5502,-67.0998 74.558,-67.0998 0,0 0,0 0,0 l 0,0 680.9433,0 z"
     id="path3501"
     inkscape:connector-curvature="0" />
  <g
     id="g3582"
     transform="translate(-1.7282561,0)">
    <path
       inkscape:connector-curvature="0"
       id="path3555"
       d="m 2566.1134,1110.9366 c 0,-27.3345 -22.0591,-49.7012 -49.7071,-49.7012 -27.3351,0 -49.7019,22.3667 -49.7019,49.7012 0,27.6478 22.3668,49.7065 49.7019,49.7065 27.648,0 49.7071,-22.0587 49.7071,-49.7065 z"
       style="fill:#ffffff;fill-opacity:1;fill-rule:evenodd;stroke:none" />
    <path
       inkscape:connector-curvature="0"
       id="path3557"
       d="m 2566.1134,1110.9366 c 0,-27.3345 -22.0591,-49.7012 -49.7071,-49.7012 -27.3351,0 -49.7019,22.3667 -49.7019,49.7012 0,27.6478 22.3668,49.7065 49.7019,49.7065 27.648,0 49.7071,-22.0587 49.7071,-49.7065"
       style="fill:none;stroke:#000000;stroke-width:6.24290419px;stroke-linecap:round;stroke-linejoin:round;stroke-miterlimit:4;stroke-dasharray:none;stroke-opacity:1" />
    <path
       inkscape:connector-curvature="0"
       id="path3559"
       d="m 2536.289,1110.9366 c 0,-10.8701 -8.6993,-19.8773 -19.8827,-19.8773 -10.8703,0 -19.8775,9.0072 -19.8775,19.8773 0,11.1832 9.0072,19.8826 19.8775,19.8826 11.1834,0 19.8827,-8.6994 19.8827,-19.8826 z"
       style="fill:#000000;fill-opacity:1;fill-rule:evenodd;stroke:none" />
    <path
       inkscape:connector-curvature="0"
       id="path3561"
       d="m 2536.289,1110.9366 c 0,-10.8701 -8.6993,-19.8773 -19.8827,-19.8773 -10.8703,0 -19.8775,9.0072 -19.8775,19.8773 0,11.1832 9.0072,19.8826 19.8775,19.8826 11.1834,0 19.8827,-8.6994 19.8827,-19.8826"
       style="fill:none;stroke:#000000;stroke-width:6.24290419px;stroke-linecap:round;stroke-linejoin:round;stroke-miterlimit:4;stroke-dasharray:none;stroke-opacity:1" />
  </g>
  <path
     style="fill:none;stroke:#000000;stroke-width:6.24290419px;stroke-linecap:round;stroke-linejoin:bevel;stroke-miterlimit:4;stroke-dasharray:none;stroke-opacity:1"
     d="m 953.98172,271.65002 0,144.1371"
     id="path3733"
     inkscape:connector-curvature="0" />
  <path
     style="fill:none;stroke:#000000;stroke-width:6.24290419px;stroke-linecap:round;stroke-linejoin:bevel;stroke-miterlimit:4;stroke-dasharray:none;stroke-opacity:1"
     d="m 953.98172,415.78712 -24.85093,-69.5822 m 24.85093,69.5822 24.85094,-69.5822"
     id="path3735"
     inkscape:connector-curvature="0" />
  <path
     style="fill:none;stroke:#000000;stroke-width:6.24290419px;stroke-linecap:round;stroke-linejoin:bevel;stroke-miterlimit:4;stroke-dasharray:none;stroke-opacity:1"
     d="m 1286.9959,485.37092 203.7861,0"
     id="path3737"
     inkscape:connector-curvature="0" />
  <path
     style="fill:none;stroke:#000000;stroke-width:6.24290419px;stroke-linecap:round;stroke-linejoin:bevel;stroke-miterlimit:4;stroke-dasharray:none;stroke-opacity:1"
     d="m 1490.782,485.37092 -69.5847,24.8559 m 69.5847,-24.8559 -69.5847,-24.8506"
     id="path3739"
     inkscape:connector-curvature="0" />
  <path
     style="fill:none;stroke:#000000;stroke-width:6.24290419px;stroke-linecap:round;stroke-linejoin:bevel;stroke-miterlimit:4;stroke-dasharray:none;stroke-opacity:1"
     d="m 1726.3199,809.09219 366.8559,0"
     id="path3741"
     inkscape:connector-curvature="0" />
  <path
     style="fill:none;stroke:#000000;stroke-width:6.24290419px;stroke-linecap:round;stroke-linejoin:bevel;stroke-miterlimit:4;stroke-dasharray:none;stroke-opacity:1"
     d="m 2097.1671,809.09213 -69.5848,24.8559 m 69.5848,-24.8559 -69.5848,-24.8506"
     id="path3743"
     inkscape:connector-curvature="0" />
  <path
     style="fill:none;stroke:#000000;stroke-width:6.24290419px;stroke-linecap:round;stroke-linejoin:bevel;stroke-miterlimit:4;stroke-dasharray:none;stroke-opacity:1"
     d="m 2514.6808,878.68123 0,183.90077"
     id="path3745"
     inkscape:connector-curvature="0" />
  <path
     style="fill:none;stroke:#000000;stroke-width:6.24290419px;stroke-linecap:round;stroke-linejoin:bevel;stroke-miterlimit:4;stroke-dasharray:none;stroke-opacity:1"
     d="m 2514.6808,1062.582 -24.8509,-69.58377 m 24.8509,69.58377 24.8509,-69.58377"
     id="path3747"
     inkscape:connector-curvature="0" />
  <text
     xml:space="preserve"
     style="font-style:normal;font-variant:normal;font-weight:normal;font-stretch:normal;font-size:83.33332825px;line-height:125%;font-family:Calibri;-inkscape-font-specification:'Calibri, Normal';text-align:start;letter-spacing:0px;word-spacing:0px;writing-mode:lr-tb;text-anchor:start;fill:#000000;fill-opacity:1;stroke:none"
     x="527.19751"
     y="95.470337"
     id="text3379"
     sodipodi:linespacing="125%"
     transform="scale(1.0000068,0.9999932)"><tspan
       sodipodi:role="line"
       x="527.19751"
       y="95.470337"
       id="tspan3381"><tspan
         style="font-style:normal;font-variant:normal;font-weight:normal;font-stretch:normal;font-size:83.33332825px;line-height:125%;font-family:Calibri;-inkscape-font-specification:'Calibri, Normal';text-align:start;writing-mode:lr-tb;text-anchor:start;fill:#000000"
         id="tspan3383">BUSINESS PARTY 1</tspan></tspan></text>
  <text
     xml:space="preserve"
     style="font-style:normal;font-variant:normal;font-weight:normal;font-stretch:normal;font-size:83.33332825px;line-height:125%;font-family:Calibri;-inkscape-font-specification:'Calibri, Normal';text-align:start;letter-spacing:0px;word-spacing:0px;writing-mode:lr-tb;text-anchor:start;fill:#000000;fill-opacity:1;stroke:none"
     x="2256.1931"
     y="95.470337"
     id="text3387"
     sodipodi:linespacing="125%"
     transform="scale(1.0000068,0.9999932)"><tspan
       sodipodi:role="line"
       x="2256.1931"
       y="95.470337"
       id="tspan3389"><tspan
         style="font-style:normal;font-variant:normal;font-weight:normal;font-stretch:normal;font-size:83.33332825px;line-height:125%;font-family:Calibri;-inkscape-font-specification:'Calibri, Normal';text-align:start;writing-mode:lr-tb;text-anchor:start;fill:#000000"
         id="tspan3391">BUSINESS PARTY 0..n</tspan></tspan></text>
  <text
     xml:space="preserve"
     style="font-style:italic;font-variant:normal;font-weight:bold;font-stretch:normal;font-size:49.75999832px;line-height:125%;font-family:ARIAL;-inkscape-font-specification:'ARIAL, Bold Italic';text-align:start;letter-spacing:0px;word-spacing:0px;writing-mode:lr-tb;text-anchor:start;fill:#000000;fill-opacity:1;stroke:none"
     x="1605.7721"
     y="472.13089"
     id="text3411"
     sodipodi:linespacing="125%"
     transform="scale(1.0000068,0.9999932)"><tspan
       sodipodi:role="line"
       x="1605.7721"
       y="472.13089"
       id="tspan3413">Business<tspan
   style="font-style:italic;font-variant:normal;font-weight:bold;font-stretch:normal;font-size:49.75999832px;line-height:125%;font-family:ARIAL;-inkscape-font-specification:'ARIAL, Bold Italic';text-align:start;writing-mode:lr-tb;text-anchor:start;fill:#000000"
   id="tspan3415" /></tspan></text>
  <text
     xml:space="preserve"
     style="font-style:italic;font-variant:normal;font-weight:bold;font-stretch:normal;font-size:49.75999832px;line-height:125%;font-family:ARIAL;-inkscape-font-specification:'ARIAL, Bold Italic';text-align:start;letter-spacing:0px;word-spacing:0px;writing-mode:lr-tb;text-anchor:start;fill:#000000;fill-opacity:1;stroke:none"
     x="1656.8563"
     y="536.74518"
     id="text3417"
     sodipodi:linespacing="125%"
     transform="scale(1.0000068,0.9999932)"><tspan
       sodipodi:role="line"
       x="1656.8563"
       y="536.74518"
       id="tspan3419">Card<tspan
   style="font-style:italic;font-variant:normal;font-weight:bold;font-stretch:normal;font-size:49.75999832px;line-height:125%;font-family:ARIAL;-inkscape-font-specification:'ARIAL, Bold Italic';text-align:start;writing-mode:lr-tb;text-anchor:start;fill:#000000"
   id="tspan3421" /></tspan></text>
  <text
     xml:space="preserve"
     style="font-style:normal;font-variant:normal;font-weight:700;font-size:49.75991058px;line-height:125%;font-family:ARIAL;text-align:start;letter-spacing:0px;word-spacing:0px;text-anchor:start;fill:#000000;fill-opacity:1;stroke:none"
     x="674.86664"
     y="498.75647"
     id="text3427"
     sodipodi:linespacing="125%"
     transform="scale(1.0000068,0.99999318)"><tspan
       sodipodi:role="line"
       x="674.86664"
       y="498.75647"
       id="tspan3429">Publish business card<tspan
   style="font-style:normal;font-variant:normal;font-weight:700;font-size:49.75991058px;font-family:ARIAL;fill:#000000"
   id="tspan3431" /></tspan></text>
  <text
     xml:space="preserve"
     style="font-style:normal;font-variant:normal;font-weight:700;font-size:49.75991058px;line-height:125%;font-family:ARIAL;text-align:start;letter-spacing:0px;word-spacing:0px;text-anchor:start;fill:#000000;fill-opacity:1;stroke:none"
     x="2226.1399"
     y="827.45007"
     id="text3503"
     sodipodi:linespacing="125%"
     transform="scale(1.0000068,0.9999932)"><tspan
       sodipodi:role="line"
       x="2226.1399"
       y="827.45007"
       id="tspan3505">Download business card<tspan
   style="font-style:normal;font-variant:normal;font-weight:700;font-size:49.75991058px;font-family:ARIAL;fill:#000000"
   id="tspan3507" /></tspan></text>
  <path
     style="fill:none;fill-rule:evenodd;stroke:#000000;stroke-width:6.66666651px;stroke-linecap:butt;stroke-linejoin:miter;stroke-opacity:1"
     d="m 1656.0967,717.52581 126.0872,-83.48374"
     id="path3588"
     inkscape:connector-curvature="0" />
  <path
     inkscape:connector-curvature="0"
     id="path3590"
     d="m 1656.0967,754.10326 126.0872,-83.48374"
     style="fill:none;fill-rule:evenodd;stroke:#000000;stroke-width:6.66666651px;stroke-linecap:butt;stroke-linejoin:miter;stroke-opacity:1" />
</svg>
