<?xml version="1.0" encoding="utf-8"?>
<!-- created with bpmn-js / http://bpmn.io -->
<!DOCTYPE svg PUBLIC "-//W3C//DTD SVG 1.1//EN" "http://www.w3.org/Graphics/SVG/1.1/DTD/svg11.dtd">
<svg xmlns="http://www.w3.org/2000/svg" xmlns:xlink="http://www.w3.org/1999/xlink" width="1231" height="818" viewBox="150 75 1231 818" version="1.1"><defs><marker id="sequenceflow-end-white-black-6bhqymnybqw7ciguglt24w7oi" viewBox="0 0 20 20" refX="11" refY="10" markerWidth="10" markerHeight="10" orient="auto"><path d="M 1 5 L 11 10 L 1 15 Z" style="fill: black; stroke-width: 1px; stroke-linecap: round; stroke-dasharray: 10000, 1; stroke: black;"/></marker><marker id="messageflow-end-white-black-6bhqymnybqw7ciguglt24w7oi" viewBox="0 0 20 20" refX="8.5" refY="5" markerWidth="20" markerHeight="20" orient="auto"><path d="m 1 5 l 0 -3 l 7 3 l -7 3 z" style="fill: white; stroke-width: 1px; stroke-linecap: butt; stroke-dasharray: 10000, 1; stroke: black;"/></marker><marker id="messageflow-start-white-black-6bhqymnybqw7ciguglt24w7oi" viewBox="0 0 20 20" refX="6" refY="6" markerWidth="20" markerHeight="20" orient="auto"><circle cx="6" cy="6" r="3.5" style="fill: white; stroke-width: 1px; stroke-linecap: round; stroke-dasharray: 10000, 1; stroke: black;"/></marker></defs><g class="djs-group"><g class="djs-element djs-shape" data-element-id="Participant_0z7vdd2" style="display: block;" transform="matrix(1 0 0 1 156 81)"><g class="djs-visual"><rect x="0" y="0" width="1216" height="398" rx="0" ry="0" style="stroke: black; stroke-width: 2px; fill: white; fill-opacity: 0.95;"/><polyline points="30,0 30,398 " style="fill: none; stroke: black; stroke-width: 2px;"/><text lineHeight="1.2" class="djs-label" style="font-family: Arial, sans-serif; font-size: 12px; font-weight: normal; fill: black;" transform="matrix(-1.83697e-16 -1 1 -1.83697e-16 0 398)"><tspan x="167.65625" y="18.6">Buyer Party</tspan></text></g><rect x="0" y="0" width="1216" height="398" class="djs-hit" style="fill: none; stroke-opacity: 0; stroke: white; stroke-width: 15px;"/><rect x="-6" y="-6" width="1228" height="410" class="djs-outline" style="fill: none;"/></g><g class="djs-children"><g class="djs-group"><g class="djs-element djs-connection" data-element-id="SequenceFlow_1wbpqu6" style="display: block;"><g class="djs-visual"><path d="m  243,306L272,306 " style="fill: none; stroke-width: 2px; stroke: black; stroke-linejoin: round; marker-end: url('#sequenceflow-end-white-black-6bhqymnybqw7ciguglt24w7oi');"/></g><polyline points="243,306 272,306 " class="djs-hit" style="fill: none; stroke-opacity: 0; stroke: white; stroke-width: 15px;"/><rect x="237" y="300" width="41" height="12" class="djs-outline" style="fill: none;"/></g></g><g class="djs-group"><g class="djs-element djs-connection" data-element-id="SequenceFlow_1v396rb" style="display: block;"><g class="djs-visual"><path d="m  1066,281L1066,197 L1130,197 " style="fill: none; stroke-width: 2px; stroke: black; stroke-linejoin: round; marker-end: url('#sequenceflow-end-white-black-6bhqymnybqw7ciguglt24w7oi');"/></g><polyline points="1066,281 1066,197 1130,197 " class="djs-hit" style="fill: none; stroke-opacity: 0; stroke: white; stroke-width: 15px;"/><rect x="1060" y="191" width="76" height="96" class="djs-outline" style="fill: none;"/></g></g><g class="djs-group"><g class="djs-element djs-connection" data-element-id="SequenceFlow_1eagoug" style="display: block;"><g class="djs-visual"><path d="m  991,306L1041,306 " style="fill: none; stroke-width: 2px; stroke: black; stroke-linejoin: round; marker-end: url('#sequenceflow-end-white-black-6bhqymnybqw7ciguglt24w7oi');"/></g><polyline points="991,306 1041,306 " class="djs-hit" style="fill: none; stroke-opacity: 0; stroke: white; stroke-width: 15px;"/><rect x="985" y="300" width="62" height="12" class="djs-outline" style="fill: none;"/></g></g><g class="djs-group"><g class="djs-element djs-connection" data-element-id="SequenceFlow_1leupuy" style="display: block;"><g class="djs-visual"><path d="m  1091,306L1130,306 " style="fill: none; stroke-width: 2px; stroke: black; stroke-linejoin: round; marker-end: url('#sequenceflow-end-white-black-6bhqymnybqw7ciguglt24w7oi');"/></g><polyline points="1091,306 1130,306 " class="djs-hit" style="fill: none; stroke-opacity: 0; stroke: white; stroke-width: 15px;"/><rect x="1085" y="300" width="51" height="12" class="djs-outline" style="fill: none;"/></g></g><g class="djs-group"><g class="djs-element djs-connection" data-element-id="SequenceFlow_1sjqdlk" style="display: block;"><g class="djs-visual"><path d="m  1066,331L1066,408 L1130,408 " style="fill: none; stroke-width: 2px; stroke: black; stroke-linejoin: round; marker-end: url('#sequenceflow-end-white-black-6bhqymnybqw7ciguglt24w7oi');"/></g><polyline points="1066,331 1066,408 1130,408 " class="djs-hit" style="fill: none; stroke-opacity: 0; stroke: white; stroke-width: 15px;"/><rect x="1060" y="325" width="76" height="89" class="djs-outline" style="fill: none;"/></g></g><g class="djs-group"><g class="djs-element djs-connection" data-element-id="SequenceFlow_1ema8uk" style="display: block;"><g class="djs-visual"><path d="m  1230,306L1291,306 " style="fill: none; stroke-width: 2px; stroke: black; stroke-linejoin: round; marker-end: url('#sequenceflow-end-white-black-6bhqymnybqw7ciguglt24w7oi');"/></g><polyline points="1230,306 1291,306 " class="djs-hit" style="fill: none; stroke-opacity: 0; stroke: white; stroke-width: 15px;"/><rect x="1224" y="300" width="73" height="12" class="djs-outline" style="fill: none;"/></g></g><g class="djs-group"><g class="djs-element djs-connection" data-element-id="SequenceFlow_0194e97" style="display: block;"><g class="djs-visual"><path d="m  1230,408L1291,408 " style="fill: none; stroke-width: 2px; stroke: black; stroke-linejoin: round; marker-end: url('#sequenceflow-end-white-black-6bhqymnybqw7ciguglt24w7oi');"/></g><polyline points="1230,408 1291,408 " class="djs-hit" style="fill: none; stroke-opacity: 0; stroke: white; stroke-width: 15px;"/><rect x="1224" y="402" width="73" height="12" class="djs-outline" style="fill: none;"/></g></g><g class="djs-group"><g class="djs-element djs-connection" data-element-id="SequenceFlow_0zznq6t" style="display: block;"><g class="djs-visual"><path d="m  653,306L703,306 " style="fill: none; stroke-width: 2px; stroke: black; stroke-linejoin: round; marker-end: url('#sequenceflow-end-white-black-6bhqymnybqw7ciguglt24w7oi');"/></g><polyline points="653,306 703,306 " class="djs-hit" style="fill: none; stroke-opacity: 0; stroke: white; stroke-width: 15px;"/><rect x="647" y="300" width="62" height="12" class="djs-outline" style="fill: none;"/></g></g><g class="djs-group"><g class="djs-element djs-shape" data-element-id="StartEvent_0a7il09" style="display: block;" transform="matrix(1 0 0 1 207 288)"><g class="djs-visual"><circle cx="18" cy="18" r="18" style="stroke: black; stroke-width: 2px; fill: white; fill-opacity: 0.95;"/></g><rect x="0" y="0" width="36" height="36" class="djs-hit" style="fill: none; stroke-opacity: 0; stroke: white; stroke-width: 15px;"/><rect x="-6" y="-6" width="48" height="48" class="djs-outline" style="fill: none;"/></g></g><g class="djs-group"><g class="djs-element djs-shape" data-element-id="Task_12bpmk2" style="display: block;" transform="matrix(1 0 0 1 553 266)"><g class="djs-visual"><rect x="0" y="0" width="100" height="80" rx="10" ry="10" style="stroke: black; stroke-width: 2px; fill: white; fill-opacity: 0.95;"/><text lineHeight="1.2" class="djs-label" style="font-family: Arial, sans-serif; font-size: 12px; font-weight: normal; fill: black;"><tspan x="28.1640625" y="36.4">Receive </tspan><tspan x="22.8203125" y="50.8">Response</tspan></text></g><rect x="0" y="0" width="100" height="80" class="djs-hit" style="fill: none; stroke-opacity: 0; stroke: white; stroke-width: 15px;"/><rect x="-6" y="-6" width="112" height="92" class="djs-outline" style="fill: none;"/></g></g><g class="djs-group"><g class="djs-element djs-shape" data-element-id="Task_038qlrr" style="display: block;" transform="matrix(1 0 0 1 891 266)"><g class="djs-visual"><rect x="0" y="0" width="100" height="80" rx="10" ry="10" style="stroke: black; stroke-width: 2px; fill: white; fill-opacity: 0.95;"/><text lineHeight="1.2" class="djs-label" style="font-family: Arial, sans-serif; font-size: 12px; font-weight: normal; fill: black;"><tspan x="28.1640625" y="36.4">Receive</tspan><tspan x="22.8203125" y="50.8">Response</tspan></text></g><rect x="0" y="0" width="100" height="80" class="djs-hit" style="fill: none; stroke-opacity: 0; stroke: white; stroke-width: 15px;"/><rect x="-6" y="-6" width="112" height="92" class="djs-outline" style="fill: none;"/></g></g><g class="djs-group"><g class="djs-element djs-shape" data-element-id="ExclusiveGateway_09rarth" style="display: block;" transform="matrix(1 0 0 1 1041 281)"><g class="djs-visual"><polygon points="25,0 50,25 25,50 0,25" style="stroke: black; stroke-width: 2px; fill: white; fill-opacity: 0.95;"/><path d="m 16,15 7.42857142857143,9.714285714285715 -7.42857142857143,9.714285714285715 3.428571428571429,0 5.714285714285715,-7.464228571428572 5.714285714285715,7.464228571428572 3.428571428571429,0 -7.42857142857143,-9.714285714285715 7.42857142857143,-9.714285714285715 -3.428571428571429,0 -5.714285714285715,7.464228571428572 -5.714285714285715,-7.464228571428572 -3.428571428571429,0 z" style="fill: black; stroke-width: 1px; stroke: black;"/></g><rect x="0" y="0" width="50" height="50" class="djs-hit" style="fill: none; stroke-opacity: 0; stroke: white; stroke-width: 15px;"/><rect x="-6" y="-6" width="62" height="62" class="djs-outline" style="fill: none;"/></g></g><g class="djs-group"><g class="djs-element djs-shape" data-element-id="EndEvent_1vnw2be" style="display: block;" transform="matrix(1 0 0 1 703 288)"><g class="djs-visual"><circle cx="18" cy="18" r="18" style="stroke: black; stroke-width: 4px; fill: white; fill-opacity: 0.95;"/><circle cx="18" cy="18" r="10" style="stroke: black; stroke-width: 4px; fill: black;"/></g><rect x="0" y="0" width="36" height="36" class="djs-hit" style="fill: none; stroke-opacity: 0; stroke: white; stroke-width: 15px;"/><rect x="-6" y="-6" width="48" height="48" class="djs-outline" style="fill: none;"/></g></g><g class="djs-group"><g class="djs-element djs-shape" data-element-id="Task_1bnlp2b" style="display: block;" transform="matrix(1 0 0 1 272 266)"><g class="djs-visual"><rect x="0" y="0" width="100" height="80" rx="10" ry="10" style="stroke: black; stroke-width: 2px; fill: white; fill-opacity: 0.95;"/><text lineHeight="1.2" class="djs-label" style="font-family: Arial, sans-serif; font-size: 12px; font-weight: normal; fill: black;"><tspan x="17.4921875" y="43.599999999999994">Place Order</tspan></text></g><rect x="0" y="0" width="100" height="80" class="djs-hit" style="fill: none; stroke-opacity: 0; stroke: white; stroke-width: 15px;"/><rect x="-6" y="-6" width="112" height="92" class="djs-outline" style="fill: none;"/></g></g><g class="djs-group"><g class="djs-element djs-shape" data-element-id="Task_1jgt0g6" style="display: block;" transform="matrix(1 0 0 1 1130 266)"><g class="djs-visual"><rect x="0" y="0" width="100" height="80" rx="10" ry="10" style="stroke: black; stroke-width: 2px; fill: white; fill-opacity: 0.95;"/><text lineHeight="1.2" class="djs-label" style="font-family: Arial, sans-serif; font-size: 12px; font-weight: normal; fill: black;"><tspan x="14.65625" y="43.599999999999994">Accept Order</tspan></text></g><rect x="0" y="0" width="100" height="80" class="djs-hit" style="fill: none; stroke-opacity: 0; stroke: white; stroke-width: 15px;"/><rect x="-6" y="-6" width="112" height="92" class="djs-outline" style="fill: none;"/></g></g><g class="djs-group"><g class="djs-element djs-shape" data-element-id="EndEvent_1wx8f0t" style="display: block;" transform="matrix(1 0 0 1 1291 288)"><g class="djs-visual"><circle cx="18" cy="18" r="18" style="stroke: black; stroke-width: 4px; fill: white; fill-opacity: 0.95;"/><circle cx="18" cy="18" r="10" style="stroke: black; stroke-width: 4px; fill: black;"/></g><rect x="0" y="0" width="36" height="36" class="djs-hit" style="fill: none; stroke-opacity: 0; stroke: white; stroke-width: 15px;"/><rect x="-6" y="-6" width="48" height="48" class="djs-outline" style="fill: none;"/></g></g><g class="djs-group"><g class="djs-element djs-shape" data-element-id="Task_1me0nw2" style="display: block;" transform="matrix(1 0 0 1 1130 368)"><g class="djs-visual"><rect x="0" y="0" width="100" height="80" rx="10" ry="10" style="stroke: black; stroke-width: 2px; fill: white; fill-opacity: 0.95;"/><text lineHeight="1.2" class="djs-label" style="font-family: Arial, sans-serif; font-size: 12px; font-weight: normal; fill: black;"><tspan x="13.8203125" y="43.599999999999994">Cancel Order</tspan></text></g><rect x="0" y="0" width="100" height="80" class="djs-hit" style="fill: none; stroke-opacity: 0; stroke: white; stroke-width: 15px;"/><rect x="-6" y="-6" width="112" height="92" class="djs-outline" style="fill: none;"/></g></g><g class="djs-group"><g class="djs-element djs-shape" data-element-id="Task_0c5jg3a" style="display: block;" transform="matrix(1 0 0 1 1130 157)"><g class="djs-visual"><rect x="0" y="0" width="100" height="80" rx="10" ry="10" style="stroke: black; stroke-width: 2px; fill: white; fill-opacity: 0.95;"/><text lineHeight="1.2" class="djs-label" style="font-family: Arial, sans-serif; font-size: 12px; font-weight: normal; fill: black;"><tspan x="11.4765625" y="43.599999999999994">Change Order</tspan></text></g><rect x="0" y="0" width="100" height="80" class="djs-hit" style="fill: none; stroke-opacity: 0; stroke: white; stroke-width: 15px;"/><rect x="-6" y="-6" width="112" height="92" class="djs-outline" style="fill: none;"/></g></g><g class="djs-group"><g class="djs-element djs-shape" data-element-id="EndEvent_0ijc47u" style="display: block;" transform="matrix(1 0 0 1 1291 390)"><g class="djs-visual"><circle cx="18" cy="18" r="18" style="stroke: black; stroke-width: 4px; fill: white; fill-opacity: 0.95;"/><circle cx="18" cy="18" r="10" style="stroke: black; stroke-width: 4px; fill: black;"/></g><rect x="0" y="0" width="36" height="36" class="djs-hit" style="fill: none; stroke-opacity: 0; stroke: white; stroke-width: 15px;"/><rect x="-6" y="-6" width="48" height="48" class="djs-outline" style="fill: none;"/></g></g></g></g><g class="djs-group"><g class="djs-element djs-shape" data-element-id="Participant_0aphwi9" style="display: block;" transform="matrix(1 0 0 1 156 588)"><g class="djs-visual"><rect x="0" y="0" width="1219" height="299" rx="0" ry="0" style="stroke: black; stroke-width: 2px; fill: white; fill-opacity: 0.95;"/><polyline points="30,0 30,299 " style="fill: none; stroke: black; stroke-width: 2px;"/><text lineHeight="1.2" class="djs-label" style="font-family: Arial, sans-serif; font-size: 12px; font-weight: normal; fill: black;" transform="matrix(-1.83697e-16 -1 1 -1.83697e-16 0 299)"><tspan x="118.4921875" y="18.6">Seller Party</tspan></text></g><rect x="0" y="0" width="1219" height="299" class="djs-hit" style="fill: none; stroke-opacity: 0; stroke: white; stroke-width: 15px;"/><rect x="-6" y="-6" width="1231" height="311" class="djs-outline" style="fill: none;"/></g><g class="djs-children"><g class="djs-group"><g class="djs-element djs-connection" data-element-id="SequenceFlow_0mujrxj" style="display: block;"><g class="djs-visual"><path d="m  403,655L453,655 " style="fill: none; stroke-width: 2px; stroke: black; stroke-linejoin: round; marker-end: url('#sequenceflow-end-white-black-6bhqymnybqw7ciguglt24w7oi');"/></g><polyline points="403,655 453,655 " class="djs-hit" style="fill: none; stroke-opacity: 0; stroke: white; stroke-width: 15px;"/><rect x="397" y="649" width="62" height="12" class="djs-outline" style="fill: none;"/></g></g><g class="djs-group"><g class="djs-element djs-connection" data-element-id="SequenceFlow_16jzlyy" style="display: block;"><g class="djs-visual"><path d="m  503,655L553,655 " style="fill: none; stroke-width: 2px; stroke: black; stroke-linejoin: round; marker-end: url('#sequenceflow-end-white-black-6bhqymnybqw7ciguglt24w7oi');"/></g><polyline points="503,655 553,655 " class="djs-hit" style="fill: none; stroke-opacity: 0; stroke: white; stroke-width: 15px;"/><rect x="497" y="649" width="62" height="12" class="djs-outline" style="fill: none;"/></g></g><g class="djs-group"><g class="djs-element djs-connection" data-element-id="SequenceFlow_0h89nno" style="display: block;"><g class="djs-visual"><path d="m  478,680L478,742 L744,742 " style="fill: none; stroke-width: 2px; stroke: black; stroke-linejoin: round; marker-end: url('#sequenceflow-end-white-black-6bhqymnybqw7ciguglt24w7oi');"/></g><polyline points="478,680 478,742 744,742 " class="djs-hit" style="fill: none; stroke-opacity: 0; stroke: white; stroke-width: 15px;"/><rect x="472" y="674" width="278" height="74" class="djs-outline" style="fill: none;"/></g></g><g class="djs-group"><g class="djs-element djs-connection" data-element-id="SequenceFlow_0q73g0h" style="display: block;"><g class="djs-visual"><path d="m  478,680L478,813 L553,813 " style="fill: none; stroke-width: 2px; stroke: black; stroke-linejoin: round; marker-end: url('#sequenceflow-end-white-black-6bhqymnybqw7ciguglt24w7oi');"/></g><polyline points="478,680 478,813 553,813 " class="djs-hit" style="fill: none; stroke-opacity: 0; stroke: white; stroke-width: 15px;"/><rect x="472" y="674" width="87" height="145" class="djs-outline" style="fill: none;"/></g></g><g class="djs-group"><g class="djs-element djs-connection" data-element-id="SequenceFlow_08mxde1" style="display: block;"><g class="djs-visual"><path d="m  653,813L883,813 " style="fill: none; stroke-width: 2px; stroke: black; stroke-linejoin: round; marker-end: url('#sequenceflow-end-white-black-6bhqymnybqw7ciguglt24w7oi');"/></g><polyline points="653,813 883,813 " class="djs-hit" style="fill: none; stroke-opacity: 0; stroke: white; stroke-width: 15px;"/><rect x="647" y="807" width="242" height="12" class="djs-outline" style="fill: none;"/></g></g><g class="djs-group"><g class="djs-element djs-connection" data-element-id="SequenceFlow_1az0dxf" style="display: block;"><g class="djs-visual"><path d="m  933,813L1130,813 " style="fill: none; stroke-width: 2px; stroke: black; stroke-linejoin: round; marker-end: url('#sequenceflow-end-white-black-6bhqymnybqw7ciguglt24w7oi');"/></g><polyline points="933,813 1130,813 " class="djs-hit" style="fill: none; stroke-opacity: 0; stroke: white; stroke-width: 15px;"/><rect x="927" y="807" width="209" height="12" class="djs-outline" style="fill: none;"/></g></g><g class="djs-group"><g class="djs-element djs-connection" data-element-id="SequenceFlow_1wslf28" style="display: block;"><g class="djs-visual"><path d="m  1230,813L1290,813 " style="fill: none; stroke-width: 2px; stroke: black; stroke-linejoin: round; marker-end: url('#sequenceflow-end-white-black-6bhqymnybqw7ciguglt24w7oi');"/></g><polyline points="1230,813 1290,813 " class="djs-hit" style="fill: none; stroke-opacity: 0; stroke: white; stroke-width: 15px;"/><rect x="1224" y="807" width="72" height="12" class="djs-outline" style="fill: none;"/></g></g><g class="djs-group"><g class="djs-element djs-connection" data-element-id="SequenceFlow_1mcki8f" style="display: block;"><g class="djs-visual"><path d="m  908,788L908,701 L968,701 " style="fill: none; stroke-width: 2px; stroke: black; stroke-linejoin: round; marker-end: url('#sequenceflow-end-white-black-6bhqymnybqw7ciguglt24w7oi');"/></g><polyline points="908,788 908,701 968,701 " class="djs-hit" style="fill: none; stroke-opacity: 0; stroke: white; stroke-width: 15px;"/><rect x="902" y="695" width="72" height="99" class="djs-outline" style="fill: none;"/></g></g><g class="djs-group"><g class="djs-element djs-connection" data-element-id="SequenceFlow_0ydac8w" style="display: block;"><g class="djs-visual"><path d="m  1230,655L1290,655 " style="fill: none; stroke-width: 2px; stroke: black; stroke-linejoin: round; marker-end: url('#sequenceflow-end-white-black-6bhqymnybqw7ciguglt24w7oi');"/></g><polyline points="1230,655 1290,655 " class="djs-hit" style="fill: none; stroke-opacity: 0; stroke: white; stroke-width: 15px;"/><rect x="1224" y="649" width="72" height="12" class="djs-outline" style="fill: none;"/></g></g><g class="djs-group"><g class="djs-element djs-connection" data-element-id="SequenceFlow_0px9rlv" style="display: block;"><g class="djs-visual"><path d="m  653,655L700,655 " style="fill: none; stroke-width: 2px; stroke: black; stroke-linejoin: round; marker-end: url('#sequenceflow-end-white-black-6bhqymnybqw7ciguglt24w7oi');"/></g><polyline points="653,655 700,655 " class="djs-hit" style="fill: none; stroke-opacity: 0; stroke: white; stroke-width: 15px;"/><rect x="647" y="649" width="59" height="12" class="djs-outline" style="fill: none;"/></g></g><g class="djs-group"><g class="djs-element djs-connection" data-element-id="SequenceFlow_1278fsl" style="display: block;"><g class="djs-visual"><path d="m  1068,701L1099,701 L1099,813 L1130,813 " style="fill: none; stroke-width: 2px; stroke: black; stroke-linejoin: round; marker-end: url('#sequenceflow-end-white-black-6bhqymnybqw7ciguglt24w7oi');"/></g><polyline points="1068,701 1099,701 1099,813 1130,813 " class="djs-hit" style="fill: none; stroke-opacity: 0; stroke: white; stroke-width: 15px;"/><rect x="1062" y="695" width="74" height="124" class="djs-outline" style="fill: none;"/></g></g><g class="djs-group"><g class="djs-element djs-shape" data-element-id="Task_1mebme0" style="display: block;" transform="matrix(1 0 0 1 303 615)"><g class="djs-visual"><rect x="0" y="0" width="100" height="80" rx="10" ry="10" style="stroke: black; stroke-width: 2px; fill: white; fill-opacity: 0.95;"/><text lineHeight="1.2" class="djs-label" style="font-family: Arial, sans-serif; font-size: 12px; font-weight: normal; fill: black;"><tspan x="10.8203125" y="43.599999999999994">Receive Order</tspan></text></g><rect x="0" y="0" width="100" height="80" class="djs-hit" style="fill: none; stroke-opacity: 0; stroke: white; stroke-width: 15px;"/><rect x="-6" y="-6" width="112" height="92" class="djs-outline" style="fill: none;"/></g></g><g class="djs-group"><g class="djs-element djs-shape" data-element-id="ExclusiveGateway_14vj4fv" style="display: block;" transform="matrix(1 0 0 1 453 630)"><g class="djs-visual"><polygon points="25,0 50,25 25,50 0,25" style="stroke: black; stroke-width: 2px; fill: white; fill-opacity: 0.95;"/><path d="m 16,15 7.42857142857143,9.714285714285715 -7.42857142857143,9.714285714285715 3.428571428571429,0 5.714285714285715,-7.464228571428572 5.714285714285715,7.464228571428572 3.428571428571429,0 -7.42857142857143,-9.714285714285715 7.42857142857143,-9.714285714285715 -3.428571428571429,0 -5.714285714285715,7.464228571428572 -5.714285714285715,-7.464228571428572 -3.428571428571429,0 z" style="fill: black; stroke-width: 1px; stroke: black;"/></g><rect x="0" y="0" width="50" height="50" class="djs-hit" style="fill: none; stroke-opacity: 0; stroke: white; stroke-width: 15px;"/><rect x="-6" y="-6" width="62" height="62" class="djs-outline" style="fill: none;"/></g></g><g class="djs-group"><g class="djs-element djs-shape" data-element-id="Task_0lcoulg" style="display: block;" transform="matrix(1 0 0 1 553 615)"><g class="djs-visual"><rect x="0" y="0" width="100" height="80" rx="10" ry="10" style="stroke: black; stroke-width: 2px; fill: white; fill-opacity: 0.95;"/><text lineHeight="1.2" class="djs-label" style="font-family: Arial, sans-serif; font-size: 12px; font-weight: normal; fill: black;"><tspan x="15.4921875" y="43.599999999999994">Reject Order</tspan></text></g><rect x="0" y="0" width="100" height="80" class="djs-hit" style="fill: none; stroke-opacity: 0; stroke: white; stroke-width: 15px;"/><rect x="-6" y="-6" width="112" height="92" class="djs-outline" style="fill: none;"/></g></g><g class="djs-group"><g class="djs-element djs-shape" data-element-id="Task_0iugz5l" style="display: block;" transform="matrix(1 0 0 1 553 773)"><g class="djs-visual"><rect x="0" y="0" width="100" height="80" rx="10" ry="10" style="stroke: black; stroke-width: 2px; fill: white; fill-opacity: 0.95;"/><text lineHeight="1.2" class="djs-label" style="font-family: Arial, sans-serif; font-size: 12px; font-weight: normal; fill: black;"><tspan x="14.65625" y="43.599999999999994">Accept Order</tspan></text></g><rect x="0" y="0" width="100" height="80" class="djs-hit" style="fill: none; stroke-opacity: 0; stroke: white; stroke-width: 15px;"/><rect x="-6" y="-6" width="112" height="92" class="djs-outline" style="fill: none;"/></g></g><g class="djs-group"><g class="djs-element djs-shape" data-element-id="Task_0bivuiv" style="display: block;" transform="matrix(1 0 0 1 744 702)"><g class="djs-visual"><rect x="0" y="0" width="100" height="80" rx="10" ry="10" style="stroke: black; stroke-width: 2px; fill: white; fill-opacity: 0.95;"/><text lineHeight="1.2" class="djs-label" style="font-family: Arial, sans-serif; font-size: 12px; font-weight: normal; fill: black;"><tspan x="22.65625" y="43.599999999999994">Add Detail</tspan></text></g><rect x="0" y="0" width="100" height="80" class="djs-hit" style="fill: none; stroke-opacity: 0; stroke: white; stroke-width: 15px;"/><rect x="-6" y="-6" width="112" height="92" class="djs-outline" style="fill: none;"/></g></g><g class="djs-group"><g class="djs-element djs-shape" data-element-id="ExclusiveGateway_172g7im" style="display: block;" transform="matrix(1 0 0 1 883 788)"><g class="djs-visual"><polygon points="25,0 50,25 25,50 0,25" style="stroke: black; stroke-width: 2px; fill: white; fill-opacity: 0.95;"/><path d="m 16,15 7.42857142857143,9.714285714285715 -7.42857142857143,9.714285714285715 3.428571428571429,0 5.714285714285715,-7.464228571428572 5.714285714285715,7.464228571428572 3.428571428571429,0 -7.42857142857143,-9.714285714285715 7.42857142857143,-9.714285714285715 -3.428571428571429,0 -5.714285714285715,7.464228571428572 -5.714285714285715,-7.464228571428572 -3.428571428571429,0 z" style="fill: black; stroke-width: 1px; stroke: black;"/></g><rect x="0" y="0" width="50" height="50" class="djs-hit" style="fill: none; stroke-opacity: 0; stroke: white; stroke-width: 15px;"/><rect x="-6" y="-6" width="62" height="62" class="djs-outline" style="fill: none;"/></g></g><g class="djs-group"><g class="djs-element djs-shape" data-element-id="EndEvent_1z0vw81" style="display: block;" transform="matrix(1 0 0 1 700 637)"><g class="djs-visual"><circle cx="18" cy="18" r="18" style="stroke: black; stroke-width: 4px; fill: white; fill-opacity: 0.95;"/><circle cx="18" cy="18" r="10" style="stroke: black; stroke-width: 4px; fill: black;"/></g><rect x="0" y="0" width="36" height="36" class="djs-hit" style="fill: none; stroke-opacity: 0; stroke: white; stroke-width: 15px;"/><rect x="-6" y="-6" width="48" height="48" class="djs-outline" style="fill: none;"/></g></g><g class="djs-group"><g class="djs-element djs-shape" data-element-id="Task_1spnpcs" style="display: block;" transform="matrix(1 0 0 1 1130 615)"><g class="djs-visual"><rect x="0" y="0" width="100" height="80" rx="10" ry="10" style="stroke: black; stroke-width: 2px; fill: white; fill-opacity: 0.95;"/><text lineHeight="1.2" class="djs-label" style="font-family: Arial, sans-serif; font-size: 12px; font-weight: normal; fill: black;"><tspan x="13.8203125" y="43.599999999999994">Cancel Order</tspan></text></g><rect x="0" y="0" width="100" height="80" class="djs-hit" style="fill: none; stroke-opacity: 0; stroke: white; stroke-width: 15px;"/><rect x="-6" y="-6" width="112" height="92" class="djs-outline" style="fill: none;"/></g></g><g class="djs-group"><g class="djs-element djs-shape" data-element-id="EndEvent_16wa8qg" style="display: block;" transform="matrix(1 0 0 1 1290 637)"><g class="djs-visual"><circle cx="18" cy="18" r="18" style="stroke: black; stroke-width: 4px; fill: white; fill-opacity: 0.95;"/><circle cx="18" cy="18" r="10" style="stroke: black; stroke-width: 4px; fill: black;"/></g><rect x="0" y="0" width="36" height="36" class="djs-hit" style="fill: none; stroke-opacity: 0; stroke: white; stroke-width: 15px;"/><rect x="-6" y="-6" width="48" height="48" class="djs-outline" style="fill: none;"/></g></g><g class="djs-group"><g class="djs-element djs-shape" data-element-id="EndEvent_0nbyi1l" style="display: block;" transform="matrix(1 0 0 1 1290 795)"><g class="djs-visual"><circle cx="18" cy="18" r="18" style="stroke: black; stroke-width: 4px; fill: white; fill-opacity: 0.95;"/><circle cx="18" cy="18" r="10" style="stroke: black; stroke-width: 4px; fill: black;"/></g><rect x="0" y="0" width="36" height="36" class="djs-hit" style="fill: none; stroke-opacity: 0; stroke: white; stroke-width: 15px;"/><rect x="-6" y="-6" width="48" height="48" class="djs-outline" style="fill: none;"/></g></g><g class="djs-group"><g class="djs-element djs-shape" data-element-id="Task_0s1bzy5" style="display: block;" transform="matrix(1 0 0 1 968 661)"><g class="djs-visual"><rect x="0" y="0" width="100" height="80" rx="10" ry="10" style="stroke: black; stroke-width: 2px; fill: white; fill-opacity: 0.95;"/><text lineHeight="1.2" class="djs-label" style="font-family: Arial, sans-serif; font-size: 12px; font-weight: normal; fill: black;"><tspan x="31.828125" y="36.4">Create </tspan><tspan x="22.8203125" y="50.8">Response</tspan></text></g><rect x="0" y="0" width="100" height="80" class="djs-hit" style="fill: none; stroke-opacity: 0; stroke: white; stroke-width: 15px;"/><rect x="-6" y="-6" width="112" height="92" class="djs-outline" style="fill: none;"/></g></g><g class="djs-group"><g class="djs-element djs-shape" data-element-id="Task_129th6z" style="display: block;" transform="matrix(1 0 0 1 1130 773)"><g class="djs-visual"><rect x="0" y="0" width="100" height="80" rx="10" ry="10" style="stroke: black; stroke-width: 2px; fill: white; fill-opacity: 0.95;"/><text lineHeight="1.2" class="djs-label" style="font-family: Arial, sans-serif; font-size: 12px; font-weight: normal; fill: black;"><tspan x="10.15625" y="43.599999999999994">Register Order</tspan></text></g><rect x="0" y="0" width="100" height="80" class="djs-hit" style="fill: none; stroke-opacity: 0; stroke: white; stroke-width: 15px;"/><rect x="-6" y="-6" width="112" height="92" class="djs-outline" style="fill: none;"/></g></g></g></g><g class="djs-group"><g class="djs-element djs-shape" data-element-id="SequenceFlow_1az0dxf_label" style="display: block;" transform="matrix(1 0 0 1 985 783)"><g class="djs-visual"><text lineHeight="1.2" class="djs-label" style="font-family: Arial, sans-serif; font-size: 11px; font-weight: normal; fill: black;"><tspan x="0" y="9.899999999999999">response not </tspan><tspan x="12.09375" y="23.099999999999998">required</tspan></text></g><rect x="0" y="0" width="65" height="27" class="djs-hit" style="fill: none; stroke-opacity: 0; stroke: white; stroke-width: 15px;"/><rect x="-6" y="-6" width="77" height="39" class="djs-outline" style="fill: none;"/></g></g><g class="djs-group"><g class="djs-element djs-shape" data-element-id="SequenceFlow_1mcki8f_label" style="display: block;" transform="matrix(1 0 0 1 879 742)"><g class="djs-visual"><text lineHeight="1.2" class="djs-label" style="font-family: Arial, sans-serif; font-size: 11px; font-weight: normal; fill: black;"><tspan x="0" y="9.899999999999999">response required</tspan></text></g><rect x="0" y="0" width="89" height="14" class="djs-hit" style="fill: none; stroke-opacity: 0; stroke: white; stroke-width: 15px;"/><rect x="-6" y="-6" width="101" height="26" class="djs-outline" style="fill: none;"/></g></g><g class="djs-group"><g class="djs-element djs-shape" data-element-id="MessageFlow_0w3w0y5_label" style="display: block;" transform="matrix(1 0 0 1 324 526)"><g class="djs-visual"><text lineHeight="1.2" class="djs-label" style="font-family: Arial, sans-serif; font-size: 11px; font-weight: normal; fill: black;"><tspan x="0" y="9.899999999999999">Order</tspan></text></g><rect x="0" y="0" width="30" height="14" class="djs-hit" style="fill: none; stroke-opacity: 0; stroke: white; stroke-width: 15px;"/><rect x="-6" y="-6" width="42" height="26" class="djs-outline" style="fill: none;"/></g></g><g class="djs-group"><g class="djs-element djs-shape" data-element-id="MessageFlow_0s1b7kf_label" style="display: block;" transform="matrix(1 0 0 1 578 531)"><g class="djs-visual"><text lineHeight="1.2" class="djs-label" style="font-family: Arial, sans-serif; font-size: 11px; font-weight: normal; fill: black;"><tspan x="0" y="9.899999999999999">OrderResponse</tspan><tspan x="22.015625" y="23.099999999999998">Simple</tspan></text></g><rect x="0" y="0" width="78" height="27" class="djs-hit" style="fill: none; stroke-opacity: 0; stroke: white; stroke-width: 15px;"/><rect x="-6" y="-6" width="90" height="39" class="djs-outline" style="fill: none;"/></g></g><g class="djs-group"><g class="djs-element djs-shape" data-element-id="MessageFlow_1yhvtn4_label" style="display: block;" transform="matrix(1 0 0 1 1165 515)"><g class="djs-visual"><text lineHeight="1.2" class="djs-label" style="font-family: Arial, sans-serif; font-size: 11px; font-weight: normal; fill: black;"><tspan x="15.5390625" y="9.899999999999999">Order</tspan><tspan x="0" y="23.099999999999998">Cancellation</tspan></text></g><rect x="0" y="0" width="61" height="27" class="djs-hit" style="fill: none; stroke-opacity: 0; stroke: white; stroke-width: 15px;"/><rect x="-6" y="-6" width="73" height="39" class="djs-outline" style="fill: none;"/></g></g><g class="djs-group"><g class="djs-element djs-shape" data-element-id="MessageFlow_1rjk340_label" style="display: block;" transform="matrix(1 0 0 1 367 524)"><g class="djs-visual"><text lineHeight="1.2" class="djs-label" style="font-family: Arial, sans-serif; font-size: 11px; font-weight: normal; fill: black;"><tspan x="0" y="9.899999999999999">OrderChange</tspan></text></g><rect x="0" y="0" width="67" height="14" class="djs-hit" style="fill: none; stroke-opacity: 0; stroke: white; stroke-width: 15px;"/><rect x="-6" y="-6" width="79" height="26" class="djs-outline" style="fill: none;"/></g></g><g class="djs-group"><g class="djs-element djs-shape" data-element-id="MessageFlow_1tw9ssh_label" style="display: block;" transform="matrix(1 0 0 1 828 532)"><g class="djs-visual"><text lineHeight="1.2" class="djs-label" style="font-family: Arial, sans-serif; font-size: 11px; font-weight: normal; fill: black;"><tspan x="0" y="9.899999999999999">OrderResponse</tspan></text></g><rect x="0" y="0" width="78" height="14" class="djs-hit" style="fill: none; stroke-opacity: 0; stroke: white; stroke-width: 15px;"/><rect x="-6" y="-6" width="90" height="26" class="djs-outline" style="fill: none;"/></g></g><g class="djs-group"><g class="djs-element djs-shape" data-element-id="MessageFlow_02j4qq6_label" style="display: block;" transform="matrix(1 0 0 1 954 530)"><g class="djs-visual"><text lineHeight="1.2" class="djs-label" style="font-family: Arial, sans-serif; font-size: 11px; font-weight: normal; fill: black;"><tspan x="0" y="9.899999999999999">OrderResponse </tspan><tspan x="22.015625" y="23.099999999999998">Simple</tspan></text></g><rect x="0" y="0" width="78" height="27" class="djs-hit" style="fill: none; stroke-opacity: 0; stroke: white; stroke-width: 15px;"/><rect x="-6" y="-6" width="90" height="39" class="djs-outline" style="fill: none;"/></g></g><g class="djs-group"><g class="djs-element djs-connection" data-element-id="MessageFlow_0s1b7kf" style="display: block;"><g class="djs-visual"><path d="m  603,615L603,346 " style="fill: none; stroke-width: 1.5px; stroke: black; marker-end: url('#messageflow-end-white-black-6bhqymnybqw7ciguglt24w7oi'); marker-start: url('#messageflow-start-white-black-6bhqymnybqw7ciguglt24w7oi'); stroke-dasharray: 10, 12; stroke-linecap: round; stroke-linejoin: round;"/></g><polyline points="603,615 603,346 " class="djs-hit" style="fill: none; stroke-opacity: 0; stroke: white; stroke-width: 15px;"/><rect x="597" y="340" width="12" height="281" class="djs-outline" style="fill: none;"/></g></g><g class="djs-group"><g class="djs-element djs-connection" data-element-id="MessageFlow_1tw9ssh" style="display: block;"><g class="djs-visual"><path d="m  794,702L794,554 L929,554 L929,346 " style="fill: none; stroke-width: 1.5px; stroke: black; marker-end: url('#messageflow-end-white-black-6bhqymnybqw7ciguglt24w7oi'); marker-start: url('#messageflow-start-white-black-6bhqymnybqw7ciguglt24w7oi'); stroke-dasharray: 10, 12; stroke-linecap: round; stroke-linejoin: round;"/></g><polyline points="794,702 794,554 929,554 929,346 " class="djs-hit" style="fill: none; stroke-opacity: 0; stroke: white; stroke-width: 15px;"/><rect x="788" y="340" width="147" height="368" class="djs-outline" style="fill: none;"/></g></g><g class="djs-group"><g class="djs-element djs-connection" data-element-id="MessageFlow_02j4qq6" style="display: block;"><g class="djs-visual"><path d="m  1018,661L1018,555 L966,555 L966,346 " style="fill: none; stroke-width: 1.5px; stroke: black; marker-end: url('#messageflow-end-white-black-6bhqymnybqw7ciguglt24w7oi'); marker-start: url('#messageflow-start-white-black-6bhqymnybqw7ciguglt24w7oi'); stroke-dasharray: 10, 12; stroke-linecap: round; stroke-linejoin: round;"/></g><polyline points="1018,661 1018,555 966,555 966,346 " class="djs-hit" style="fill: none; stroke-opacity: 0; stroke: white; stroke-width: 15px;"/><rect x="960" y="340" width="64" height="327" class="djs-outline" style="fill: none;"/></g></g><g class="djs-group"><g class="djs-element djs-connection" data-element-id="MessageFlow_0w3w0y5" style="display: block;"><g class="djs-visual"><path d="m  322,346L322,615 " style="fill: none; stroke-width: 1.5px; stroke: black; marker-end: url('#messageflow-end-white-black-6bhqymnybqw7ciguglt24w7oi'); marker-start: url('#messageflow-start-white-black-6bhqymnybqw7ciguglt24w7oi'); stroke-dasharray: 10, 12; stroke-linecap: round; stroke-linejoin: round;"/></g><polyline points="322,346 322,615 " class="djs-hit" style="fill: none; stroke-opacity: 0; stroke: white; stroke-width: 15px;"/><rect x="316" y="340" width="12" height="281" class="djs-outline" style="fill: none;"/></g></g><g class="djs-group"><g class="djs-element djs-connection" data-element-id="MessageFlow_1yhvtn4" style="display: block;"><g class="djs-visual"><path d="m  1180,448L1180,615 " style="fill: none; stroke-width: 1.5px; stroke: black; marker-end: url('#messageflow-end-white-black-6bhqymnybqw7ciguglt24w7oi'); marker-start: url('#messageflow-start-white-black-6bhqymnybqw7ciguglt24w7oi'); stroke-dasharray: 10, 12; stroke-linecap: round; stroke-linejoin: round;"/></g><polyline points="1180,448 1180,615 " class="djs-hit" style="fill: none; stroke-opacity: 0; stroke: white; stroke-width: 15px;"/><rect x="1174" y="442" width="12" height="179" class="djs-outline" style="fill: none;"/></g></g><g class="djs-group"><g class="djs-element djs-connection" data-element-id="MessageFlow_1rjk340" style="display: block;"><g class="djs-visual"><path d="m  1180,157L1180,115 L389,115 L389,615 " style="fill: none; stroke-width: 1.5px; stroke: black; marker-end: url('#messageflow-end-white-black-6bhqymnybqw7ciguglt24w7oi'); marker-start: url('#messageflow-start-white-black-6bhqymnybqw7ciguglt24w7oi'); stroke-dasharray: 10, 12; stroke-linecap: round; stroke-linejoin: round;"/></g><polyline points="1180,157 1180,115 389,115 389,615 " class="djs-hit" style="fill: none; stroke-opacity: 0; stroke: white; stroke-width: 15px;"/><rect x="383" y="109" width="803" height="512" class="djs-outline" style="fill: none;"/></g></g><g class="djs-drag-group" style="pointer-events: none;" transform="matrix(1 0 0 1 -62 -55)"/><g class="djs-drag-group" style="pointer-events: none;" transform="matrix(1 0 0 1 2 -238)"/><g class="djs-drag-group" style="pointer-events: none;" transform="matrix(1 0 0 1 -250 201)"/><g class="djs-drag-group" style="pointer-events: none;" transform="matrix(1 0 0 1 -18 -220)"/><g class="djs-drag-group" style="pointer-events: none;" transform="matrix(1 0 0 1 232 0)"/><g class="djs-drag-group" style="pointer-events: none;" transform="matrix(1 0 0 1 -18 0)"/><g class="djs-drag-group" style="pointer-events: none;" transform="matrix(1 0 0 1 0 19)"/><g class="djs-drag-group" style="pointer-events: none;" transform="matrix(1 0 0 1 12 -220)"/><g class="djs-drag-group" style="pointer-events: none;" transform="matrix(1 0 0 1 0 -185)"/><g class="djs-drag-group" style="pointer-events: none;" transform="matrix(1 0 0 1 16 0)"/><g class="djs-drag-group" style="pointer-events: none;" transform="matrix(1 0 0 1 11 66)"/><g class="djs-drag-group" style="pointer-events: none;" transform="matrix(1 0 0 1 4 -17)"/><g class="djs-drag-group" style="pointer-events: none;" transform="matrix(1 0 0 1 4 48)"/><g class="djs-drag-group" style="pointer-events: none;" transform="matrix(1 0 0 1 21 0)"/><g class="djs-drag-group" style="pointer-events: none;" transform="matrix(1 0 0 1 1 15)"/><g class="djs-drag-group" style="pointer-events: none;" transform="matrix(1 0 0 1 -1 -42)"/><g class="djs-drag-group" style="pointer-events: none;" transform="matrix(1 0 0 1 0 18)"/><g class="djs-drag-group" style="pointer-events: none;" transform="matrix(1 0 0 1 1 11)"/><g class="djs-drag-group" style="pointer-events: none;" transform="matrix(1 0 0 1 112 48)"/><g class="djs-drag-group" style="pointer-events: none;" transform="matrix(1 0 0 1 359 14)"/><g class="djs-drag-group" style="pointer-events: none;" transform="matrix(1 0 0 1 0 164)"/><g class="djs-drag-group" style="pointer-events: none;" transform="matrix(1 0 0 1 0 90)"/><g class="djs-drag-group" style="pointer-events: none;" transform="matrix(1 0 0 1 -49 0)"/><g class="djs-drag-group" style="pointer-events: none;" transform="matrix(1 0 0 1 -80 0)"/><g class="djs-drag-group" style="pointer-events: none;" transform="matrix(1 0 0 1 -80 0)"/><g class="djs-drag-group" style="pointer-events: none;" transform="matrix(1 0 0 1 -80 -4)"/><g class="djs-drag-group" style="pointer-events: none;" transform="matrix(1 0 0 1 0 0)"/><g class="djs-drag-group" style="pointer-events: none;" transform="matrix(1 0 0 1 107 -162)"/><g class="djs-drag-group" style="pointer-events: none;" transform="matrix(1 0 0 1 0 50)"/><g class="djs-drag-group" style="pointer-events: none;" transform="matrix(1 0 0 1 175 -189)"/><g class="djs-drag-group" style="pointer-events: none;" transform="matrix(1 0 0 1 69 -6)"/><g class="djs-drag-group" style="pointer-events: none;" transform="matrix(1 0 0 1 -165 -8)"/><g class="djs-drag-group" style="pointer-events: none;" transform="matrix(1 0 0 1 -80 -73)"/><g class="djs-drag-group" style="pointer-events: none;" transform="matrix(1 0 0 1 1 -35)"/><g class="djs-drag-group" style="pointer-events: none;" transform="matrix(1 0 0 1 12 38)"/><g class="djs-drag-group" style="pointer-events: none;" transform="matrix(1 0 0 1 -88 5)"/><g class="djs-drag-group" style="pointer-events: none;" transform="matrix(1 0 0 1 46 -184)"/><g class="djs-drag-group" style="pointer-events: none;" transform="matrix(1 0 0 1 102 41)"/><g class="djs-drag-group" style="pointer-events: none;" transform="matrix(1 0 0 1 -72 -34)"/><g class="djs-drag-group" style="pointer-events: none;" transform="matrix(1 0 0 1 -3 1)"/><g class="djs-drag-group" style="pointer-events: none;" transform="matrix(1 0 0 1 -58 -19)"/><g class="djs-drag-group" style="pointer-events: none;" transform="matrix(1 0 0 1 -91 -462)"/><g class="djs-drag-group" style="pointer-events: none;" transform="matrix(1 0 0 1 1 68)"/><g class="djs-drag-group" style="pointer-events: none;" transform="matrix(1 0 0 1 252 -278)"/><g class="djs-drag-group" style="pointer-events: none;" transform="matrix(1 0 0 1 0 92)"/><g class="djs-drag-group" style="pointer-events: none;" transform="matrix(1 0 0 1 0 58)"/><g class="djs-drag-group" style="pointer-events: none;" transform="matrix(1 0 0 1 8 58)"/><g class="djs-drag-group" style="pointer-events: none;" transform="matrix(1 0 0 1 15 0)"/><g class="djs-drag-group" style="pointer-events: none;" transform="matrix(1 0 0 1 -8 0)"/><g class="djs-drag-group" style="pointer-events: none;" transform="matrix(1 0 0 1 49 0)"/><g class="djs-drag-group" style="pointer-events: none;" transform="matrix(1 0 0 1 201 0)"/><g class="djs-drag-group" style="pointer-events: none;" transform="matrix(1 0 0 1 187 0)"/><g class="djs-drag-group" style="pointer-events: none;" transform="matrix(1 0 0 1 0 48)"/><g class="djs-drag-group" style="pointer-events: none;" transform="matrix(1 0 0 1 4 -23)"/><g class="djs-drag-group" style="pointer-events: none;" transform="matrix(1 0 0 1 180 0)"/><g class="djs-drag-group" style="pointer-events: none;" transform="matrix(1 0 0 1 2 -72)"/><g class="djs-drag-group" style="pointer-events: none;" transform="matrix(1 0 0 1 0 -222)"/><g class="djs-drag-group" style="pointer-events: none;" transform="matrix(1 0 0 1 -161 0)"/><g class="djs-drag-group" style="pointer-events: none;" transform="matrix(1 0 0 1 117 0)"/><g class="djs-drag-group" style="pointer-events: none;" transform="matrix(1 0 0 1 -117 0)"/><g class="djs-drag-group" style="pointer-events: none;" transform="matrix(1 0 0 1 -21 0)"/><g class="djs-drag-group" style="pointer-events: none;" transform="matrix(1 0 0 1 -1 -12)"/><g class="djs-drag-group" style="pointer-events: none;" transform="matrix(1 0 0 1 -1 87)"/><g class="djs-drag-group" style="pointer-events: none;" transform="matrix(1 0 0 1 -1 92)"/><g class="djs-drag-group" style="pointer-events: none;" transform="matrix(1 0 0 1 -481 497)"/><g class="djs-drag-group" style="pointer-events: none;" transform="matrix(1 0 0 1 0 -15)"/><g class="djs-drag-group" style="pointer-events: none;" transform="matrix(1 0 0 1 35 0)"/><g class="djs-drag-group" style="pointer-events: none;" transform="matrix(1 0 0 1 -167 0)"/><g class="djs-drag-group" style="pointer-events: none;" transform="matrix(1 0 0 1 -3 0)"/><g class="djs-drag-group" style="pointer-events: none;" transform="matrix(1 0 0 1 -183 -51)"/><g class="djs-drag-group" style="pointer-events: none;" transform="matrix(1 0 0 1 -11 -58)"/><g class="djs-drag-group" style="pointer-events: none;" transform="matrix(1 0 0 1 0 -58)"/><g class="djs-drag-group" style="pointer-events: none;" transform="matrix(1 0 0 1 -11 -100)"/><g class="djs-drag-group" style="pointer-events: none;" transform="matrix(1 0 0 1 -11 0)"/><g class="djs-drag-group" style="pointer-events: none;" transform="matrix(1 0 0 1 0 -100)"/><g class="djs-drag-group" style="pointer-events: none;" transform="matrix(1 0 0 1 -11 0)"/><g class="djs-drag-group" style="pointer-events: none;" transform="matrix(1 0 0 1 3 -16)"/><g class="djs-drag-group" style="pointer-events: none;" transform="matrix(1 0 0 1 -36 0)"/><g class="djs-drag-group" style="pointer-events: none;" transform="matrix(1 0 0 1 -36 0)"/><g class="djs-drag-group" style="pointer-events: none;" transform="matrix(1 0 0 1 -34 0)"/><g class="djs-drag-group" style="pointer-events: none;" transform="matrix(1 0 0 1 -33 -8)"/><g class="djs-drag-group" style="pointer-events: none;" transform="matrix(1 0 0 1 0 8)"/><g class="djs-drag-group" style="pointer-events: none;" transform="matrix(1 0 0 1 -15 -12)"/><g class="djs-drag-group" style="pointer-events: none;" transform="matrix(1 0 0 1 0 -142)"/><g class="djs-drag-group" style="pointer-events: none;" transform="matrix(1 0 0 1 9 -109)"/><g class="djs-drag-group" style="pointer-events: none;" transform="matrix(1 0 0 1 4 -90)"/><g class="djs-drag-group" style="pointer-events: none;" transform="matrix(1 0 0 1 0 13)"/><g class="djs-drag-group" style="pointer-events: none;" transform="matrix(1 0 0 1 -4 65)"/><g class="djs-drag-group" style="pointer-events: none;" transform="matrix(1 0 0 1 1 -7)"/></svg>