<?xml version="1.0" encoding="UTF-8" standalone="no"?>
<svg
   xmlns:dc="http://purl.org/dc/elements/1.1/"
   xmlns:cc="http://creativecommons.org/ns#"
   xmlns:rdf="http://www.w3.org/1999/02/22-rdf-syntax-ns#"
   xmlns:svg="http://www.w3.org/2000/svg"
   xmlns="http://www.w3.org/2000/svg"
   xmlns:sodipodi="http://sodipodi.sourceforge.net/DTD/sodipodi-0.dtd"
   xmlns:inkscape="http://www.inkscape.org/namespaces/inkscape"
   style="fill-rule:evenodd;stroke-linecap:round"
   version="1.1"
   id="svg6781"
   width="513.75"
   viewBox="0 0 3424.9999 2789.625"
   preserveAspectRatio="none"
   height="418.44376"
   inkscape:version="0.91 r13725"
   sodipodi:docname="UBL-2.2-Tender-QualificationApplication.svg"
   inkscape:export-filename="/Users/admin/z/data/kendata/dev/ubl/hub/art/UBL-2.2-Tender-QualificationApplication.png"
   inkscape:export-xdpi="600.138"
   inkscape:export-ydpi="600.138">
  <sodipodi:namedview
     pagecolor="#ffffff"
     bordercolor="#666666"
     borderopacity="1"
     objecttolerance="10"
     gridtolerance="10"
     guidetolerance="10"
     inkscape:pageopacity="0"
     inkscape:pageshadow="2"
     inkscape:window-width="1369"
     inkscape:window-height="1047"
     id="namedview6151"
     showgrid="false"
     inkscape:showpageshadow="false"
     showborder="false"
     inkscape:zoom="2.4753295"
     inkscape:cx="256.87436"
     inkscape:cy="283.21722"
     inkscape:window-x="277"
     inkscape:window-y="36"
     inkscape:window-maximized="0"
     inkscape:current-layer="svg6781" />
  <metadata
     id="metadata7279">
    <rdf:RDF>
      <cc:Work
         rdf:about="">
        <dc:format>image/svg+xml</dc:format>
        <dc:type
           rdf:resource="http://purl.org/dc/dcmitype/StillImage" />
        <dc:title />
      </cc:Work>
    </rdf:RDF>
  </metadata>
  <defs
     id="defs7277">
    <marker
       style="overflow:visible"
       id="Arrow1Lend"
       refX="0"
       refY="0"
       orient="auto">
      <path
         transform="matrix(-0.8,0,0,-0.8,-10,0)"
         style="fill-rule:evenodd;stroke:#000000;stroke-width:1pt;marker-start:none"
         d="M 0,0 5,-5 -12.5,0 5,5 0,0 z"
         id="path9186" />
    </marker>
    <pattern
       y="0"
       x="0"
       height="6"
       width="6"
       patternUnits="userSpaceOnUse"
       id="EMFhbasepattern" />
  </defs>
  <style
     id="style6783"
     type="text/css">
.brush0 { fill: rgb(255,255,255); }
.pen0 { stroke: rgb(0,0,0); stroke-width: 1; stroke-linejoin: round; }
.pen1 { stroke: none; }
.brush1 { fill: none; }
.pen2 { stroke: rgb(26,26,26); stroke-width: 7; stroke-linejoin: round; }
.font0 { font-weight: bold; font-size: 74px; font-family: Arial, sans-serif; }
.font1 { font-weight: bold; font-size: 16px; font-family: System, sans-serif; }
.pen3 { stroke: rgb(0,0,0); stroke-width: 3; stroke-linejoin: round; }
.brush2 { fill: rgb(0,0,0); }
.brush3 { fill: rgb(230,230,230); }
.font2 { font-weight: bold; font-size: 59px; font-family: Arial, sans-serif; }
.font3 { font-weight: bold; font-size: 59px; font-family: Arial, sans-serif; }
</style>
  <g
     id="g4255"
     transform="translate(-63.587241,0)">
    <path
       inkscape:connector-curvature="0"
       id="path6901"
       d="m 1973.7522,781.53426 285.751,0"
       style="fill:none;stroke:#000000;stroke-width:8.33333302;stroke-linecap:round;stroke-linejoin:bevel;stroke-miterlimit:4.62068987;stroke-dasharray:none;stroke-opacity:1" />
    <path
       inkscape:connector-curvature="0"
       id="path6903"
       d="m 2259.5032,781.53426 -81.6432,29.15416 m 81.6432,-29.15416 -81.6432,-29.16042"
       style="fill:none;stroke:#000000;stroke-width:8.33333302;stroke-linecap:round;stroke-linejoin:bevel;stroke-miterlimit:4.62068987;stroke-dasharray:none;stroke-opacity:1" />
  </g>
  <g
     id="g4251">
    <path
       inkscape:connector-curvature="0"
       id="path6893"
       d="m 2259.5032,1323.8197 -285.751,0"
       style="fill:none;stroke:#000000;stroke-width:8.333333;stroke-linecap:round;stroke-linejoin:bevel;stroke-miterlimit:4.62068987;stroke-dasharray:none;stroke-opacity:1" />
    <path
       inkscape:connector-curvature="0"
       id="path6895"
       d="m 1973.7522,1323.8197 81.6431,-29.1542 m -81.6431,29.1542 81.6431,29.1541"
       style="fill:none;stroke:#000000;stroke-width:8.333333;stroke-linecap:round;stroke-linejoin:bevel;stroke-miterlimit:4.62068987;stroke-dasharray:none;stroke-opacity:1" />
  </g>
  <g
     id="g3427">
    <path
       inkscape:connector-curvature="0"
       id="path6905"
       d="m 1128.1576,781.53426 320.7434,0"
       style="fill:none;stroke:#000000;stroke-width:8.333333;stroke-linecap:round;stroke-linejoin:bevel;stroke-miterlimit:4.62068987;stroke-dasharray:none;stroke-opacity:1" />
    <path
       inkscape:connector-curvature="0"
       id="path6907"
       d="m 1448.901,781.53426 -81.6431,29.15416 m 81.6431,-29.15416 -81.6431,-29.16042"
       style="fill:none;stroke:#000000;stroke-width:8.333333;stroke-linecap:round;stroke-linejoin:bevel;stroke-miterlimit:4.62068987;stroke-dasharray:none;stroke-opacity:1" />
  </g>
  <g
     id="g3423"
     transform="translate(140.42182,-2.6494684)">
    <path
       inkscape:connector-curvature="0"
       id="path6885"
       d="m 1448.901,1323.8197 -349.907,0"
       style="fill:none;stroke:#000000;stroke-width:8.33333302;stroke-linecap:round;stroke-linejoin:bevel;stroke-miterlimit:4.62068987;stroke-dasharray:none;stroke-opacity:1" />
    <path
       inkscape:connector-curvature="0"
       id="path6887"
       d="m 1098.994,1323.8197 81.6493,-29.1542 m -81.6493,29.1542 81.6493,29.1541"
       style="fill:none;stroke:#000000;stroke-width:8.33333302;stroke-linecap:round;stroke-linejoin:bevel;stroke-miterlimit:4.62068987;stroke-dasharray:none;stroke-opacity:1" />
  </g>
  <rect
     y="5.0969849"
     x="5.105763"
     height="1792.8264"
     width="3414.7798"
     id="rect7281"
     style="fill:none;stroke:#000000;stroke-width:8.333333;stroke-linecap:round;stroke-linejoin:miter;stroke-miterlimit:4.62068987;stroke-dasharray:none;stroke-dashoffset:0;stroke-opacity:1" />
  <path
     style="fill:none;stroke:#000000;stroke-width:8.333333;stroke-linecap:square;stroke-linejoin:miter;stroke-miterlimit:4.62068987;stroke-dasharray:none;stroke-opacity:1"
     d="m 1705.4945,6.0003735 0,1790.1333265"
     id="path6739"
     inkscape:connector-curvature="0" />
  <text
     xml:space="preserve"
     style="font-style:normal;font-variant:normal;font-weight:normal;font-size:83.33333002px;line-height:125%;font-family:Calibri;text-align:start;letter-spacing:0px;word-spacing:0px;text-anchor:start;fill:#000000;fill-opacity:1;stroke:none;stroke-width:8.33333302;stroke-miterlimit:4.62068987;stroke-dasharray:none;-inkscape-font-specification:'Calibri, Normal';font-stretch:normal;writing-mode:lr;"
     x="2233.6531"
     y="106.17948"
     id="text6741"
     sodipodi:linespacing="125%"
     transform="scale(1.0000544,0.99994561)"><tspan
       sodipodi:role="line"
       x="2233.6531"
       y="106.17948"
       id="tspan6743"><tspan
         dx="0"
         dy="0"
         style="font-style:normal;font-variant:normal;font-weight:normal;font-size:83.33333002px;font-family:Calibri;fill:#000000;stroke-width:8.33333302;stroke-miterlimit:4.62068987;stroke-dasharray:none;-inkscape-font-specification:'Calibri, Normal';font-stretch:normal;text-anchor:start;text-align:start;writing-mode:lr;line-height:125%;"
         id="tspan6745">ECONOMIC OPERATOR</tspan></tspan></text>
  <path
     style="fill:none;stroke:#000000;stroke-width:8.333333;stroke-linecap:square;stroke-linejoin:miter;stroke-miterlimit:4.62068987;stroke-dasharray:none;stroke-opacity:1"
     d="m 3414.1771,6.0003735 0,1790.1333265"
     id="path6747"
     inkscape:connector-curvature="0" />
  <text
     xml:space="preserve"
     style="font-style:normal;font-variant:normal;font-weight:normal;font-stretch:normal;font-size:83.33332825px;line-height:125%;font-family:Calibri;-inkscape-font-specification:'Calibri, Normal';text-align:start;letter-spacing:0px;word-spacing:0px;writing-mode:lr-tb;text-anchor:start;fill:#000000;fill-opacity:1;stroke:none;stroke-width:8.33333302;stroke-miterlimit:4.62068987;stroke-dasharray:none"
     x="348.67197"
     y="94.147278"
     id="text6749"
     sodipodi:linespacing="125%"
     transform="scale(1.0000544,0.99994561)"><tspan
       sodipodi:role="line"
       x="348.67197"
       y="94.147278"
       id="tspan6751"><tspan
         dx="0"
         dy="0"
         style="font-style:normal;font-variant:normal;font-weight:normal;font-stretch:normal;font-size:83.33332825px;line-height:125%;font-family:Calibri;-inkscape-font-specification:'Calibri, Normal';text-align:start;writing-mode:lr-tb;text-anchor:start;fill:#000000;stroke-width:8.33333302;stroke-miterlimit:4.62068987;stroke-dasharray:none"
         id="tspan6753">CONTRACTING AUTHORITY</tspan></tspan></text>
  <path
     style="fill:#ffffff;fill-opacity:1;fill-rule:evenodd;stroke:none;stroke-width:8.333333;stroke-miterlimit:4.62068987;stroke-dasharray:none"
     d="m 1029.015,390.85067 c 48.4753,0 87.4784,39.35937 87.4784,87.46631 l 0,0 0,0 0,0 c 0,48.46991 -39.0031,87.46258 -87.4784,87.46258 0,0 0,0 0,0 l 0,0 -833.93041,0 0,0 c -48.11152,0 -87.47583,-38.99267 -87.47583,-87.46258 l 0,0 0,0 c 0,-48.10694 39.36431,-87.46631 87.47583,-87.46631 l 0,0 833.93041,0 z"
     id="path6757"
     inkscape:connector-curvature="0" />
  <path
     style="fill:none;stroke:#000000;stroke-width:8.33333302;stroke-linecap:round;stroke-linejoin:round;stroke-miterlimit:4.62068987;stroke-dasharray:none;stroke-opacity:1"
     d="m 1116.1256,390.85066 c 53.0582,0 95.7487,39.35938 95.7487,87.46632 l 0,0 0,0 0,0 c 0,48.4699 -42.6905,87.46258 -95.7487,87.46258 0,0 0,0 0,0 l 0,0 -912.77097,0 0,0 c -52.66002,0 -95.74587,-38.99268 -95.74587,-87.46258 l 0,0 0,0 c 0,-48.10694 43.08585,-87.46632 95.74587,-87.46632 l 0,0 912.77097,0 z"
     id="path6759"
     inkscape:connector-curvature="0" />
  <text
     xml:space="preserve"
     style="font-style:normal;font-variant:normal;font-weight:normal;font-stretch:normal;font-size:58.33333206px;line-height:125%;font-family:ARIAL;-inkscape-font-specification:'ARIAL, Normal';text-align:start;letter-spacing:0px;word-spacing:0px;writing-mode:lr-tb;text-anchor:start;fill:#000000;fill-opacity:1;stroke:none;stroke-width:8.33333302;stroke-miterlimit:4.62068987;stroke-dasharray:none"
     x="137.1218"
     y="497.78638"
     id="text6761"
     sodipodi:linespacing="125%"
     transform="scale(1.0000544,0.99994561)"><tspan
       sodipodi:role="line"
       x="137.1218"
       y="497.78638"
       id="tspan6763"><tspan
         dx="0"
         dy="0"
         style="font-style:normal;font-variant:normal;font-weight:normal;font-stretch:normal;font-size:58.33333206px;line-height:125%;font-family:ARIAL;-inkscape-font-specification:'ARIAL, Normal';text-align:start;writing-mode:lr-tb;text-anchor:start;fill:#000000;stroke-width:8.33333302;stroke-miterlimit:4.62068987;stroke-dasharray:none"
         id="tspan6765">Prepare qualification application request</tspan></tspan></text>
  <path
     style="fill:#ffffff;fill-opacity:1;fill-rule:evenodd;stroke:none;stroke-width:8.333333;stroke-miterlimit:4.62068987;stroke-dasharray:none"
     d="m 1034.8502,694.06542 c 48.4753,0 87.4722,39.36003 87.4722,87.46884 l 0,0 0,5.82835 0,0 c 0,48.4699 -38.9969,87.46874 -87.4722,87.46874 0,0 0,0 0,0 l 0,0 -845.59777,0 0,0 c -48.11152,0 -87.47517,-38.99884 -87.47517,-87.46874 l 0,0 0,-5.82835 c 0,-48.10881 39.36365,-87.46884 87.47517,-87.46884 l 0,0 845.59777,0 z"
     id="path6767"
     inkscape:connector-curvature="0" />
  <path
     style="fill:#ffffff;fill-opacity:1;stroke:#000000;stroke-width:8.33333302;stroke-linecap:round;stroke-linejoin:round;stroke-miterlimit:4.62068987;stroke-dasharray:none;stroke-opacity:1"
     d="m 1102.677,695.1965 c 51.9989,0 93.8306,42.32883 93.8306,94.06633 l 0,0 0,6.26795 0,0 c 0,52.12584 -41.8317,94.06624 -93.8306,94.06624 0,0 0,0 0,0 l 0,0 -907.06585,0 0,0 c -51.60882,0 -93.83389,-41.9404 -93.83389,-94.06624 l 0,0 0,-6.26795 c 0,-51.7375 42.22507,-94.06633 93.83389,-94.06633 l 0,0 907.06585,0 z"
     id="path6769"
     inkscape:connector-curvature="0" />
  <text
     xml:space="preserve"
     style="font-style:normal;font-variant:normal;font-weight:normal;font-stretch:normal;font-size:58.33333206px;line-height:125%;font-family:ARIAL;-inkscape-font-specification:'ARIAL, Normal';text-align:start;letter-spacing:0px;word-spacing:0px;writing-mode:lr-tb;text-anchor:start;fill:#000000;fill-opacity:1;stroke:none;stroke-width:8.33333302;stroke-miterlimit:4.62068987;stroke-dasharray:none"
     x="154.61586"
     y="808.96698"
     id="text6771"
     sodipodi:linespacing="125%"
     transform="scale(1.0000544,0.99994561)"><tspan
       sodipodi:role="line"
       x="154.61586"
       y="808.96698"
       id="tspan6773"><tspan
         dx="0"
         dy="0"
         style="font-style:normal;font-variant:normal;font-weight:normal;font-stretch:normal;font-size:58.33333206px;line-height:125%;font-family:ARIAL;-inkscape-font-specification:'ARIAL, Normal';text-align:start;writing-mode:lr-tb;text-anchor:start;fill:#000000;stroke-width:8.33333302;stroke-miterlimit:4.62068987;stroke-dasharray:none"
         id="tspan6775">Submit qualification application request</tspan></tspan></text>
  <path
     style="fill:#ffffff;fill-opacity:1;fill-rule:evenodd;stroke:none;stroke-width:8.33333302;stroke-miterlimit:4.62068987;stroke-dasharray:none"
     d="m 1444.8905,614.62387 0,355.69112 524.8512,0 0,-355.69112 -524.8512,0 z"
     id="path6777"
     inkscape:connector-curvature="0" />
  <path
     style="fill:none;stroke:#000000;stroke-width:8.333333;stroke-linecap:round;stroke-linejoin:round;stroke-miterlimit:4.62068987;stroke-dasharray:none;stroke-opacity:1"
     d="m 1448.901,962.29396 524.8512,0 0,-355.69112 -524.8512,0 z"
     id="path6779"
     inkscape:connector-curvature="0" />
  <text
     xml:space="preserve"
     style="font-style:italic;font-variant:normal;font-weight:bold;font-stretch:normal;font-size:75px;line-height:125%;font-family:ARIAL;-inkscape-font-specification:'ARIAL, Bold Italic';text-align:start;letter-spacing:0px;word-spacing:0px;writing-mode:lr-tb;text-anchor:start;fill:#000000;fill-opacity:1;stroke:none;stroke-width:8.33333302;stroke-miterlimit:4.62068987;stroke-dasharray:none"
     x="1483.4336"
     y="699.3252"
     id="text6781"
     sodipodi:linespacing="125%"
     transform="scale(1.0000544,0.99994561)"><tspan
       sodipodi:role="line"
       x="1483.4336"
       y="699.3252"
       id="tspan6783">Qualification</tspan></text>
  <text
     xml:space="preserve"
     style="font-style:italic;font-variant:normal;font-weight:bold;font-stretch:normal;font-size:75px;line-height:125%;font-family:ARIAL;-inkscape-font-specification:'ARIAL, Bold Italic';text-align:start;letter-spacing:0px;word-spacing:0px;writing-mode:lr-tb;text-anchor:start;fill:#000000;fill-opacity:1;stroke:none;stroke-width:8.33333302;stroke-miterlimit:4.62068987;stroke-dasharray:none"
     x="1479.9546"
     y="811.13751"
     id="text6787"
     sodipodi:linespacing="125%"
     transform="scale(1.0000544,0.99994561)"><tspan
       sodipodi:role="line"
       x="1479.9546"
       y="811.13751"
       id="tspan6789">Application</tspan></text>
  <text
     xml:space="preserve"
     style="font-style:italic;font-variant:normal;font-weight:bold;font-stretch:normal;font-size:75px;line-height:125%;font-family:ARIAL;-inkscape-font-specification:'ARIAL, Bold Italic';text-align:start;letter-spacing:0px;word-spacing:0px;writing-mode:lr-tb;text-anchor:start;fill:#000000;fill-opacity:1;stroke:none;stroke-width:8.33333302;stroke-miterlimit:4.62068987;stroke-dasharray:none"
     x="1483.9097"
     y="915.11261"
     id="text6793"
     sodipodi:linespacing="125%"
     transform="scale(1.0000544,0.99994561)"><tspan
       sodipodi:role="line"
       x="1483.9097"
       y="915.11261"
       id="tspan6795">Request</tspan></text>
  <path
     style="fill:#ffffff;fill-opacity:1;fill-rule:evenodd;stroke:none;stroke-width:8.33333302;stroke-miterlimit:4.62068987;stroke-dasharray:none"
     d="m 3160.2657,691.41595 c 48.475,0 87.472,39.36003 87.472,87.46884 l 0,0 0,11.6567 0,0 c 0,48.47616 -38.997,87.46874 -87.472,87.46874 0,0 0,0 0,0 l 0,0 -868.9232,0 0,0 c -48.114,0 -87.4782,-38.99258 -87.4782,-87.46874 l 0,0 0,-11.6567 c 0,-48.10881 39.3642,-87.46884 87.4782,-87.46884 l 0,0 868.9232,0 z"
     id="path6799"
     inkscape:connector-curvature="0" />
  <path
     style="fill:none;stroke:#000000;stroke-width:8.33333302;stroke-linecap:round;stroke-linejoin:round;stroke-miterlimit:4.62068987;stroke-dasharray:none;stroke-opacity:1"
     d="m 3223.3794,691.41595 c 51.6739,0 93.2444,39.36003 93.2444,87.46884 l 0,0 0,11.65669 0,0 c 0,48.47617 -41.5705,87.46875 -93.2444,87.46875 0,0 0,0 0,0 l 0,0 -926.2642,0 0,0 c -51.2891,0 -93.251,-38.99258 -93.251,-87.46875 l 0,0 0,-11.65669 c 0,-48.10881 41.9619,-87.46884 93.251,-87.46884 l 0,0 926.2642,0 z"
     id="path6801"
     inkscape:connector-curvature="0" />
  <text
     xml:space="preserve"
     style="font-style:normal;font-variant:normal;font-weight:normal;font-stretch:normal;font-size:58.33333206px;line-height:125%;font-family:ARIAL;-inkscape-font-specification:'ARIAL, Normal';text-align:start;letter-spacing:0px;word-spacing:0px;writing-mode:lr-tb;text-anchor:start;fill:#000000;fill-opacity:1;stroke:none;stroke-width:8.33333302;stroke-miterlimit:4.62068987;stroke-dasharray:none"
     x="2226.4543"
     y="798.29584"
     id="text6803"
     sodipodi:linespacing="125%"
     transform="scale(1.0000544,0.99994561)"><tspan
       sodipodi:role="line"
       x="2226.4543"
       y="798.29584"
       id="tspan6805"><tspan
         dx="0"
         dy="0"
         style="font-style:normal;font-variant:normal;font-weight:normal;font-stretch:normal;font-size:58.33333206px;line-height:125%;font-family:ARIAL;-inkscape-font-specification:'ARIAL, Normal';text-align:start;writing-mode:lr-tb;text-anchor:start;fill:#000000;stroke-width:8.33333302;stroke-miterlimit:4.62068987;stroke-dasharray:none"
         id="tspan6807">Receive qualification application request</tspan></tspan></text>
  <path
     style="fill:#ffffff;fill-opacity:1;fill-rule:evenodd;stroke:none;stroke-width:8.33333302;stroke-miterlimit:4.62068987;stroke-dasharray:none"
     d="m 3158.7594,1218.8596 c 48.475,0 87.472,39.36 87.472,87.4688 l 0,0 0,46.6454 0,0 c 0,48.47 -38.997,87.4689 -87.472,87.4689 0,0 0,0 0,0 l 0,0 -868.9232,0 0,0 c -48.114,0 -87.4782,-38.9989 -87.4782,-87.4689 l 0,0 0,-46.6454 c 0,-48.1088 39.3642,-87.4688 87.4782,-87.4688 l 0,0 868.9232,0 z"
     id="path6809"
     inkscape:connector-curvature="0" />
  <path
     style="fill:#ffffff;fill-opacity:1;stroke:#000000;stroke-width:8.33333302;stroke-linecap:round;stroke-linejoin:round;stroke-miterlimit:4.62068987;stroke-dasharray:none;stroke-opacity:1"
     d="m 3220.952,1216.2101 c 51.5509,0 93.0223,39.36 93.0223,87.4687 l 0,0 0,46.6455 0,0 c 0,48.47 -41.4714,87.4689 -93.0223,87.4689 0,0 0,0 0,0 l 0,0 -924.0588,0 0,0 c -51.167,0 -93.0289,-38.9989 -93.0289,-87.4689 l 0,0 0,-46.6455 c 0,-48.1087 41.8619,-87.4687 93.0289,-87.4687 l 0,0 924.0588,0 z"
     id="path6811"
     inkscape:connector-curvature="0" />
  <text
     xml:space="preserve"
     style="font-style:normal;font-variant:normal;font-weight:normal;font-stretch:normal;font-size:58.33333206px;line-height:125%;font-family:ARIAL;-inkscape-font-specification:'ARIAL, Normal';text-align:start;letter-spacing:0px;word-spacing:0px;writing-mode:lr-tb;text-anchor:start;fill:#000000;fill-opacity:1;stroke:none;stroke-width:8.33333302;stroke-miterlimit:4.62068987;stroke-dasharray:none"
     x="2231.6755"
     y="1344.3167"
     id="text6813"
     sodipodi:linespacing="125%"
     transform="scale(1.0000544,0.99994561)"><tspan
       sodipodi:role="line"
       x="2231.6755"
       y="1344.3167"
       id="tspan6815"><tspan
         dx="0"
         dy="0"
         style="font-style:normal;font-variant:normal;font-weight:normal;font-stretch:normal;font-size:58.33333206px;line-height:125%;font-family:ARIAL;-inkscape-font-specification:'ARIAL, Normal';text-align:start;writing-mode:lr-tb;text-anchor:start;fill:#000000;stroke-width:8.33333302;stroke-miterlimit:4.62068987;stroke-dasharray:none"
         id="tspan6817">Submit qualification application response</tspan></tspan></text>
  <path
     style="fill:none;stroke:#000000;stroke-width:8.33333206;stroke-linecap:round;stroke-linejoin:round;stroke-miterlimit:4.62068987;stroke-dasharray:none;stroke-opacity:1"
     d="m 1133.5905,1234.227 c 56.8842,0 102.6458,29.9708 102.6458,66.5985 l 0,0 0,44.4038 0,0 c 0,36.9075 -45.7616,66.5986 -102.6458,66.5986 0,0 0,0 0,0 l 0,0 -923.85046,0 0,0 c -56.45735,0 -102.64936,-29.6911 -102.64936,-66.5986 l 0,0 0,-44.4038 c 0,-36.6277 46.19201,-66.5985 102.64936,-66.5985 l 0,0 923.85046,0 z"
     id="path6827"
     inkscape:connector-curvature="0" />
  <text
     xml:space="preserve"
     style="font-style:normal;font-variant:normal;font-weight:normal;font-stretch:normal;font-size:58.33333206px;line-height:125%;font-family:ARIAL;-inkscape-font-specification:'ARIAL, Normal';text-align:start;letter-spacing:0px;word-spacing:0px;writing-mode:lr-tb;text-anchor:start;fill:#000000;fill-opacity:1;stroke:none;stroke-width:8.33333302;stroke-miterlimit:4.62068987;stroke-dasharray:none"
     x="122.95493"
     y="1337.1968"
     id="text6829"
     sodipodi:linespacing="125%"
     transform="scale(1.0000544,0.99994561)"><tspan
       sodipodi:role="line"
       x="122.95493"
       y="1337.1968"
       id="tspan6831"><tspan
         dx="0"
         dy="0"
         style="font-style:normal;font-variant:normal;font-weight:normal;font-stretch:normal;font-size:58.33333206px;line-height:125%;font-family:ARIAL;-inkscape-font-specification:'ARIAL, Normal';text-align:start;writing-mode:lr-tb;text-anchor:start;fill:#000000;stroke-width:8.33333302;stroke-miterlimit:4.62068987;stroke-dasharray:none"
         id="tspan6833">Receive qualification application response</tspan></tspan></text>
  <path
     style="fill:#ffffff;fill-opacity:1;fill-rule:evenodd;stroke:none;stroke-width:8.333333;stroke-miterlimit:4.62068987;stroke-dasharray:none"
     d="m 1448.901,1113.8995 0,419.8403 524.8512,0 0,-419.8403 -524.8512,0 z"
     id="path6841"
     inkscape:connector-curvature="0" />
  <path
     style="fill:none;stroke:#000000;stroke-width:8.333333;stroke-linecap:round;stroke-linejoin:round;stroke-miterlimit:4.62068987;stroke-dasharray:none;stroke-opacity:1"
     d="m 1448.901,1533.7398 524.8512,0 0,-419.8403 -524.8512,0 z"
     id="path6843"
     inkscape:connector-curvature="0" />
  <path
     style="fill:#000000;fill-opacity:1;fill-rule:evenodd;stroke:none;stroke-width:8.333333;stroke-miterlimit:4.62068987;stroke-dasharray:none"
     d="m 673.2853,221.75012 c 0,-32.07086 -25.88171,-58.31094 -58.32102,-58.31094 -32.07183,0 -58.31467,26.24008 -58.31467,58.31094 0,32.43513 26.24284,58.31028 58.31467,58.31028 32.43931,0 58.32102,-25.87515 58.32102,-58.31028 z"
     id="path6869"
     inkscape:connector-curvature="0" />
  <path
     style="fill:none;stroke:#000000;stroke-width:8.333333;stroke-linecap:round;stroke-linejoin:round;stroke-miterlimit:4.62068987;stroke-dasharray:none;stroke-opacity:1"
     d="m 673.2853,221.75012 c 0,-32.07086 -25.88171,-58.31094 -58.32102,-58.31094 -32.07182,0 -58.31467,26.24008 -58.31467,58.31094 0,32.43513 26.24285,58.31028 58.31467,58.31028 32.43931,0 58.32102,-25.87515 58.32102,-58.31028"
     id="path6871"
     inkscape:connector-curvature="0" />
  <path
     style="fill:#ffffff;fill-opacity:1;fill-rule:evenodd;stroke:none;stroke-width:8.333333;stroke-miterlimit:4.62068987;stroke-dasharray:none"
     d="m 673.2853,1650.3566 c 0,-32.0684 -25.88171,-58.3084 -58.32102,-58.3084 -32.07183,0 -58.31467,26.24 -58.31467,58.3084 0,32.4358 26.24284,58.3146 58.31467,58.3146 32.43931,0 58.32102,-25.8788 58.32102,-58.3146 z"
     id="path6873"
     inkscape:connector-curvature="0" />
  <path
     style="fill:none;stroke:#000000;stroke-width:8.333333;stroke-linecap:round;stroke-linejoin:round;stroke-miterlimit:4.62068987;stroke-dasharray:none;stroke-opacity:1"
     d="m 673.2853,1650.3566 c 0,-32.0684 -25.88171,-58.3084 -58.32102,-58.3084 -32.07182,0 -58.31467,26.24 -58.31467,58.3084 0,32.4358 26.24285,58.3146 58.31467,58.3146 32.43931,0 58.32102,-25.8788 58.32102,-58.3146"
     id="path6875"
     inkscape:connector-curvature="0" />
  <path
     style="fill:#000000;fill-opacity:1;fill-rule:evenodd;stroke:none;stroke-width:8.333333;stroke-miterlimit:4.62068987;stroke-dasharray:none"
     d="m 638.29272,1650.3566 c 0,-12.7526 -10.20697,-23.3197 -23.32844,-23.3197 -12.75398,0 -23.32209,10.5671 -23.32209,23.3197 0,13.1199 10.56811,23.3258 23.32209,23.3258 13.12147,0 23.32844,-10.2059 23.32844,-23.3258 z"
     id="path6877"
     inkscape:connector-curvature="0" />
  <path
     style="fill:none;stroke:#000000;stroke-width:8.333333;stroke-linecap:round;stroke-linejoin:round;stroke-miterlimit:4.62068987;stroke-dasharray:none;stroke-opacity:1"
     d="m 638.29272,1650.3566 c 0,-12.7526 -10.20697,-23.3197 -23.32844,-23.3197 -12.75398,0 -23.32209,10.5671 -23.32209,23.3197 0,13.1199 10.56811,23.3258 23.32209,23.3258 13.12147,0 23.32844,-10.2059 23.32844,-23.3258"
     id="path6879"
     inkscape:connector-curvature="0" />
  <path
     style="fill:none;stroke:#000000;stroke-width:8.333333;stroke-linecap:round;stroke-linejoin:bevel;stroke-miterlimit:4.62068987;stroke-dasharray:none;stroke-opacity:1"
     d="m 614.96428,280.0604 0,110.79026"
     id="path6881"
     inkscape:connector-curvature="0" />
  <path
     style="fill:none;stroke:#000000;stroke-width:8.333333;stroke-linecap:round;stroke-linejoin:bevel;stroke-miterlimit:4.62068987;stroke-dasharray:none;stroke-opacity:1"
     d="m 614.96428,390.85066 -29.15733,-81.63488 m 29.15733,81.63488 29.16359,-81.63488"
     id="path6883"
     inkscape:connector-curvature="0" />
  <path
     style="fill:none;stroke:#000000;stroke-width:8.33333302;stroke-linecap:round;stroke-linejoin:bevel;stroke-miterlimit:4.62068987;stroke-dasharray:none;stroke-opacity:1"
     d="m 614.96432,1418.5958 0,172.5193"
     id="path6889"
     inkscape:connector-curvature="0" />
  <path
     style="fill:none;stroke:#000000;stroke-width:8.333333;stroke-linecap:round;stroke-linejoin:bevel;stroke-miterlimit:4.62068987;stroke-dasharray:none;stroke-opacity:1"
     d="m 614.96428,1592.0482 -29.15733,-81.6343 m 29.15733,81.6343 29.16359,-81.6343"
     id="path6891"
     inkscape:connector-curvature="0" />
  <path
     style="fill:none;stroke:#000000;stroke-width:8.33333302;stroke-linecap:round;stroke-linejoin:bevel;stroke-miterlimit:4.62068987;stroke-dasharray:none;stroke-opacity:1"
     d="m 2765.808,883.83857 0,332.37153"
     id="path6897"
     inkscape:connector-curvature="0" />
  <path
     style="fill:none;stroke:#000000;stroke-width:8.33333302;stroke-linecap:round;stroke-linejoin:bevel;stroke-miterlimit:4.62068987;stroke-dasharray:none;stroke-opacity:1"
     d="m 2765.808,1216.2101 -29.1573,-81.6342 m 29.1573,81.6342 29.1636,-81.6342"
     id="path6899"
     inkscape:connector-curvature="0" />
  <path
     style="fill:none;stroke:#000000;stroke-width:8.333333;stroke-linecap:round;stroke-linejoin:bevel;stroke-miterlimit:4.62068987;stroke-dasharray:none;stroke-opacity:1"
     d="m 614.96428,571.61407 0,122.45135"
     id="path6909"
     inkscape:connector-curvature="0" />
  <path
     style="fill:none;stroke:#000000;stroke-width:8.333333;stroke-linecap:round;stroke-linejoin:bevel;stroke-miterlimit:4.62068987;stroke-dasharray:none;stroke-opacity:1"
     d="m 614.96428,694.06542 -29.15733,-81.63423 m 29.15733,81.63423 29.16359,-81.63423"
     id="path6911"
     inkscape:connector-curvature="0" />
  <text
     transform="scale(1.0000544,0.99994561)"
     sodipodi:linespacing="125%"
     id="text4263"
     y="1231.8973"
     x="1483.4336"
     style="font-style:italic;font-variant:normal;font-weight:bold;font-stretch:normal;font-size:75px;line-height:125%;font-family:ARIAL;-inkscape-font-specification:'ARIAL, Bold Italic';text-align:start;letter-spacing:0px;word-spacing:0px;writing-mode:lr-tb;text-anchor:start;fill:#000000;fill-opacity:1;stroke:none;stroke-width:8.33333302;stroke-miterlimit:4.62068987;stroke-dasharray:none"
     xml:space="preserve"><tspan
       id="tspan4265"
       y="1231.8973"
       x="1483.4336"
       sodipodi:role="line">Qualification</tspan></text>
  <text
     transform="scale(1.0000544,0.99994561)"
     sodipodi:linespacing="125%"
     id="text4267"
     y="1343.7096"
     x="1479.9546"
     style="font-style:italic;font-variant:normal;font-weight:bold;font-stretch:normal;font-size:75px;line-height:125%;font-family:ARIAL;-inkscape-font-specification:'ARIAL, Bold Italic';text-align:start;letter-spacing:0px;word-spacing:0px;writing-mode:lr-tb;text-anchor:start;fill:#000000;fill-opacity:1;stroke:none;stroke-width:8.33333302;stroke-miterlimit:4.62068987;stroke-dasharray:none"
     xml:space="preserve"><tspan
       id="tspan4269"
       y="1343.7096"
       x="1479.9546"
       sodipodi:role="line">Application</tspan></text>
  <text
     transform="scale(1.0000544,0.99994561)"
     sodipodi:linespacing="125%"
     id="text4271"
     y="1447.6847"
     x="1483.9097"
     style="font-style:italic;font-variant:normal;font-weight:bold;font-stretch:normal;font-size:75px;line-height:125%;font-family:ARIAL;-inkscape-font-specification:'ARIAL, Bold Italic';text-align:start;letter-spacing:0px;word-spacing:0px;writing-mode:lr-tb;text-anchor:start;fill:#000000;fill-opacity:1;stroke:none;stroke-width:8.33333302;stroke-miterlimit:4.62068987;stroke-dasharray:none"
     xml:space="preserve"><tspan
       id="tspan4273"
       y="1447.6847"
       x="1483.9097"
       sodipodi:role="line">Response</tspan></text>
</svg>
