<?xml version="1.0" encoding="UTF-8"?>
<svg xmlns="http://www.w3.org/2000/svg" xmlns:xlink="http://www.w3.org/1999/xlink" version="1.1" width="144.992mm" height="84.157mm" viewBox="0 0 746 433"><!-- Generated from UBL-2.2-VMI-SalesAndInventoryMovement.drawio by tools/export_drawio.js (draw.io 32.2.0). Edit UBL-2.2-VMI-SalesAndInventoryMovement.drawio, not this file. --><title>UBL-2.2-VMI-SalesAndInventoryMovement</title><defs/><rect fill="#ffffff" width="746" height="433" x="0" y="0"/><g><g data-cell-id="0"><g data-cell-id="1"><g data-cell-id="frame"><g><path d="M 1 1 L 1 1 L 745 1 L 745 1" fill="none" stroke="#000000" stroke-width="2" stroke-miterlimit="10"/><path d="M 1 1 L 1 432 L 745 432 L 745 1" fill="none" stroke="#000000" stroke-width="2" stroke-miterlimit="10"/></g><g data-cell-id="lane-retailer"><g transform="translate(0.5,0.5)"><path d="M 1 32 L 1 1 L 351 1 L 351 32" fill="none" stroke="#000000" stroke-miterlimit="10"/><path d="M 1 32 L 1 432 L 351 432 L 351 32" fill="none" stroke="#000000" stroke-miterlimit="10"/></g><g><g><g><text x="167.51" y="21.31" font-family="Helvetica, Arial, 'Liberation Sans', sans-serif" text-anchor="middle" font-size="12" fill="#000000">Retailer</text></g></g></g><g data-cell-id="initial-retailer"><g><ellipse cx="137" cy="48.5" rx="9" ry="9.5" fill="#000000" stroke="none"/></g></g><g data-cell-id="action-send-a-report-about-sales"><g transform="translate(0.5,0.5)"><rect x="49" y="124" width="175" height="24" rx="12" ry="12" fill="#ffffff" stroke="#000000" style="fill: var(--ge-adaptive-bg, #ffffff)"/></g><g><g><g><text x="137.5" y="139.31" font-family="Helvetica, Arial, 'Liberation Sans', sans-serif" text-anchor="middle" font-size="12" fill="#000000" font-weight="bold">Send a report about sales</text></g></g></g></g><g data-cell-id="action-send-a-report-about-movement-of-goods"><g transform="translate(0.5,0.5)"><rect x="17" y="198" width="240" height="30" rx="13.5" ry="13.5" fill="#ffffff" stroke="#000000" style="fill: var(--ge-adaptive-bg, #ffffff)"/></g><g><g><g><text x="137.5" y="216.31" font-family="Helvetica, Arial, 'Liberation Sans', sans-serif" text-anchor="middle" font-size="12" fill="#000000" font-weight="bold">Send a report about movement of goods</text></g></g></g></g><g data-cell-id="flow-initial-retailer-to-send-a-report-about-sales"><g transform="translate(0.5,0.5)"><path d="M 136.5 57.89 L 136.5 121.76" fill="none" stroke="#000000" stroke-miterlimit="10"/><path d="M 131 111.88 L 136.5 122.88 L 142 111.88" fill="none" stroke="#000000" stroke-miterlimit="10"/></g></g><g data-cell-id="flow-send-a-report-about-sales-to-send-a-report-about-movement-of-goods"><g transform="translate(0.5,0.5)"><path d="M 136.31 148 L 136.31 195.76" fill="none" stroke="#000000" stroke-miterlimit="10"/><path d="M 130.81 185.88 L 136.31 196.88 L 141.81 185.88" fill="none" stroke="#000000" stroke-miterlimit="10"/></g></g></g><g data-cell-id="lane-producer"><g transform="translate(0.5,0.5)"><path d="M 351 35 L 351 1 L 745 1 L 745 35" fill="none" stroke="#000000" stroke-miterlimit="10"/><path d="M 351 35 L 351 432 L 745 432 L 745 35" fill="none" stroke="#000000" stroke-miterlimit="10"/></g><g><g><g><text x="548.51" y="22.31" font-family="Helvetica, Arial, 'Liberation Sans', sans-serif" text-anchor="middle" font-size="12" fill="#000000">Producer</text></g></g></g><g data-cell-id="object-product-activity-between-retailer-and-producer"><g><rect x="298" y="120" width="105" height="32" fill="#ffffff" stroke="#000000" stroke-width="2" style="fill: var(--ge-adaptive-bg, #ffffff)"/></g><g><g><g><text x="353.51" y="139.31" font-family="Helvetica, Arial, 'Liberation Sans', sans-serif" text-anchor="middle" font-size="12" fill="#000000" font-weight="bold" font-style="italic">Product Activity</text></g></g></g></g><g data-cell-id="action-receive-a-report-about-sales"><g transform="translate(0.5,0.5)"><rect x="478" y="120" width="172" height="35" rx="14" ry="14" fill="#ffffff" stroke="#000000" style="fill: var(--ge-adaptive-bg, #ffffff)"/></g><g><g><g><text x="564.5" y="140.31" font-family="Helvetica, Arial, 'Liberation Sans', sans-serif" text-anchor="middle" font-size="12" fill="#000000" font-weight="bold">Receive a report about sales</text></g></g></g></g><g data-cell-id="object-product-activity-between-retailer-and-producer-2"><g><rect x="297" y="197" width="108" height="31" fill="#ffffff" stroke="#000000" stroke-width="2" style="fill: var(--ge-adaptive-bg, #ffffff)"/></g><g><g><g><text x="352.51" y="216.31" font-family="Helvetica, Arial, 'Liberation Sans', sans-serif" text-anchor="middle" font-size="12" fill="#000000" font-weight="bold" font-style="italic">Product Activity</text></g></g></g></g><g data-cell-id="action-receive-a-report-about-movement-of-goods"><g transform="translate(0.5,0.5)"><rect x="448" y="196" width="255" height="36" rx="15.5" ry="15.5" fill="#ffffff" stroke="#000000" style="fill: var(--ge-adaptive-bg, #ffffff)"/></g><g><g><g><text x="575.5" y="216.31" font-family="Helvetica, Arial, 'Liberation Sans', sans-serif" text-anchor="middle" font-size="12" fill="#000000" font-weight="bold">Receive a report about movement of goods</text></g></g></g></g><g data-cell-id="fork-producer"><g><rect x="644" y="343" width="84" height="5" fill="#000000" stroke="none"/></g></g><g data-cell-id="final-producer"><g transform="translate(0.5,0.5)"><ellipse cx="686.5" cy="409.5" rx="5.1" ry="5.1" fill="#000000" stroke="#000000"/><ellipse cx="686.5" cy="409.5" rx="8.5" ry="8.5" fill="none" stroke="#000000"/></g></g><g data-cell-id="flow-product-activity-between-retailer-and-producer-to-receive-a-report-about-sales"><g transform="translate(0.5,0.5)"><path d="M 403 136 L 475.76 136" fill="none" stroke="#000000" stroke-miterlimit="10"/><path d="M 465.88 141.5 L 476.88 136 L 465.88 130.5" fill="none" stroke="#000000" stroke-miterlimit="10"/></g></g><g data-cell-id="flow-receive-a-report-about-sales-to-fork-producer"><g transform="translate(0.5,0.5)"><path d="M 650 134 L 710 134 L 710 340.76" fill="none" stroke="#000000" stroke-miterlimit="10"/><path d="M 704.5 330.88 L 710 341.88 L 715.5 330.88" fill="none" stroke="#000000" stroke-miterlimit="10"/></g></g><g data-cell-id="flow-product-activity-between-retailer-and-producer-2-to-receive-a-report-about-movement-of-goods"><g transform="translate(0.5,0.5)"><path d="M 405 212.5 L 445.76 212.5" fill="none" stroke="#000000" stroke-miterlimit="10"/><path d="M 435.88 218 L 446.88 212.5 L 435.88 207" fill="none" stroke="#000000" stroke-miterlimit="10"/></g></g><g data-cell-id="flow-receive-a-report-about-movement-of-goods-to-fork-producer"><g transform="translate(0.5,0.5)"><path d="M 668.95 232 L 668.95 340.76" fill="none" stroke="#000000" stroke-miterlimit="10"/><path d="M 663.45 330.88 L 668.95 341.88 L 674.45 330.88" fill="none" stroke="#000000" stroke-miterlimit="10"/></g></g><g data-cell-id="flow-fork-producer-to-final-producer"><g transform="translate(0.5,0.5)"><path d="M 686.01 348 L 686.01 398.76" fill="none" stroke="#000000" stroke-miterlimit="10"/><path d="M 680.51 388.88 L 686.01 399.88 L 691.51 388.88" fill="none" stroke="#000000" stroke-miterlimit="10"/></g></g></g><g data-cell-id="flow-send-a-report-about-sales-to-product-activity-between-retailer-and-producer"><g transform="translate(0.5,0.5)"><path d="M 224 136 L 295.76 136" fill="none" stroke="#000000" stroke-miterlimit="10"/><path d="M 285.88 141.5 L 296.88 136 L 285.88 130.5" fill="none" stroke="#000000" stroke-miterlimit="10"/></g></g><g data-cell-id="flow-send-a-report-about-movement-of-goods-to-product-activity-between-retailer-and-producer-2"><g transform="translate(0.5,0.5)"><path d="M 257 213 L 294.76 213" fill="none" stroke="#000000" stroke-miterlimit="10"/><path d="M 284.88 218.5 L 295.88 213 L 284.88 207.5" fill="none" stroke="#000000" stroke-miterlimit="10"/></g></g></g></g></g></g></svg>
