<?xml version="1.0" encoding="UTF-8" standalone="no"?>
<svg
   xmlns:dc="http://purl.org/dc/elements/1.1/"
   xmlns:cc="http://creativecommons.org/ns#"
   xmlns:rdf="http://www.w3.org/1999/02/22-rdf-syntax-ns#"
   xmlns:svg="http://www.w3.org/2000/svg"
   xmlns="http://www.w3.org/2000/svg"
   xmlns:sodipodi="http://sodipodi.sourceforge.net/DTD/sodipodi-0.dtd"
   xmlns:inkscape="http://www.inkscape.org/namespaces/inkscape"
   style="fill-rule:evenodd;stroke-linecap:round"
   version="1.1"
   id="svg6781"
   width="515.46698"
   viewBox="0 0 3436.4464 2530.5359"
   preserveAspectRatio="none"
   height="379.58038"
   inkscape:version="0.92.5 (2060ec1f9f, 2020-04-08)"
   sodipodi:docname="UBL-2.3-Tender-Contract-Pre.svg"
   inkscape:export-filename="/Users/admin/u/git/oasis/ubl-2.3-hub/art/UBL-2.3-Tender-Contract-Pre.png"
   inkscape:export-xdpi="600.33069"
   inkscape:export-ydpi="600.33069">
  <sodipodi:namedview
     pagecolor="#ffffff"
     bordercolor="#666666"
     borderopacity="1"
     objecttolerance="10"
     gridtolerance="10"
     guidetolerance="10"
     inkscape:pageopacity="0"
     inkscape:pageshadow="2"
     inkscape:window-width="1369"
     inkscape:window-height="1047"
     id="namedview6151"
     showgrid="false"
     inkscape:showpageshadow="false"
     showborder="false"
     inkscape:zoom="2.0631369"
     inkscape:cx="257.73349"
     inkscape:cy="189.79019"
     inkscape:window-x="276"
     inkscape:window-y="30"
     inkscape:window-maximized="0"
     inkscape:current-layer="svg6781"
     fit-margin-top="1"
     fit-margin-left="1"
     fit-margin-right="1"
     fit-margin-bottom="1"
     inkscape:snap-nodes="true" />
  <metadata
     id="metadata7279">
    <rdf:RDF>
      <cc:Work
         rdf:about="">
        <dc:format>image/svg+xml</dc:format>
        <dc:type
           rdf:resource="http://purl.org/dc/dcmitype/StillImage" />
        <dc:title />
      </cc:Work>
    </rdf:RDF>
  </metadata>
  <defs
     id="defs7277">
    <marker
       style="overflow:visible"
       id="Arrow1Lend"
       refX="0"
       refY="0"
       orient="auto">
      <path
         transform="matrix(-0.8,0,0,-0.8,-10,0)"
         style="fill-rule:evenodd;stroke:#000000;stroke-width:1.00000003pt;marker-start:none"
         d="M 0,0 5,-5 -12.5,0 5,5 Z"
         id="path9186"
         inkscape:connector-curvature="0" />
    </marker>
    <pattern
       y="0"
       x="0"
       height="6"
       width="6"
       patternUnits="userSpaceOnUse"
       id="EMFhbasepattern" />
  </defs>
  <style
     id="style6783"
     type="text/css">
.brush0 { fill: rgb(255,255,255); }
.pen0 { stroke: rgb(0,0,0); stroke-width: 1; stroke-linejoin: round; }
.pen1 { stroke: none; }
.brush1 { fill: none; }
.pen2 { stroke: rgb(26,26,26); stroke-width: 7; stroke-linejoin: round; }
.font0 { font-weight: bold; font-size: 74px; font-family: Arial, sans-serif; }
.font1 { font-weight: bold; font-size: 16px; font-family: System, sans-serif; }
.pen3 { stroke: rgb(0,0,0); stroke-width: 3; stroke-linejoin: round; }
.brush2 { fill: rgb(0,0,0); }
.brush3 { fill: rgb(230,230,230); }
.font2 { font-weight: bold; font-size: 59px; font-family: Arial, sans-serif; }
.font3 { font-weight: bold; font-size: 59px; font-family: Arial, sans-serif; }
</style>
  <rect
     y="10.833333"
     x="10.833333"
     height="2508.8691"
     width="3414.7798"
     id="rect7281"
     style="fill:none;stroke:#000000;stroke-width:8.33333302;stroke-linecap:round;stroke-linejoin:miter;stroke-miterlimit:4.62068987;stroke-dasharray:none;stroke-dashoffset:0;stroke-opacity:1" />
  <path
     style="fill:none;stroke:#000000;stroke-width:8.33333302;stroke-linecap:square;stroke-linejoin:miter;stroke-miterlimit:4.62068987;stroke-dasharray:none;stroke-opacity:1"
     d="M 1711.2221,12.775371 V 2508.0419"
     id="path6739"
     inkscape:connector-curvature="0" />
  <text
     xml:space="preserve"
     style="font-style:normal;font-variant:normal;font-weight:normal;font-stretch:normal;line-height:0%;font-family:Calibri;-inkscape-font-specification:'Calibri, Normal';text-align:start;letter-spacing:0px;word-spacing:0px;writing-mode:lr-tb;text-anchor:start;fill:#000000;fill-opacity:1;stroke:none;stroke-width:8.33333302;stroke-miterlimit:4.62068987;stroke-dasharray:none"
     x="289.60004"
     y="137.60869"
     id="text6741"
     transform="scale(1.0000544,0.99994561)"><tspan
       sodipodi:role="line"
       x="289.60004"
       y="137.60869"
       id="tspan6743"
       style="font-size:83.33332825px;line-height:1.25"><tspan
         style="font-style:normal;font-variant:normal;font-weight:normal;font-stretch:normal;font-size:83.33332825px;line-height:125%;font-family:Calibri;-inkscape-font-specification:'Calibri, Normal';text-align:start;writing-mode:lr-tb;text-anchor:start;fill:#000000;stroke-width:8.33333302;stroke-miterlimit:4.62068987;stroke-dasharray:none"
         id="tspan6745">INITIATING PARTY</tspan></tspan></text>
  <text
     xml:space="preserve"
     style="font-style:normal;font-variant:normal;font-weight:normal;font-stretch:normal;line-height:0%;font-family:Calibri;-inkscape-font-specification:'Calibri, Normal';text-align:start;letter-spacing:0px;word-spacing:0px;writing-mode:lr-tb;text-anchor:start;fill:#000000;fill-opacity:1;stroke:none;stroke-width:8.33333302;stroke-miterlimit:4.62068987;stroke-dasharray:none"
     x="2341.8303"
     y="142.76459"
     id="text6749"
     transform="scale(1.0000544,0.99994561)"><tspan
       sodipodi:role="line"
       x="2341.8303"
       y="142.76459"
       id="tspan6751"
       style="font-size:83.33332825px;line-height:1.25">RESPONDING PARTY<tspan
   style="font-style:normal;font-variant:normal;font-weight:normal;font-stretch:normal;font-size:83.33332825px;line-height:125%;font-family:Calibri;-inkscape-font-specification:'Calibri, Normal';text-align:start;writing-mode:lr-tb;text-anchor:start;fill:#000000;stroke-width:8.33333302;stroke-miterlimit:4.62068987;stroke-dasharray:none"
   id="tspan6753" /></tspan></text>
  <path
     style="fill:#ffffff;fill-opacity:1;fill-rule:evenodd;stroke:none;stroke-width:8.33333302;stroke-miterlimit:4.62068987;stroke-dasharray:none"
     d="m 1034.7426,734.51191 c 48.4753,0 87.4784,39.35937 87.4784,87.46631 v 0 0 0 c 0,48.46991 -39.0031,87.46258 -87.4784,87.46258 0,0 0,0 0,0 v 0 H 200.81216 v 0 c -48.11152,0 -87.47583,-38.99267 -87.47583,-87.46258 v 0 0 c 0,-48.10694 39.36431,-87.46631 87.47583,-87.46631 v 0 z"
     id="path6757"
     inkscape:connector-curvature="0" />
  <path
     style="fill:none;stroke:#000000;stroke-width:8.33333302;stroke-linecap:round;stroke-linejoin:round;stroke-miterlimit:4.62068987;stroke-dasharray:none;stroke-opacity:1"
     d="m 1121.8532,734.5119 c 53.0582,0 95.7487,39.35938 95.7487,87.46632 v 0 0 0 c 0,48.4699 -42.6905,87.46258 -95.7487,87.46258 0,0 0,0 0,0 v 0 h -912.771 v 0 c -52.66002,0 -95.74587,-38.99268 -95.74587,-87.46258 v 0 0 c 0,-48.10694 43.08585,-87.46632 95.74587,-87.46632 v 0 z"
     id="path6759"
     inkscape:connector-curvature="0" />
  <text
     xml:space="preserve"
     style="font-style:normal;font-variant:normal;font-weight:normal;font-stretch:normal;line-height:0%;font-family:ARIAL;-inkscape-font-specification:'ARIAL, Normal';text-align:start;letter-spacing:0px;word-spacing:0px;writing-mode:lr-tb;text-anchor:start;fill:#000000;fill-opacity:1;stroke:none;stroke-width:8.33333302;stroke-miterlimit:4.62068987;stroke-dasharray:none"
     x="257.42401"
     y="847.19568"
     id="text6761"
     transform="scale(1.0000544,0.99994561)"><tspan
       sodipodi:role="line"
       x="257.42401"
       y="847.19568"
       id="tspan6763"
       style="font-size:75px;line-height:1.25"><tspan
         dx="0"
         dy="0"
         style="font-style:normal;font-variant:normal;font-weight:normal;font-stretch:normal;font-size:75px;line-height:125%;font-family:ARIAL;-inkscape-font-specification:'ARIAL, Normal';text-align:start;writing-mode:lr-tb;text-anchor:start;fill:#000000;stroke-width:8.33333302;stroke-miterlimit:4.62068987;stroke-dasharray:none"
         id="tspan6765">Prepare tender contract</tspan></tspan></text>
  <path
     style="fill:#000000;fill-opacity:1;fill-rule:evenodd;stroke:none;stroke-width:8.33333302;stroke-miterlimit:4.62068987;stroke-dasharray:none"
     d="m 679.01287,565.41136 c 0,-32.07086 -25.88171,-58.31094 -58.32102,-58.31094 -32.07183,0 -58.31467,26.24008 -58.31467,58.31094 0,32.43513 26.24284,58.31028 58.31467,58.31028 32.43931,0 58.32102,-25.87515 58.32102,-58.31028 z"
     id="path6869"
     inkscape:connector-curvature="0" />
  <path
     style="fill:none;stroke:#000000;stroke-width:8.33333302;stroke-linecap:round;stroke-linejoin:round;stroke-miterlimit:4.62068987;stroke-dasharray:none;stroke-opacity:1"
     d="m 679.01287,565.41136 c 0,-32.07086 -25.88171,-58.31094 -58.32102,-58.31094 -32.07182,0 -58.31467,26.24008 -58.31467,58.31094 0,32.43513 26.24285,58.31028 58.31467,58.31028 32.43931,0 58.32102,-25.87515 58.32102,-58.31028"
     id="path6871"
     inkscape:connector-curvature="0" />
  <path
     style="fill:none;stroke:#000000;stroke-width:8.33333302;stroke-linecap:round;stroke-linejoin:bevel;stroke-miterlimit:4.62068987;stroke-dasharray:none;stroke-opacity:1"
     d="M 620.69185,623.72164 V 734.5119"
     id="path6881"
     inkscape:connector-curvature="0" />
  <path
     style="fill:none;stroke:#000000;stroke-width:8.33333302;stroke-linecap:round;stroke-linejoin:bevel;stroke-miterlimit:4.62068987;stroke-dasharray:none;stroke-opacity:1"
     d="m 620.69185,734.5119 -29.15733,-81.63488 m 29.15733,81.63488 29.16359,-81.63488"
     id="path6883"
     inkscape:connector-curvature="0" />
  <g
     id="g143"
     transform="translate(-2133.1373,1020.2879)">
    <path
       inkscape:connector-curvature="0"
       id="path6873"
       d="m 2812.15,1406.2739 c 0,-32.0684 -25.8817,-58.3084 -58.3211,-58.3084 -32.0718,0 -58.3146,26.24 -58.3146,58.3084 0,32.4358 26.2428,58.3146 58.3146,58.3146 32.4394,0 58.3211,-25.8788 58.3211,-58.3146 z"
       style="fill:#ffffff;fill-opacity:1;fill-rule:evenodd;stroke:none;stroke-width:8.33333302;stroke-miterlimit:4.62068987;stroke-dasharray:none" />
    <path
       inkscape:connector-curvature="0"
       id="path6875"
       d="m 2812.15,1406.2739 c 0,-32.0684 -25.8817,-58.3084 -58.3211,-58.3084 -32.0718,0 -58.3146,26.24 -58.3146,58.3084 0,32.4358 26.2428,58.3146 58.3146,58.3146 32.4394,0 58.3211,-25.8788 58.3211,-58.3146"
       style="fill:none;stroke:#000000;stroke-width:8.33333302;stroke-linecap:round;stroke-linejoin:round;stroke-miterlimit:4.62068987;stroke-dasharray:none;stroke-opacity:1" />
    <path
       inkscape:connector-curvature="0"
       id="path6877"
       d="m 2777.1574,1406.2739 c 0,-12.7526 -10.207,-23.3197 -23.3285,-23.3197 -12.7539,0 -23.322,10.5671 -23.322,23.3197 0,13.1199 10.5681,23.3258 23.322,23.3258 13.1215,0 23.3285,-10.2059 23.3285,-23.3258 z"
       style="fill:#000000;fill-opacity:1;fill-rule:evenodd;stroke:none;stroke-width:8.33333302;stroke-miterlimit:4.62068987;stroke-dasharray:none" />
    <path
       inkscape:connector-curvature="0"
       id="path6879"
       d="m 2777.1574,1406.2739 c 0,-12.7526 -10.207,-23.3197 -23.3285,-23.3197 -12.7539,0 -23.322,10.5671 -23.322,23.3197 0,13.1199 10.5681,23.3258 23.322,23.3258 13.1215,0 23.3285,-10.2059 23.3285,-23.3258"
       style="fill:none;stroke:#000000;stroke-width:8.33333302;stroke-linecap:round;stroke-linejoin:round;stroke-miterlimit:4.62068987;stroke-dasharray:none;stroke-opacity:1" />
  </g>
  <path
     style="fill:none;stroke:#000000;stroke-width:8.33333302;stroke-linecap:round;stroke-linejoin:bevel;stroke-miterlimit:4.62068987;stroke-dasharray:none;stroke-opacity:1"
     d="m 2760.4957,1518.772 v 172.5193"
     id="path6889"
     inkscape:connector-curvature="0" />
  <path
     style="fill:none;stroke:#000000;stroke-width:8.33333302;stroke-linecap:round;stroke-linejoin:bevel;stroke-miterlimit:4.62068987;stroke-dasharray:none;stroke-opacity:1"
     d="m 2760.4956,1692.2244 -29.1573,-81.6343 m 29.1573,81.6343 29.1636,-81.6343"
     id="path6891"
     inkscape:connector-curvature="0" />
  <path
     style="fill:none;stroke:#000000;stroke-width:8.33333302;stroke-linecap:round;stroke-linejoin:bevel;stroke-miterlimit:4.62068987;stroke-dasharray:none;stroke-opacity:1"
     d="m 620.69185,1204.5928 v 122.4514"
     id="path6909"
     inkscape:connector-curvature="0" />
  <path
     style="fill:none;stroke:#000000;stroke-width:8.33333302;stroke-linecap:round;stroke-linejoin:bevel;stroke-miterlimit:4.62068987;stroke-dasharray:none;stroke-opacity:1"
     d="m 620.69185,1327.0442 -29.15733,-81.6343 m 29.15733,81.6343 29.16359,-81.6343"
     id="path6911"
     inkscape:connector-curvature="0" />
  <g
     id="g1143">
    <path
       style="fill:#ffffff;fill-opacity:1;fill-rule:evenodd;stroke:none;stroke-width:8.33333302;stroke-miterlimit:4.62068987;stroke-dasharray:none"
       d="m 1034.7426,1023.8294 c 48.4753,0 87.4784,39.3594 87.4784,87.4663 v 0 0 0 c 0,48.47 -39.0031,87.4626 -87.4784,87.4626 0,0 0,0 0,0 v 0 H 200.81216 v 0 c -48.11152,0 -87.47583,-38.9926 -87.47583,-87.4626 v 0 0 c 0,-48.1069 39.36431,-87.4663 87.47583,-87.4663 v 0 z"
       id="path93"
       inkscape:connector-curvature="0" />
    <path
       style="fill:none;stroke:#000000;stroke-width:8.33333302;stroke-linecap:round;stroke-linejoin:round;stroke-miterlimit:4.62068987;stroke-dasharray:none;stroke-opacity:1"
       d="m 1121.8532,1023.8294 c 53.0582,0 95.7487,39.3594 95.7487,87.4663 v 0 0 0 c 0,48.4699 -42.6905,87.4626 -95.7487,87.4626 0,0 0,0 0,0 v 0 h -912.771 v 0 c -52.66002,0 -95.74587,-38.9927 -95.74587,-87.4626 v 0 0 c 0,-48.1069 43.08585,-87.4663 95.74587,-87.4663 v 0 z"
       id="path95"
       inkscape:connector-curvature="0" />
    <text
       xml:space="preserve"
       style="font-style:normal;font-variant:normal;font-weight:normal;font-stretch:normal;line-height:0%;font-family:ARIAL;-inkscape-font-specification:'ARIAL, Normal';text-align:start;letter-spacing:0px;word-spacing:0px;writing-mode:lr-tb;text-anchor:start;fill:#000000;fill-opacity:1;stroke:none;stroke-width:8.33333302;stroke-miterlimit:4.62068987;stroke-dasharray:none"
       x="220.72466"
       y="1136.5289"
       id="text101"
       transform="scale(1.0000544,0.99994561)"><tspan
         sodipodi:role="line"
         x="220.72466"
         y="1136.5289"
         id="tspan99"
         style="font-size:75px;line-height:1.25">Add W3C Digital Signature<tspan
   style="font-style:normal;font-variant:normal;font-weight:normal;font-stretch:normal;font-size:75px;line-height:125%;font-family:ARIAL;-inkscape-font-specification:'ARIAL, Normal';text-align:start;writing-mode:lr-tb;text-anchor:start;fill:#000000;stroke-width:8.33333302;stroke-miterlimit:4.62068987;stroke-dasharray:none"
   id="tspan97" /></tspan></text>
    <path
       style="fill:none;stroke:#000000;stroke-width:8.33333302;stroke-linecap:round;stroke-linejoin:bevel;stroke-miterlimit:4.62068987;stroke-dasharray:none;stroke-opacity:1"
       d="M 620.69185,913.03916 V 1023.8294"
       id="path103"
       inkscape:connector-curvature="0" />
    <path
       style="fill:none;stroke:#000000;stroke-width:8.33333302;stroke-linecap:round;stroke-linejoin:bevel;stroke-miterlimit:4.62068987;stroke-dasharray:none;stroke-opacity:1"
       d="m 620.69185,1023.8294 -29.15733,-81.63486 m 29.15733,81.63486 29.16359,-81.63486"
       id="path105"
       inkscape:connector-curvature="0" />
  </g>
  <g
     id="g177"
     transform="translate(50.211915,344.2589)">
    <path
       style="fill:none;stroke:#000000;stroke-width:8.33333302;stroke-linecap:round;stroke-linejoin:bevel;stroke-miterlimit:4.62068987;stroke-dasharray:none;stroke-opacity:1"
       d="m 2710.2807,1544.9566 v 122.4513"
       id="path145"
       inkscape:connector-curvature="0" />
    <path
       style="fill:none;stroke:#000000;stroke-width:8.33333302;stroke-linecap:round;stroke-linejoin:bevel;stroke-miterlimit:4.62068987;stroke-dasharray:none;stroke-opacity:1"
       d="m 2710.2807,1667.4079 -29.1574,-81.6342 m 29.1574,81.6342 29.1635,-81.6342"
       id="path147"
       inkscape:connector-curvature="0" />
  </g>
  <path
     style="fill:#ffffff;fill-opacity:1;fill-rule:evenodd;stroke:none;stroke-width:8.33333302;stroke-miterlimit:4.62068987;stroke-dasharray:none"
     d="m 3130.9981,1708.4521 c 48.4753,0 87.4784,39.3593 87.4784,87.4663 v 0 0 0 c 0,48.4699 -39.0031,87.4626 -87.4784,87.4626 0,0 0,0 0,0 v 0 h -833.9304 v 0 c -48.1116,0 -87.4759,-38.9927 -87.4759,-87.4626 v 0 0 c 0,-48.107 39.3643,-87.4663 87.4759,-87.4663 v 0 z"
     id="path149"
     inkscape:connector-curvature="0" />
  <path
     style="fill:none;stroke:#000000;stroke-width:8.33333302;stroke-linecap:round;stroke-linejoin:round;stroke-miterlimit:4.62068987;stroke-dasharray:none;stroke-opacity:1"
     d="m 3218.1087,1708.4521 c 53.0582,0 95.7487,39.3593 95.7487,87.4663 v 0 0 0 c 0,48.4699 -42.6905,87.4626 -95.7487,87.4626 0,0 0,0 0,0 v 0 h -912.771 v 0 c -52.66,0 -95.7459,-38.9927 -95.7459,-87.4626 v 0 0 c 0,-48.107 43.0859,-87.4663 95.7459,-87.4663 v 0 z"
     id="path151"
     inkscape:connector-curvature="0" />
  <text
     xml:space="preserve"
     style="font-style:normal;font-variant:normal;font-weight:normal;font-stretch:normal;line-height:0%;font-family:ARIAL;-inkscape-font-specification:'ARIAL, Normal';text-align:start;letter-spacing:0px;word-spacing:0px;writing-mode:lr-tb;text-anchor:start;fill:#000000;fill-opacity:1;stroke:none;stroke-width:8.33333302;stroke-miterlimit:4.62068987;stroke-dasharray:none"
     x="2316.8662"
     y="1821.1888"
     id="text157"
     transform="scale(1.0000544,0.99994561)"><tspan
       sodipodi:role="line"
       x="2316.8662"
       y="1821.1888"
       id="tspan155"
       style="font-size:75px;line-height:1.25">Add W3C Digital Signature<tspan
   style="font-style:normal;font-variant:normal;font-weight:normal;font-stretch:normal;font-size:75px;line-height:125%;font-family:ARIAL;-inkscape-font-specification:'ARIAL, Normal';text-align:start;writing-mode:lr-tb;text-anchor:start;fill:#000000;stroke-width:8.33333302;stroke-miterlimit:4.62068987;stroke-dasharray:none"
   id="tspan153" /></tspan></text>
  <g
     id="g4255"
     transform="translate(-57.85967,632.97875)">
    <path
       inkscape:connector-curvature="0"
       id="path6901"
       d="m 1973.7522,781.53426 h 285.751"
       style="fill:none;stroke:#000000;stroke-width:8.33333302;stroke-linecap:round;stroke-linejoin:bevel;stroke-miterlimit:4.62068987;stroke-dasharray:none;stroke-opacity:1" />
    <path
       inkscape:connector-curvature="0"
       id="path6903"
       d="m 2259.5032,781.53426 -81.6432,29.15416 m 81.6432,-29.15416 -81.6432,-29.16042"
       style="fill:none;stroke:#000000;stroke-width:8.33333302;stroke-linecap:round;stroke-linejoin:bevel;stroke-miterlimit:4.62068987;stroke-dasharray:none;stroke-opacity:1" />
  </g>
  <g
     id="g3427"
     transform="translate(5.7275701,632.97875)">
    <path
       inkscape:connector-curvature="0"
       id="path6905"
       d="M 1128.1576,781.53426 H 1448.901"
       style="fill:none;stroke:#000000;stroke-width:8.33333302;stroke-linecap:round;stroke-linejoin:bevel;stroke-miterlimit:4.62068987;stroke-dasharray:none;stroke-opacity:1" />
    <path
       inkscape:connector-curvature="0"
       id="path6907"
       d="m 1448.901,781.53426 -81.6431,29.15416 m 81.6431,-29.15416 -81.6431,-29.16042"
       style="fill:none;stroke:#000000;stroke-width:8.33333302;stroke-linecap:round;stroke-linejoin:bevel;stroke-miterlimit:4.62068987;stroke-dasharray:none;stroke-opacity:1" />
  </g>
  <path
     style="fill:#ffffff;fill-opacity:1;fill-rule:evenodd;stroke:none;stroke-width:8.33333302;stroke-miterlimit:4.62068987;stroke-dasharray:none"
     d="m 1040.5778,1327.0442 c 48.4753,0 87.4722,39.36 87.4722,87.4688 v 0 5.8284 0 c 0,48.4699 -38.9969,87.4687 -87.4722,87.4687 0,0 0,0 0,0 v 0 H 194.98 v 0 c -48.11152,0 -87.47517,-38.9988 -87.47517,-87.4687 v 0 -5.8284 c 0,-48.1088 39.36365,-87.4688 87.47517,-87.4688 v 0 z"
     id="path6767"
     inkscape:connector-curvature="0" />
  <path
     style="fill:#ffffff;fill-opacity:1;stroke:#000000;stroke-width:8.33333302;stroke-linecap:round;stroke-linejoin:round;stroke-miterlimit:4.62068987;stroke-dasharray:none;stroke-opacity:1"
     d="m 1108.4046,1328.1753 c 51.9989,0 93.8306,42.3288 93.8306,94.0663 v 0 6.2679 0 c 0,52.1259 -41.8317,94.0663 -93.8306,94.0663 0,0 0,0 0,0 v 0 H 201.33872 v 0 c -51.60882,0 -93.83389,-41.9404 -93.83389,-94.0663 v 0 -6.2679 c 0,-51.7375 42.22507,-94.0663 93.83389,-94.0663 v 0 z"
     id="path6769"
     inkscape:connector-curvature="0" />
  <text
     xml:space="preserve"
     style="font-style:normal;font-variant:normal;font-weight:normal;font-stretch:normal;line-height:0%;font-family:ARIAL;-inkscape-font-specification:'ARIAL, Normal';text-align:start;letter-spacing:0px;word-spacing:0px;writing-mode:lr-tb;text-anchor:start;fill:#000000;fill-opacity:1;stroke:none;stroke-width:8.33333302;stroke-miterlimit:4.62068987;stroke-dasharray:none"
     x="283.5112"
     y="1444.8447"
     id="text6771"
     transform="scale(1.0000544,0.99994561)"><tspan
       sodipodi:role="line"
       x="283.5112"
       y="1444.8447"
       id="tspan6773"
       style="font-size:75px;line-height:1.25"><tspan
         dx="0"
         dy="0"
         style="font-style:normal;font-variant:normal;font-weight:normal;font-stretch:normal;font-size:75px;line-height:125%;font-family:ARIAL;-inkscape-font-specification:'ARIAL, Normal';text-align:start;writing-mode:lr-tb;text-anchor:start;fill:#000000;stroke-width:8.33333302;stroke-miterlimit:4.62068987;stroke-dasharray:none"
         id="tspan6775">Submit tender contract</tspan></tspan></text>
  <path
     style="fill:#ffffff;fill-opacity:1;fill-rule:evenodd;stroke:none;stroke-width:8.33333302;stroke-miterlimit:4.62068987;stroke-dasharray:none"
     d="m 1450.6181,1247.6026 v 355.6911 h 524.8512 v -355.6911 z"
     id="path6777"
     inkscape:connector-curvature="0" />
  <path
     style="fill:none;stroke:#000000;stroke-width:8.33333302;stroke-linecap:round;stroke-linejoin:round;stroke-miterlimit:4.62068987;stroke-dasharray:none;stroke-opacity:1"
     d="m 1454.6286,1601.0018 h 524.8512 v -355.6911 h -524.8512 z"
     id="path6779"
     inkscape:connector-curvature="0" />
  <text
     xml:space="preserve"
     style="font-style:italic;font-variant:normal;font-weight:bold;font-stretch:normal;line-height:0%;font-family:ARIAL;-inkscape-font-specification:'ARIAL, Bold Italic';text-align:start;letter-spacing:0px;word-spacing:0px;writing-mode:lr-tb;text-anchor:start;fill:#000000;fill-opacity:1;stroke:none;stroke-width:8.33333302;stroke-miterlimit:4.62068987;stroke-dasharray:none"
     x="1494.8895"
     y="1381.038"
     id="text6781"
     transform="scale(1.0000544,0.99994561)"><tspan
       sodipodi:role="line"
       x="1494.8895"
       y="1381.038"
       id="tspan6783"
       style="font-size:75px;line-height:1.25">Tender</tspan></text>
  <text
     xml:space="preserve"
     style="font-style:italic;font-variant:normal;font-weight:bold;font-stretch:normal;line-height:0%;font-family:ARIAL;-inkscape-font-specification:'ARIAL, Bold Italic';text-align:start;letter-spacing:0px;word-spacing:0px;writing-mode:lr-tb;text-anchor:start;fill:#000000;fill-opacity:1;stroke:none;stroke-width:8.33333302;stroke-miterlimit:4.62068987;stroke-dasharray:none"
     x="1491.4105"
     y="1492.8502"
     id="text6787"
     transform="scale(1.0000544,0.99994561)"><tspan
       sodipodi:role="line"
       x="1491.4105"
       y="1492.8502"
       id="tspan6789"
       style="font-size:75px;line-height:1.25">Contract</tspan></text>
  <text
     xml:space="preserve"
     style="font-style:italic;font-variant:normal;font-weight:bold;font-stretch:normal;line-height:0%;font-family:ARIAL;-inkscape-font-specification:'ARIAL, Bold Italic';text-align:start;letter-spacing:0px;word-spacing:0px;writing-mode:lr-tb;text-anchor:start;fill:#000000;fill-opacity:1;stroke:none;stroke-width:8.33333302;stroke-miterlimit:4.62068987;stroke-dasharray:none"
     x="1489.6368"
     y="1548.1257"
     id="text6793"
     transform="scale(1.0000544,0.99994561)"><tspan
       sodipodi:role="line"
       x="1489.6368"
       y="1548.1257"
       id="tspan6795"
       style="font-size:75px;line-height:1.25"> </tspan></text>
  <path
     style="fill:#ffffff;fill-opacity:1;fill-rule:evenodd;stroke:none;stroke-width:8.33333302;stroke-miterlimit:4.62068987;stroke-dasharray:none"
     d="m 3148.8061,1327.2592 c 48.475,0 87.472,39.3601 87.472,87.4689 v 0 11.6567 0 c 0,48.4761 -38.997,87.4687 -87.472,87.4687 0,0 0,0 0,0 v 0 h -868.9232 v 0 c -48.114,0 -87.4782,-38.9926 -87.4782,-87.4687 v 0 -11.6567 c 0,-48.1088 39.3642,-87.4689 87.4782,-87.4689 v 0 z"
     id="path6799"
     inkscape:connector-curvature="0" />
  <path
     style="fill:none;stroke:#000000;stroke-width:8.33333302;stroke-linecap:round;stroke-linejoin:round;stroke-miterlimit:4.62068987;stroke-dasharray:none;stroke-opacity:1"
     d="m 3229.107,1324.3947 c 51.6739,0 93.2444,39.36 93.2444,87.4688 v 0 11.6567 0 c 0,48.4762 -41.5705,87.4688 -93.2444,87.4688 0,0 0,0 0,0 v 0 h -926.2642 v 0 c -51.2891,0 -93.251,-38.9926 -93.251,-87.4688 v 0 -11.6567 c 0,-48.1088 41.9619,-87.4688 93.251,-87.4688 v 0 z"
     id="path6801"
     inkscape:connector-curvature="0" />
  <text
     xml:space="preserve"
     style="font-style:normal;font-variant:normal;font-weight:normal;font-stretch:normal;line-height:0%;font-family:ARIAL;-inkscape-font-specification:'ARIAL, Normal';text-align:start;letter-spacing:0px;word-spacing:0px;writing-mode:lr-tb;text-anchor:start;fill:#000000;fill-opacity:1;stroke:none;stroke-width:8.33333302;stroke-miterlimit:4.62068987;stroke-dasharray:none"
     x="2378.2646"
     y="1439.903"
     id="text6803"
     transform="scale(1.0000544,0.99994561)"><tspan
       sodipodi:role="line"
       x="2378.2646"
       y="1439.903"
       id="tspan6805"
       style="font-size:75px;line-height:1.25"><tspan
         dx="0"
         dy="0"
         style="font-style:normal;font-variant:normal;font-weight:normal;font-stretch:normal;font-size:75px;line-height:125%;font-family:ARIAL;-inkscape-font-specification:'ARIAL, Normal';text-align:start;writing-mode:lr-tb;text-anchor:start;fill:#000000;stroke-width:8.33333302;stroke-miterlimit:4.62068987;stroke-dasharray:none"
         id="tspan6807">Receive tender contract</tspan></tspan></text>
  <path
     inkscape:connector-curvature="0"
     id="path223"
     d="M 2297.8801,2122.4655 H 1978.9023"
     style="fill:none;stroke:#000000;stroke-width:8.33333302;stroke-linecap:round;stroke-linejoin:bevel;stroke-miterlimit:4.62068987;stroke-dasharray:none;stroke-opacity:1" />
  <path
     inkscape:connector-curvature="0"
     id="path225"
     d="m 1978.2668,2122.4655 79.2232,29.1542 m -79.2232,-29.1542 79.2232,-29.1604"
     style="fill:none;stroke:#000000;stroke-width:8.33333302;stroke-linecap:round;stroke-linejoin:bevel;stroke-miterlimit:4.62068987;stroke-dasharray:none;stroke-opacity:1" />
  <g
     transform="matrix(-0.79461421,0,0,1,2351.0827,1329.0595)"
     id="g233"
     style="stroke-width:1.12181652">
    <path
       style="fill:none;stroke:#000000;stroke-width:9.34847069;stroke-linecap:round;stroke-linejoin:bevel;stroke-miterlimit:4.62068987;stroke-dasharray:none;stroke-opacity:1"
       d="M 1128.1576,781.53426 H 1448.901"
       id="path229"
       inkscape:connector-curvature="0" />
    <path
       style="fill:none;stroke:#000000;stroke-width:9.34847069;stroke-linecap:round;stroke-linejoin:bevel;stroke-miterlimit:4.62068987;stroke-dasharray:none;stroke-opacity:1"
       d="m 1448.901,781.53426 -81.6431,29.15416 m 81.6431,-29.15416 -81.6431,-29.16042"
       id="path231"
       inkscape:connector-curvature="0" />
  </g>
  <path
     inkscape:connector-curvature="0"
     id="path235"
     d="m 1040.5778,2023.1249 c 48.4753,0 87.4722,39.3601 87.4722,87.4689 v 0 5.8284 0 c 0,48.4699 -38.9969,87.4687 -87.4722,87.4687 0,0 0,0 0,0 v 0 H 194.98 v 0 c -48.11152,0 -87.47517,-38.9988 -87.47517,-87.4687 v 0 -5.8284 c 0,-48.1088 39.36365,-87.4689 87.47517,-87.4689 v 0 z"
     style="fill:#ffffff;fill-opacity:1;fill-rule:evenodd;stroke:none;stroke-width:8.33333302;stroke-miterlimit:4.62068987;stroke-dasharray:none" />
  <path
     inkscape:connector-curvature="0"
     id="path237"
     d="m 1108.4046,2024.256 c 51.9989,0 93.8306,42.3289 93.8306,94.0664 v 0 6.2679 0 c 0,52.1259 -41.8317,94.0663 -93.8306,94.0663 0,0 0,0 0,0 v 0 H 201.33872 v 0 c -51.60882,0 -93.83389,-41.9404 -93.83389,-94.0663 v 0 -6.2679 c 0,-51.7375 42.22507,-94.0664 93.83389,-94.0664 v 0 z"
     style="fill:#ffffff;fill-opacity:1;stroke:#000000;stroke-width:8.33333302;stroke-linecap:round;stroke-linejoin:round;stroke-miterlimit:4.62068987;stroke-dasharray:none;stroke-opacity:1" />
  <text
     transform="scale(1.0000544,0.99994561)"
     id="text243"
     y="2140.9634"
     x="283.5112"
     style="font-style:normal;font-variant:normal;font-weight:normal;font-stretch:normal;line-height:0%;font-family:ARIAL;-inkscape-font-specification:'ARIAL, Normal';text-align:start;letter-spacing:0px;word-spacing:0px;writing-mode:lr-tb;text-anchor:start;fill:#000000;fill-opacity:1;stroke:none;stroke-width:8.33333302;stroke-miterlimit:4.62068987;stroke-dasharray:none"
     xml:space="preserve"><tspan
       style="font-size:75px;line-height:1.25"
       id="tspan241"
       y="2140.9634"
       x="283.5112"
       sodipodi:role="line"><tspan
         id="tspan239"
         style="font-style:normal;font-variant:normal;font-weight:normal;font-stretch:normal;font-size:75px;line-height:125%;font-family:ARIAL;-inkscape-font-specification:'ARIAL, Normal';text-align:start;writing-mode:lr-tb;text-anchor:start;fill:#000000;stroke-width:8.33333302;stroke-miterlimit:4.62068987;stroke-dasharray:none">Receive tender contract</tspan></tspan></text>
  <path
     inkscape:connector-curvature="0"
     id="path245"
     d="m 1450.6181,1943.6834 v 355.6911 h 524.8512 v -355.6911 z"
     style="fill:#ffffff;fill-opacity:1;fill-rule:evenodd;stroke:none;stroke-width:8.33333302;stroke-miterlimit:4.62068987;stroke-dasharray:none" />
  <path
     inkscape:connector-curvature="0"
     id="path247"
     d="m 1454.6286,2297.0826 h 524.8512 v -355.6912 h -524.8512 z"
     style="fill:none;stroke:#000000;stroke-width:8.33333302;stroke-linecap:round;stroke-linejoin:round;stroke-miterlimit:4.62068987;stroke-dasharray:none;stroke-opacity:1" />
  <text
     transform="scale(1.0000544,0.99994561)"
     id="text251"
     y="2077.1567"
     x="1494.8895"
     style="font-style:italic;font-variant:normal;font-weight:bold;font-stretch:normal;line-height:0%;font-family:ARIAL;-inkscape-font-specification:'ARIAL, Bold Italic';text-align:start;letter-spacing:0px;word-spacing:0px;writing-mode:lr-tb;text-anchor:start;fill:#000000;fill-opacity:1;stroke:none;stroke-width:8.33333302;stroke-miterlimit:4.62068987;stroke-dasharray:none"
     xml:space="preserve"><tspan
       style="font-size:75px;line-height:1.25"
       id="tspan249"
       y="2077.1567"
       x="1494.8895"
       sodipodi:role="line">Tender</tspan></text>
  <text
     transform="scale(1.0000544,0.99994561)"
     id="text255"
     y="2188.969"
     x="1491.4105"
     style="font-style:italic;font-variant:normal;font-weight:bold;font-stretch:normal;line-height:0%;font-family:ARIAL;-inkscape-font-specification:'ARIAL, Bold Italic';text-align:start;letter-spacing:0px;word-spacing:0px;writing-mode:lr-tb;text-anchor:start;fill:#000000;fill-opacity:1;stroke:none;stroke-width:8.33333302;stroke-miterlimit:4.62068987;stroke-dasharray:none"
     xml:space="preserve"><tspan
       style="font-size:75px;line-height:1.25"
       id="tspan253"
       y="2188.969"
       x="1491.4105"
       sodipodi:role="line">Contract</tspan></text>
  <path
     inkscape:connector-curvature="0"
     id="path261"
     d="m 3148.8061,2023.34 c 48.475,0 87.472,39.3601 87.472,87.4689 v 0 11.6567 0 c 0,48.4761 -38.997,87.4687 -87.472,87.4687 0,0 0,0 0,0 v 0 h -868.9232 v 0 c -48.114,0 -87.4782,-38.9926 -87.4782,-87.4687 v 0 -11.6567 c 0,-48.1088 39.3642,-87.4689 87.4782,-87.4689 v 0 z"
     style="fill:#ffffff;fill-opacity:1;fill-rule:evenodd;stroke:none;stroke-width:8.33333302;stroke-miterlimit:4.62068987;stroke-dasharray:none" />
  <path
     inkscape:connector-curvature="0"
     id="path263"
     d="m 3229.107,2020.4755 c 51.6739,0 93.2444,39.36 93.2444,87.4688 v 0 11.6567 0 c 0,48.4762 -41.5705,87.4688 -93.2444,87.4688 0,0 0,0 0,0 v 0 h -926.2642 v 0 c -51.2891,0 -93.251,-38.9926 -93.251,-87.4688 v 0 -11.6567 c 0,-48.1088 41.9619,-87.4688 93.251,-87.4688 v 0 z"
     style="fill:none;stroke:#000000;stroke-width:8.33333302;stroke-linecap:round;stroke-linejoin:round;stroke-miterlimit:4.62068987;stroke-dasharray:none;stroke-opacity:1" />
  <text
     transform="scale(1.0000544,0.99994561)"
     id="text269"
     y="2136.0217"
     x="2378.2646"
     style="font-style:normal;font-variant:normal;font-weight:normal;font-stretch:normal;line-height:0%;font-family:ARIAL;-inkscape-font-specification:'ARIAL, Normal';text-align:start;letter-spacing:0px;word-spacing:0px;writing-mode:lr-tb;text-anchor:start;fill:#000000;fill-opacity:1;stroke:none;stroke-width:8.33333302;stroke-miterlimit:4.62068987;stroke-dasharray:none"
     xml:space="preserve"><tspan
       style="font-size:75px;line-height:1.25"
       id="tspan267"
       y="2136.0217"
       x="2378.2646"
       sodipodi:role="line"><tspan
         id="tspan265"
         style="font-style:normal;font-variant:normal;font-weight:normal;font-stretch:normal;font-size:75px;line-height:125%;font-family:ARIAL;-inkscape-font-specification:'ARIAL, Normal';text-align:start;writing-mode:lr-tb;text-anchor:start;fill:#000000;stroke-width:8.33333302;stroke-miterlimit:4.62068987;stroke-dasharray:none">Return tender contract</tspan></tspan></text>
  <g
     id="g277"
     transform="translate(6.6666665,344.2589)">
    <path
       style="fill:none;stroke:#000000;stroke-width:8.33333302;stroke-linecap:round;stroke-linejoin:bevel;stroke-miterlimit:4.62068987;stroke-dasharray:none;stroke-opacity:1"
       d="m 614.02518,1888.7002 v 122.4513"
       id="path271"
       inkscape:connector-curvature="0" />
    <path
       style="fill:none;stroke:#000000;stroke-width:8.33333302;stroke-linecap:round;stroke-linejoin:bevel;stroke-miterlimit:4.62068987;stroke-dasharray:none;stroke-opacity:1"
       d="m 614.02518,2011.1515 -29.15733,-81.6342 m 29.15733,81.6342 29.16359,-81.6342"
       id="path273"
       inkscape:connector-curvature="0" />
  </g>
  <path
     style="fill:none;stroke:#000000;stroke-width:8.33333302;stroke-linecap:round;stroke-linejoin:bevel;stroke-miterlimit:4.62068987;stroke-dasharray:66.66666529, 66.66666529;stroke-dashoffset:0;stroke-opacity:1"
     d="M 2187.4574,323.12712 H 1211.7183"
     id="path285"
     inkscape:connector-curvature="0" />
  <path
     style="fill:none;stroke:#000000;stroke-width:8.33333302;stroke-linecap:round;stroke-linejoin:bevel;stroke-miterlimit:4.62068987;stroke-dasharray:none;stroke-opacity:1"
     d="m 1199.7654,323.12712 64.8747,29.15416 m -64.8747,-29.15416 64.8747,-29.16042"
     id="path287"
     inkscape:connector-curvature="0" />
  <path
     style="fill:#ffffff;fill-opacity:1;fill-rule:evenodd;stroke:none;stroke-width:8.33333302;stroke-miterlimit:4.62068987;stroke-dasharray:none"
     d="m 1040.5778,235.65825 c 48.4753,0 87.4722,39.3601 87.4722,87.4689 v 0 5.8284 0 c 0,48.4699 -38.9969,87.4687 -87.4722,87.4687 0,0 0,0 0,0 v 0 H 194.98 v 0 c -48.11152,0 -87.47517,-38.9988 -87.47517,-87.4687 v 0 -5.8284 c 0,-48.1088 39.36365,-87.4689 87.47517,-87.4689 v 0 z"
     id="path291"
     inkscape:connector-curvature="0" />
  <path
     style="fill:#ffffff;fill-opacity:1;stroke:#000000;stroke-width:8.33333302;stroke-linecap:round;stroke-linejoin:round;stroke-miterlimit:4.62068987;stroke-dasharray:none;stroke-opacity:1"
     d="m 1108.4046,236.78935 c 51.9989,0 93.8306,42.3289 93.8306,94.0664 v 0 6.2679 0 c 0,52.1259 -41.8317,94.0663 -93.8306,94.0663 0,0 0,0 0,0 v 0 H 201.33872 v 0 c -51.60882,0 -93.83389,-41.9404 -93.83389,-94.0663 v 0 -6.2679 c 0,-51.7375 42.22507,-94.0664 93.83389,-94.0664 v 0 z"
     id="path293"
     inkscape:connector-curvature="0" />
  <text
     xml:space="preserve"
     style="font-style:normal;font-variant:normal;font-weight:normal;font-stretch:normal;line-height:0%;font-family:ARIAL;-inkscape-font-specification:'ARIAL, Normal';text-align:start;letter-spacing:0px;word-spacing:0px;writing-mode:lr-tb;text-anchor:start;fill:#000000;fill-opacity:1;stroke:none;stroke-width:8.33333302;stroke-miterlimit:4.62068987;stroke-dasharray:none"
     x="163.25113"
     y="353.39954"
     id="text299"
     transform="scale(1.0000544,0.99994561)"><tspan
       sodipodi:role="line"
       x="163.25113"
       y="353.39954"
       id="tspan297"
       style="font-size:75px;line-height:1.25">Prior exchange of public keys</tspan></text>
  <path
     style="fill:#ffffff;fill-opacity:1;fill-rule:evenodd;stroke:none;stroke-width:8.33333302;stroke-miterlimit:4.62068987;stroke-dasharray:none"
     d="m 3148.8061,235.87335 c 48.475,0 87.472,39.3601 87.472,87.4689 v 0 11.6567 0 c 0,48.4761 -38.997,87.4687 -87.472,87.4687 0,0 0,0 0,0 v 0 h -868.9232 v 0 c -48.114,0 -87.4782,-38.9926 -87.4782,-87.4687 v 0 -11.6567 c 0,-48.1088 39.3642,-87.4689 87.4782,-87.4689 v 0 z"
     id="path301"
     inkscape:connector-curvature="0" />
  <path
     style="fill:none;stroke:#000000;stroke-width:8.33333302;stroke-linecap:round;stroke-linejoin:round;stroke-miterlimit:4.62068987;stroke-dasharray:none;stroke-opacity:1"
     d="m 3229.107,233.00885 c 51.6739,0 93.2444,39.36 93.2444,87.4688 v 0 11.6567 0 c 0,48.4762 -41.5705,87.4688 -93.2444,87.4688 0,0 0,0 0,0 v 0 h -926.2642 v 0 c -51.2891,0 -93.251,-38.9926 -93.251,-87.4688 v 0 -11.6567 c 0,-48.1088 41.9619,-87.4688 93.251,-87.4688 v 0 z"
     id="path303"
     inkscape:connector-curvature="0" />
  <path
     inkscape:connector-curvature="0"
     id="path313"
     d="m 2204.6446,323.12712 -64.8747,29.15416 m 64.8747,-29.15416 -64.8747,-29.16042"
     style="fill:none;stroke:#000000;stroke-width:8.33333302;stroke-linecap:round;stroke-linejoin:bevel;stroke-miterlimit:4.62068987;stroke-dasharray:none;stroke-opacity:1" />
  <text
     transform="scale(1.0000544,0.99994561)"
     id="text317"
     y="353.39954"
     x="2274.2378"
     style="font-style:normal;font-variant:normal;font-weight:normal;font-stretch:normal;line-height:0%;font-family:ARIAL;-inkscape-font-specification:'ARIAL, Normal';text-align:start;letter-spacing:0px;word-spacing:0px;writing-mode:lr-tb;text-anchor:start;fill:#000000;fill-opacity:1;stroke:none;stroke-width:8.33333302;stroke-miterlimit:4.62068987;stroke-dasharray:none"
     xml:space="preserve"><tspan
       style="font-size:75px;line-height:1.25"
       id="tspan315"
       y="353.39954"
       x="2274.2378"
       sodipodi:role="line">Prior exchange of public keys</tspan></text>
</svg>
