<?xml version="1.0" encoding="UTF-8"?>
<svg xmlns="http://www.w3.org/2000/svg" xmlns:xlink="http://www.w3.org/1999/xlink" version="1.1" width="144.992mm" height="125.256mm" viewBox="0 0 911 787"><!-- Generated from UBL-2.2-CPFR-EstablishingCollaborativeRelationships.drawio by tools/export_drawio.js (draw.io 32.2.0). Edit UBL-2.2-CPFR-EstablishingCollaborativeRelationships.drawio, not this file. --><title>UBL-2.2-CPFR-EstablishingCollaborativeRelationships</title><defs/><rect fill="#ffffff" width="911" height="787" x="0" y="0"/><g><g data-cell-id="0"><g data-cell-id="1"><g data-cell-id="frame"><g><path d="M 1 1 L 1 1 L 910 1 L 910 1" fill="none" stroke="#000000" stroke-width="2" stroke-miterlimit="10"/><path d="M 1 1 L 1 786 L 910 786 L 910 1" fill="none" stroke="#000000" stroke-width="2" stroke-miterlimit="10"/></g><g data-cell-id="phase-establishing-collaborative-relationship"><g transform="translate(0.5,0.5)"><rect x="22" y="38" width="867" height="705" rx="33.5" ry="33.5" fill="none" stroke="#000000" stroke-dasharray="3 2"/></g><g><g><g><text x="450.51" y="55" font-family="Helvetica, Arial, 'Liberation Sans', sans-serif" text-anchor="middle" font-size="12" fill="#000000" font-weight="bold">Establishing Collaborative Relationship</text></g></g></g></g><g data-cell-id="lane-buyer-party"><g transform="translate(0.5,0.5)"><path d="M 1 35 L 1 1 L 456 1 L 456 35" fill="none" stroke="#000000" stroke-miterlimit="10"/><path d="M 1 35 L 1 786 L 456 786 L 456 35" fill="none" stroke="#000000" stroke-miterlimit="10"/></g><g><g><g><text x="218.51" y="22.31" font-family="Helvetica, Arial, 'Liberation Sans', sans-serif" text-anchor="middle" font-size="12" fill="#000000">Buyer Party</text></g></g></g><g data-cell-id="action-receive-exception-criteria-in-buyer-party"><g transform="translate(0.5,0.5)"><rect x="100" y="187" width="152" height="59" rx="18.5" ry="18.5" fill="#ffffff" stroke="#000000" style="fill: var(--ge-adaptive-bg, #ffffff)"/></g><g><g><g><text x="173.5" y="212.11" font-family="Helvetica, Arial, 'Liberation Sans', sans-serif" text-anchor="middle" font-size="12" fill="#000000" font-weight="bold">Receive Exception</text><text x="173.5" y="226.5" font-family="Helvetica, Arial, 'Liberation Sans', sans-serif" text-anchor="middle" font-size="12" fill="#000000" font-weight="bold">Criteria</text></g></g></g></g><g data-cell-id="action-revise-exception-criteria"><g transform="translate(0.5,0.5)"><rect x="100" y="280" width="152" height="63" rx="18" ry="18" fill="#ffffff" stroke="#000000" style="fill: var(--ge-adaptive-bg, #ffffff)"/></g><g><g><g><text x="173.5" y="306.11" font-family="Helvetica, Arial, 'Liberation Sans', sans-serif" text-anchor="middle" font-size="12" fill="#000000" font-weight="bold">Revise Exception</text><text x="173.5" y="320.5" font-family="Helvetica, Arial, 'Liberation Sans', sans-serif" text-anchor="middle" font-size="12" fill="#000000" font-weight="bold">Criteria</text></g></g></g></g><g data-cell-id="action-send-revision"><g transform="translate(0.5,0.5)"><rect x="153" y="390" width="154" height="50" rx="18" ry="18" fill="#ffffff" stroke="#000000" style="fill: var(--ge-adaptive-bg, #ffffff)"/></g><g><g><g><text x="227.5" y="416.31" font-family="Helvetica, Arial, 'Liberation Sans', sans-serif" text-anchor="middle" font-size="12" fill="#000000" font-weight="bold">Send Revision</text></g></g></g></g><g data-cell-id="decision-buyer-party"><g transform="translate(0.5,0.5)"><path d="M 128.5 502 L 154 525.5 L 128.5 549 L 103 525.5 Z" fill="#ffffff" stroke="#000000" stroke-miterlimit="10" style="fill: var(--ge-adaptive-bg, #ffffff)"/></g><g><g><g><text x="118.5" y="493.31" font-family="Helvetica, Arial, 'Liberation Sans', sans-serif" text-anchor="middle" font-size="12" fill="#000000">Exception Criteria Accepted?</text></g></g></g></g><g data-cell-id="action-send-exception-criteria-in-buyer-party"><g transform="translate(0.5,0.5)"><rect x="199" y="609" width="160" height="49" rx="18" ry="18" fill="#ffffff" stroke="#000000" style="fill: var(--ge-adaptive-bg, #ffffff)"/></g><g><g><g><text x="276.5" y="635.31" font-family="Helvetica, Arial, 'Liberation Sans', sans-serif" text-anchor="middle" font-size="12" fill="#000000" font-weight="bold">Send Exception Criteria</text></g></g></g></g><g data-cell-id="flow-receive-exception-criteria-in-buyer-party-to-revise-exception-criteria"><g transform="translate(0.5,0.5)"><path d="M 174.95 246 L 174.95 277.76" fill="none" stroke="#000000" stroke-miterlimit="10"/><path d="M 169.45 267.88 L 174.95 278.88 L 180.45 267.88" fill="none" stroke="#000000" stroke-miterlimit="10"/></g></g><g data-cell-id="flow-decision-buyer-party-to-revise-exception-criteria"><g transform="translate(0.5,0.5)"><path d="M 127.09 502 L 127.09 345.24" fill="none" stroke="#000000" stroke-miterlimit="10"/><path d="M 132.59 355.12 L 127.09 344.12 L 121.59 355.12" fill="none" stroke="#000000" stroke-miterlimit="10"/></g><g><g><g><text x="110.5" y="360.91" font-family="Helvetica, Arial, 'Liberation Sans', sans-serif" text-anchor="middle" font-size="11" fill="#000000">No</text></g></g></g></g><g data-cell-id="flow-revise-exception-criteria-to-send-revision"><g transform="translate(0.5,0.5)"><path d="M 216.34 343 L 216.34 387.76" fill="none" stroke="#000000" stroke-miterlimit="10"/><path d="M 210.84 377.88 L 216.34 388.88 L 221.84 377.88" fill="none" stroke="#000000" stroke-miterlimit="10"/></g></g><g data-cell-id="flow-decision-buyer-party-to-send-exception-criteria-in-buyer-party"><g transform="translate(0.5,0.5)"><path d="M 127 549 L 127 572 L 240 572 L 240 606.76" fill="none" stroke="#000000" stroke-miterlimit="10"/><path d="M 234.5 596.88 L 240 607.88 L 245.5 596.88" fill="none" stroke="#000000" stroke-miterlimit="10"/></g><g><g><g><text x="220.51" y="596.91" font-family="Helvetica, Arial, 'Liberation Sans', sans-serif" text-anchor="middle" font-size="11" fill="#000000">Yes</text></g></g></g></g></g><g data-cell-id="lane-seller-party"><g transform="translate(0.5,0.5)"><path d="M 456 35 L 456 1 L 910 1 L 910 35" fill="none" stroke="#000000" stroke-miterlimit="10"/><path d="M 456 35 L 456 786 L 910 786 L 910 35" fill="none" stroke="#000000" stroke-miterlimit="10"/></g><g><g><g><text x="710.5" y="22.31" font-family="Helvetica, Arial, 'Liberation Sans', sans-serif" text-anchor="middle" font-size="12" fill="#000000">Seller Party</text></g></g></g><g data-cell-id="initial-seller-party"><g><ellipse cx="759.5" cy="97.5" rx="19.5" ry="19.5" fill="#000000" stroke="none"/></g></g><g data-cell-id="object-exception-criteria"><g><rect x="386" y="186" width="139" height="63" fill="#ffffff" stroke="#000000" stroke-width="2" style="fill: var(--ge-adaptive-bg, #ffffff)"/></g><g><g><g><text x="453.51" y="218.31" font-family="Helvetica, Arial, 'Liberation Sans', sans-serif" text-anchor="middle" font-size="12" fill="#000000" font-weight="bold" font-style="italic">Exception Criteria</text></g></g></g></g><g data-cell-id="action-send-exception-criteria-in-seller-party"><g transform="translate(0.5,0.5)"><rect x="678" y="191" width="162" height="55" rx="18.5" ry="18.5" fill="#ffffff" stroke="#000000" style="fill: var(--ge-adaptive-bg, #ffffff)"/></g><g><g><g><text x="757.5" y="219.31" font-family="Helvetica, Arial, 'Liberation Sans', sans-serif" text-anchor="middle" font-size="12" fill="#000000" font-weight="bold">Send Exception Criteria</text></g></g></g></g><g data-cell-id="object-exception-criteria-revision"><g><rect x="398" y="382" width="133" height="64" fill="#ffffff" stroke="#000000" stroke-width="2" style="fill: var(--ge-adaptive-bg, #ffffff)"/></g><g><g><g><text x="462.51" y="409.11" font-family="Helvetica, Arial, 'Liberation Sans', sans-serif" text-anchor="middle" font-size="12" fill="#000000" font-weight="bold" font-style="italic">Exception Criteria</text><text x="462.51" y="423.5" font-family="Helvetica, Arial, 'Liberation Sans', sans-serif" text-anchor="middle" font-size="12" fill="#000000" font-weight="bold" font-style="italic">(revision)</text></g></g></g></g><g data-cell-id="action-receive-revision"><g transform="translate(0.5,0.5)"><rect x="622" y="383" width="148" height="59" rx="17.5" ry="17.5" fill="#ffffff" stroke="#000000" style="fill: var(--ge-adaptive-bg, #ffffff)"/></g><g><g><g><text x="691.5" y="413.31" font-family="Helvetica, Arial, 'Liberation Sans', sans-serif" text-anchor="middle" font-size="12" fill="#000000" font-weight="bold">Receive Revision</text></g></g></g></g><g data-cell-id="action-review-and-resend-revision"><g transform="translate(0.5,0.5)"><rect x="614" y="495" width="162" height="57" rx="18" ry="18" fill="#ffffff" stroke="#000000" style="fill: var(--ge-adaptive-bg, #ffffff)"/></g><g><g><g><text x="691.5" y="518.11" font-family="Helvetica, Arial, 'Liberation Sans', sans-serif" text-anchor="middle" font-size="12" fill="#000000" font-weight="bold">Review and Resend</text><text x="691.49" y="532.5" font-family="Helvetica, Arial, 'Liberation Sans', sans-serif" text-anchor="middle" font-size="12" fill="#000000" font-weight="bold">Revision</text></g></g></g></g><g data-cell-id="action-receive-exception-criteria-in-seller-party"><g transform="translate(0.5,0.5)"><rect x="615" y="631" width="161" height="55" rx="18" ry="18" fill="#ffffff" stroke="#000000" style="fill: var(--ge-adaptive-bg, #ffffff)"/></g><g><g><g><text x="692.5" y="653.11" font-family="Helvetica, Arial, 'Liberation Sans', sans-serif" text-anchor="middle" font-size="12" fill="#000000" font-weight="bold">Receive Exception</text><text x="692.5" y="667.5" font-family="Helvetica, Arial, 'Liberation Sans', sans-serif" text-anchor="middle" font-size="12" fill="#000000" font-weight="bold">Criteria</text></g></g></g></g><g data-cell-id="object-exception-criteria-response-positive"><g><rect x="389" y="635" width="148" height="67" fill="#ffffff" stroke="#000000" stroke-width="2" style="fill: var(--ge-adaptive-bg, #ffffff)"/></g><g><g><g><text x="408" y="662.11" font-family="Helvetica, Arial, 'Liberation Sans', sans-serif" font-size="12" fill="#000000" font-weight="bold" font-style="italic">Exception Criteria</text><text x="408" y="676.5" font-family="Helvetica, Arial, 'Liberation Sans', sans-serif" font-size="12" fill="#000000" font-weight="bold" font-style="italic">(response positive)</text></g></g></g></g><g data-cell-id="flow-initial-seller-party-to-send-exception-criteria-in-seller-party"><g transform="translate(0.5,0.5)"><path d="M 759 116.99 L 759 188.76" fill="none" stroke="#000000" stroke-miterlimit="10"/><path d="M 753.5 178.88 L 759 189.88 L 764.5 178.88" fill="none" stroke="#000000" stroke-miterlimit="10"/></g></g><g data-cell-id="flow-send-exception-criteria-in-seller-party-to-exception-criteria"><g transform="translate(0.5,0.5)"><path d="M 678 217.5 L 527.24 217.5" fill="none" stroke="#000000" stroke-miterlimit="10"/><path d="M 537.12 212 L 526.12 217.5 L 537.12 223" fill="none" stroke="#000000" stroke-miterlimit="10"/></g></g><g data-cell-id="flow-exception-criteria-revision-to-receive-revision"><g transform="translate(0.5,0.5)"><path d="M 531 412.5 L 619.76 412.5" fill="none" stroke="#000000" stroke-miterlimit="10"/><path d="M 609.88 418 L 620.88 412.5 L 609.88 407" fill="none" stroke="#000000" stroke-miterlimit="10"/></g></g><g data-cell-id="flow-receive-revision-to-review-and-resend-revision"><g transform="translate(0.5,0.5)"><path d="M 694.81 442 L 694.81 492.76" fill="none" stroke="#000000" stroke-miterlimit="10"/><path d="M 689.31 482.88 L 694.81 493.88 L 700.31 482.88" fill="none" stroke="#000000" stroke-miterlimit="10"/></g></g><g data-cell-id="flow-review-and-resend-revision-to-exception-criteria-revision"><g transform="translate(0.5,0.5)"><path d="M 614 525 L 512 525 L 512 448.24" fill="none" stroke="#000000" stroke-miterlimit="10"/><path d="M 517.5 458.12 L 512 447.12 L 506.5 458.12" fill="none" stroke="#000000" stroke-miterlimit="10"/></g></g><g data-cell-id="flow-exception-criteria-response-positive-to-receive-exception-criteria-in-seller-party"><g transform="translate(0.5,0.5)"><path d="M 537 664.71 L 612.76 664.71" fill="none" stroke="#000000" stroke-miterlimit="10"/><path d="M 602.88 670.21 L 613.88 664.71 L 602.88 659.21" fill="none" stroke="#000000" stroke-miterlimit="10"/></g></g><g data-cell-id="offpage-action-receive-exception-criteria-in-seller-party"><g transform="translate(0.5,0.5)"><path d="M 632 686 L 632 764 L 189 764 L 189 784" fill="none" stroke="#000000" stroke-miterlimit="10"/></g></g></g><g data-cell-id="flow-exception-criteria-to-receive-exception-criteria-in-buyer-party"><g transform="translate(0.5,0.5)"><path d="M 386 216.35 L 254.24 216.35" fill="none" stroke="#000000" stroke-miterlimit="10"/><path d="M 264.12 210.85 L 253.12 216.35 L 264.12 221.85" fill="none" stroke="#000000" stroke-miterlimit="10"/></g></g><g data-cell-id="flow-send-revision-to-exception-criteria-revision"><g transform="translate(0.5,0.5)"><path d="M 307 414 L 395.76 414" fill="none" stroke="#000000" stroke-miterlimit="10"/><path d="M 385.88 419.5 L 396.88 414 L 385.88 408.5" fill="none" stroke="#000000" stroke-miterlimit="10"/></g></g><g data-cell-id="flow-exception-criteria-revision-to-decision-buyer-party"><g transform="translate(0.5,0.5)"><path d="M 398 446 L 396 446 L 396 525 L 156.24 525" fill="none" stroke="#000000" stroke-miterlimit="10"/><path d="M 166.12 519.5 L 155.12 525 L 166.12 530.5" fill="none" stroke="#000000" stroke-miterlimit="10"/></g></g><g data-cell-id="flow-send-exception-criteria-in-buyer-party-to-exception-criteria-response-positive"><g transform="translate(0.5,0.5)"><path d="M 359 638.38 L 386.81 644.37" fill="none" stroke="#000000" stroke-miterlimit="10"/><path d="M 376 647.67 L 387.91 644.61 L 378.31 636.91" fill="none" stroke="#000000" stroke-miterlimit="10"/></g></g></g></g></g></g></svg>
