<?xml version="1.0" encoding="UTF-8" standalone="no"?>
<svg
   xmlns:dc="http://purl.org/dc/elements/1.1/"
   xmlns:cc="http://creativecommons.org/ns#"
   xmlns:rdf="http://www.w3.org/1999/02/22-rdf-syntax-ns#"
   xmlns:svg="http://www.w3.org/2000/svg"
   xmlns="http://www.w3.org/2000/svg"
   xmlns:sodipodi="http://sodipodi.sourceforge.net/DTD/sodipodi-0.dtd"
   xmlns:inkscape="http://www.inkscape.org/namespaces/inkscape"
   style="fill-rule:evenodd;stroke-linecap:round"
   version="1.1"
   id="svg6781"
   width="513.46698"
   viewBox="0 0 3423.1131 1262.9608"
   preserveAspectRatio="none"
   height="189.44412"
   inkscape:version="0.91 r13725"
   sodipodi:docname="UBL-2.2-Tender-Contract.svg"
   inkscape:export-filename="/Users/admin/z/data/kendata/dev/ubl/hub/art/UBL-2.2-Tender-Contract.png"
   inkscape:export-xdpi="600.33069"
   inkscape:export-ydpi="600.33069">
  <sodipodi:namedview
     pagecolor="#ffffff"
     bordercolor="#666666"
     borderopacity="1"
     objecttolerance="10"
     gridtolerance="10"
     guidetolerance="10"
     inkscape:pageopacity="0"
     inkscape:pageshadow="2"
     inkscape:window-width="1369"
     inkscape:window-height="1047"
     id="namedview6151"
     showgrid="false"
     inkscape:showpageshadow="false"
     showborder="false"
     inkscape:zoom="2.3273161"
     inkscape:cx="256.73349"
     inkscape:cy="54.307288"
     inkscape:window-x="276"
     inkscape:window-y="30"
     inkscape:window-maximized="0"
     inkscape:current-layer="svg6781"
     fit-margin-top="0"
     fit-margin-left="0"
     fit-margin-right="0"
     fit-margin-bottom="0" />
  <metadata
     id="metadata7279">
    <rdf:RDF>
      <cc:Work
         rdf:about="">
        <dc:format>image/svg+xml</dc:format>
        <dc:type
           rdf:resource="http://purl.org/dc/dcmitype/StillImage" />
        <dc:title />
      </cc:Work>
    </rdf:RDF>
  </metadata>
  <defs
     id="defs7277">
    <marker
       style="overflow:visible"
       id="Arrow1Lend"
       refX="0"
       refY="0"
       orient="auto">
      <path
         transform="matrix(-0.8,0,0,-0.8,-10,0)"
         style="fill-rule:evenodd;stroke:#000000;stroke-width:1pt;marker-start:none"
         d="M 0,0 5,-5 -12.5,0 5,5 0,0 Z"
         id="path9186"
         inkscape:connector-curvature="0" />
    </marker>
    <pattern
       y="0"
       x="0"
       height="6"
       width="6"
       patternUnits="userSpaceOnUse"
       id="EMFhbasepattern" />
  </defs>
  <style
     id="style6783"
     type="text/css">
.brush0 { fill: rgb(255,255,255); }
.pen0 { stroke: rgb(0,0,0); stroke-width: 1; stroke-linejoin: round; }
.pen1 { stroke: none; }
.brush1 { fill: none; }
.pen2 { stroke: rgb(26,26,26); stroke-width: 7; stroke-linejoin: round; }
.font0 { font-weight: bold; font-size: 74px; font-family: Arial, sans-serif; }
.font1 { font-weight: bold; font-size: 16px; font-family: System, sans-serif; }
.pen3 { stroke: rgb(0,0,0); stroke-width: 3; stroke-linejoin: round; }
.brush2 { fill: rgb(0,0,0); }
.brush3 { fill: rgb(230,230,230); }
.font2 { font-weight: bold; font-size: 59px; font-family: Arial, sans-serif; }
.font3 { font-weight: bold; font-size: 59px; font-family: Arial, sans-serif; }
</style>
  <g
     id="g4255"
     transform="translate(-64.526337,-0.59765978)">
    <path
       inkscape:connector-curvature="0"
       id="path6901"
       d="m 1973.7522,781.53426 285.751,0"
       style="fill:none;stroke:#000000;stroke-width:8.33333302;stroke-linecap:round;stroke-linejoin:bevel;stroke-miterlimit:4.62068987;stroke-dasharray:none;stroke-opacity:1" />
    <path
       inkscape:connector-curvature="0"
       id="path6903"
       d="m 2259.5032,781.53426 -81.6432,29.15416 m 81.6432,-29.15416 -81.6432,-29.16042"
       style="fill:none;stroke:#000000;stroke-width:8.33333302;stroke-linecap:round;stroke-linejoin:bevel;stroke-miterlimit:4.62068987;stroke-dasharray:none;stroke-opacity:1" />
  </g>
  <g
     id="g3427"
     transform="translate(-0.93909645,-0.59765978)">
    <path
       inkscape:connector-curvature="0"
       id="path6905"
       d="m 1128.1576,781.53426 320.7434,0"
       style="fill:none;stroke:#000000;stroke-width:8.33333302;stroke-linecap:round;stroke-linejoin:bevel;stroke-miterlimit:4.62068987;stroke-dasharray:none;stroke-opacity:1" />
    <path
       inkscape:connector-curvature="0"
       id="path6907"
       d="m 1448.901,781.53426 -81.6431,29.15416 m 81.6431,-29.15416 -81.6431,-29.16042"
       style="fill:none;stroke:#000000;stroke-width:8.33333302;stroke-linecap:round;stroke-linejoin:bevel;stroke-miterlimit:4.62068987;stroke-dasharray:none;stroke-opacity:1" />
  </g>
  <rect
     y="4.4993253"
     x="4.1666665"
     height="1254.2948"
     width="3414.7798"
     id="rect7281"
     style="fill:none;stroke:#000000;stroke-width:8.33333302;stroke-linecap:round;stroke-linejoin:miter;stroke-miterlimit:4.62068987;stroke-dasharray:none;stroke-dashoffset:0;stroke-opacity:1" />
  <path
     style="fill:none;stroke:#000000;stroke-width:8.33333302;stroke-linecap:square;stroke-linejoin:miter;stroke-miterlimit:4.62068987;stroke-dasharray:none;stroke-opacity:1"
     d="m 1704.5554,4.1666665 0,1254.0738335"
     id="path6739"
     inkscape:connector-curvature="0" />
  <text
     xml:space="preserve"
     style="font-style:normal;font-variant:normal;font-weight:normal;font-stretch:normal;font-size:83.33332825px;line-height:125%;font-family:Calibri;-inkscape-font-specification:'Calibri, Normal';text-align:start;letter-spacing:0px;word-spacing:0px;writing-mode:lr-tb;text-anchor:start;fill:#000000;fill-opacity:1;stroke:none;stroke-width:8.33333302;stroke-miterlimit:4.62068987;stroke-dasharray:none"
     x="408.10779"
     y="88.393677"
     id="text6741"
     sodipodi:linespacing="125%"
     transform="scale(1.0000544,0.99994561)"><tspan
       sodipodi:role="line"
       x="408.10779"
       y="88.393677"
       id="tspan6743"><tspan
         dx="0"
         dy="0"
         style="font-style:normal;font-variant:normal;font-weight:normal;font-stretch:normal;font-size:83.33332825px;line-height:125%;font-family:Calibri;-inkscape-font-specification:'Calibri, Normal';text-align:start;writing-mode:lr-tb;text-anchor:start;fill:#000000;stroke-width:8.33333302;stroke-miterlimit:4.62068987;stroke-dasharray:none"
         id="tspan6745">ECONOMIC OPERATOR</tspan></tspan></text>
  <text
     xml:space="preserve"
     style="font-style:normal;font-variant:normal;font-weight:normal;font-stretch:normal;font-size:83.33332825px;line-height:125%;font-family:Calibri;-inkscape-font-specification:'Calibri, Normal';text-align:start;letter-spacing:0px;word-spacing:0px;writing-mode:lr-tb;text-anchor:start;fill:#000000;fill-opacity:1;stroke:none;stroke-width:8.33333302;stroke-miterlimit:4.62068987;stroke-dasharray:none"
     x="2166.6106"
     y="93.549583"
     id="text6749"
     sodipodi:linespacing="125%"
     transform="scale(1.0000544,0.99994561)"><tspan
       sodipodi:role="line"
       x="2166.6106"
       y="93.549583"
       id="tspan6751"><tspan
         dx="0"
         dy="0"
         style="font-style:normal;font-variant:normal;font-weight:normal;font-stretch:normal;font-size:83.33332825px;line-height:125%;font-family:Calibri;-inkscape-font-specification:'Calibri, Normal';text-align:start;writing-mode:lr-tb;text-anchor:start;fill:#000000;stroke-width:8.33333302;stroke-miterlimit:4.62068987;stroke-dasharray:none"
         id="tspan6753">CONTRACTING AUTHORITY</tspan></tspan></text>
  <path
     style="fill:#ffffff;fill-opacity:1;fill-rule:evenodd;stroke:none;stroke-width:8.33333302;stroke-miterlimit:4.62068987;stroke-dasharray:none"
     d="m 1028.0759,390.25301 c 48.4753,0 87.4784,39.35937 87.4784,87.46631 l 0,0 0,0 0,0 c 0,48.46991 -39.0031,87.46258 -87.4784,87.46258 0,0 0,0 0,0 l 0,0 -833.93041,0 0,0 c -48.11152,0 -87.47583,-38.99267 -87.47583,-87.46258 l 0,0 0,0 c 0,-48.10694 39.36431,-87.46631 87.47583,-87.46631 l 0,0 833.93041,0 z"
     id="path6757"
     inkscape:connector-curvature="0" />
  <path
     style="fill:none;stroke:#000000;stroke-width:8.33333302;stroke-linecap:round;stroke-linejoin:round;stroke-miterlimit:4.62068987;stroke-dasharray:none;stroke-opacity:1"
     d="m 1115.1865,390.253 c 53.0582,0 95.7487,39.35938 95.7487,87.46632 l 0,0 0,0 0,0 c 0,48.4699 -42.6905,87.46258 -95.7487,87.46258 0,0 0,0 0,0 l 0,0 -912.77097,0 0,0 c -52.66002,0 -95.74587,-38.99268 -95.74587,-87.46258 l 0,0 0,0 c 0,-48.10694 43.08585,-87.46632 95.74587,-87.46632 l 0,0 912.77097,0 z"
     id="path6759"
     inkscape:connector-curvature="0" />
  <text
     xml:space="preserve"
     style="font-style:normal;font-variant:normal;font-weight:normal;font-stretch:normal;font-size:75px;line-height:125%;font-family:ARIAL;-inkscape-font-specification:'ARIAL, Normal';text-align:start;letter-spacing:0px;word-spacing:0px;writing-mode:lr-tb;text-anchor:start;fill:#000000;fill-opacity:1;stroke:none;stroke-width:8.33333302;stroke-miterlimit:4.62068987;stroke-dasharray:none"
     x="250.75772"
     y="502.91806"
     id="text6761"
     sodipodi:linespacing="125%"
     transform="scale(1.0000544,0.99994561)"><tspan
       sodipodi:role="line"
       x="250.75772"
       y="502.91806"
       id="tspan6763"><tspan
         dx="0"
         dy="0"
         style="font-style:normal;font-variant:normal;font-weight:normal;font-stretch:normal;font-size:75px;line-height:125%;font-family:ARIAL;-inkscape-font-specification:'ARIAL, Normal';text-align:start;writing-mode:lr-tb;text-anchor:start;fill:#000000;stroke-width:8.33333302;stroke-miterlimit:4.62068987;stroke-dasharray:none"
         id="tspan6765">Prepare tender contract</tspan></tspan></text>
  <path
     style="fill:#ffffff;fill-opacity:1;fill-rule:evenodd;stroke:none;stroke-width:8.33333302;stroke-miterlimit:4.62068987;stroke-dasharray:none"
     d="m 1033.9111,693.46776 c 48.4753,0 87.4722,39.36003 87.4722,87.46884 l 0,0 0,5.82835 0,0 c 0,48.4699 -38.9969,87.46874 -87.4722,87.46874 0,0 0,0 0,0 l 0,0 -845.59777,0 0,0 c -48.11152,0 -87.47517,-38.99884 -87.47517,-87.46874 l 0,0 0,-5.82835 c 0,-48.10881 39.36365,-87.46884 87.47517,-87.46884 l 0,0 845.59777,0 z"
     id="path6767"
     inkscape:connector-curvature="0" />
  <path
     style="fill:#ffffff;fill-opacity:1;stroke:#000000;stroke-width:8.33333302;stroke-linecap:round;stroke-linejoin:round;stroke-miterlimit:4.62068987;stroke-dasharray:none;stroke-opacity:1"
     d="m 1101.7379,694.59884 c 51.9989,0 93.8306,42.32883 93.8306,94.06633 l 0,0 0,6.26795 0,0 c 0,52.12584 -41.8317,94.06624 -93.8306,94.06624 0,0 0,0 0,0 l 0,0 -907.06585,0 0,0 c -51.60882,0 -93.83389,-41.9404 -93.83389,-94.06624 l 0,0 0,-6.26795 c 0,-51.7375 42.22507,-94.06633 93.83389,-94.06633 l 0,0 907.06585,0 z"
     id="path6769"
     inkscape:connector-curvature="0" />
  <text
     xml:space="preserve"
     style="font-style:normal;font-variant:normal;font-weight:normal;font-stretch:normal;font-size:75px;line-height:125%;font-family:ARIAL;-inkscape-font-specification:'ARIAL, Normal';text-align:start;letter-spacing:0px;word-spacing:0px;writing-mode:lr-tb;text-anchor:start;fill:#000000;fill-opacity:1;stroke:none;stroke-width:8.33333302;stroke-miterlimit:4.62068987;stroke-dasharray:none"
     x="276.84491"
     y="811.23395"
     id="text6771"
     sodipodi:linespacing="125%"
     transform="scale(1.0000544,0.99994561)"><tspan
       sodipodi:role="line"
       x="276.84491"
       y="811.23395"
       id="tspan6773"><tspan
         dx="0"
         dy="0"
         style="font-style:normal;font-variant:normal;font-weight:normal;font-stretch:normal;font-size:75px;line-height:125%;font-family:ARIAL;-inkscape-font-specification:'ARIAL, Normal';text-align:start;writing-mode:lr-tb;text-anchor:start;fill:#000000;stroke-width:8.33333302;stroke-miterlimit:4.62068987;stroke-dasharray:none"
         id="tspan6775">Submit tender contract</tspan></tspan></text>
  <path
     style="fill:#ffffff;fill-opacity:1;fill-rule:evenodd;stroke:none;stroke-width:8.33333302;stroke-miterlimit:4.62068987;stroke-dasharray:none"
     d="m 1443.9514,614.02621 0,355.69112 524.8512,0 0,-355.69112 -524.8512,0 z"
     id="path6777"
     inkscape:connector-curvature="0" />
  <path
     style="fill:none;stroke:#000000;stroke-width:8.33333302;stroke-linecap:round;stroke-linejoin:round;stroke-miterlimit:4.62068987;stroke-dasharray:none;stroke-opacity:1"
     d="m 1447.9619,967.42536 524.8512,0 0,-355.69112 -524.8512,0 z"
     id="path6779"
     inkscape:connector-curvature="0" />
  <text
     xml:space="preserve"
     style="font-style:italic;font-variant:normal;font-weight:bold;font-stretch:normal;font-size:75px;line-height:125%;font-family:ARIAL;-inkscape-font-specification:'ARIAL, Bold Italic';text-align:start;letter-spacing:0px;word-spacing:0px;writing-mode:lr-tb;text-anchor:start;fill:#000000;fill-opacity:1;stroke:none;stroke-width:8.33333302;stroke-miterlimit:4.62068987;stroke-dasharray:none"
     x="1488.2233"
     y="747.42712"
     id="text6781"
     sodipodi:linespacing="125%"
     transform="scale(1.0000544,0.99994561)"><tspan
       sodipodi:role="line"
       x="1488.2233"
       y="747.42712"
       id="tspan6783">Tender</tspan></text>
  <text
     xml:space="preserve"
     style="font-style:italic;font-variant:normal;font-weight:bold;font-stretch:normal;font-size:75px;line-height:125%;font-family:ARIAL;-inkscape-font-specification:'ARIAL, Bold Italic';text-align:start;letter-spacing:0px;word-spacing:0px;writing-mode:lr-tb;text-anchor:start;fill:#000000;fill-opacity:1;stroke:none;stroke-width:8.33333302;stroke-miterlimit:4.62068987;stroke-dasharray:none"
     x="1484.7443"
     y="859.23944"
     id="text6787"
     sodipodi:linespacing="125%"
     transform="scale(1.0000544,0.99994561)"><tspan
       sodipodi:role="line"
       x="1484.7443"
       y="859.23944"
       id="tspan6789">Contract</tspan></text>
  <text
     xml:space="preserve"
     style="font-style:italic;font-variant:normal;font-weight:bold;font-stretch:normal;font-size:75px;line-height:125%;font-family:ARIAL;-inkscape-font-specification:'ARIAL, Bold Italic';text-align:start;letter-spacing:0px;word-spacing:0px;writing-mode:lr-tb;text-anchor:start;fill:#000000;fill-opacity:1;stroke:none;stroke-width:8.33333302;stroke-miterlimit:4.62068987;stroke-dasharray:none"
     x="1482.9706"
     y="914.51489"
     id="text6793"
     sodipodi:linespacing="125%"
     transform="scale(1.0000544,0.99994561)"><tspan
       sodipodi:role="line"
       x="1482.9706"
       y="914.51489"
       id="tspan6795" /></text>
  <path
     style="fill:#ffffff;fill-opacity:1;fill-rule:evenodd;stroke:none;stroke-width:8.33333302;stroke-miterlimit:4.62068987;stroke-dasharray:none"
     d="m 3142.1394,693.68282 c 48.475,0 87.472,39.36003 87.472,87.46884 l 0,0 0,11.6567 0,0 c 0,48.47616 -38.997,87.46874 -87.472,87.46874 0,0 0,0 0,0 l 0,0 -868.9232,0 0,0 c -48.114,0 -87.4782,-38.99258 -87.4782,-87.46874 l 0,0 0,-11.6567 c 0,-48.10881 39.3642,-87.46884 87.4782,-87.46884 l 0,0 868.9232,0 z"
     id="path6799"
     inkscape:connector-curvature="0" />
  <path
     style="fill:none;stroke:#000000;stroke-width:8.33333302;stroke-linecap:round;stroke-linejoin:round;stroke-miterlimit:4.62068987;stroke-dasharray:none;stroke-opacity:1"
     d="m 3222.4403,690.81829 c 51.6739,0 93.2444,39.36003 93.2444,87.46884 l 0,0 0,11.65669 0,0 c 0,48.47617 -41.5705,87.46875 -93.2444,87.46875 0,0 0,0 0,0 l 0,0 -926.2642,0 0,0 c -51.2891,0 -93.251,-38.99258 -93.251,-87.46875 l 0,0 0,-11.65669 c 0,-48.10881 41.9619,-87.46884 93.251,-87.46884 l 0,0 926.2642,0 z"
     id="path6801"
     inkscape:connector-curvature="0" />
  <text
     xml:space="preserve"
     style="font-style:normal;font-variant:normal;font-weight:normal;font-stretch:normal;font-size:75px;line-height:125%;font-family:ARIAL;-inkscape-font-specification:'ARIAL, Normal';text-align:start;letter-spacing:0px;word-spacing:0px;writing-mode:lr-tb;text-anchor:start;fill:#000000;fill-opacity:1;stroke:none;stroke-width:8.33333302;stroke-miterlimit:4.62068987;stroke-dasharray:none"
     x="2371.5984"
     y="806.29218"
     id="text6803"
     sodipodi:linespacing="125%"
     transform="scale(1.0000544,0.99994561)"><tspan
       sodipodi:role="line"
       x="2371.5984"
       y="806.29218"
       id="tspan6805"><tspan
         dx="0"
         dy="0"
         style="font-style:normal;font-variant:normal;font-weight:normal;font-stretch:normal;font-size:75px;line-height:125%;font-family:ARIAL;-inkscape-font-specification:'ARIAL, Normal';text-align:start;writing-mode:lr-tb;text-anchor:start;fill:#000000;stroke-width:8.33333302;stroke-miterlimit:4.62068987;stroke-dasharray:none"
         id="tspan6807">Receive tender contract</tspan></tspan></text>
  <path
     style="fill:#000000;fill-opacity:1;fill-rule:evenodd;stroke:none;stroke-width:8.33333302;stroke-miterlimit:4.62068987;stroke-dasharray:none"
     d="m 672.3462,221.15246 c 0,-32.07086 -25.88171,-58.31094 -58.32102,-58.31094 -32.07183,0 -58.31467,26.24008 -58.31467,58.31094 0,32.43513 26.24284,58.31028 58.31467,58.31028 32.43931,0 58.32102,-25.87515 58.32102,-58.31028 z"
     id="path6869"
     inkscape:connector-curvature="0" />
  <path
     style="fill:none;stroke:#000000;stroke-width:8.33333302;stroke-linecap:round;stroke-linejoin:round;stroke-miterlimit:4.62068987;stroke-dasharray:none;stroke-opacity:1"
     d="m 672.3462,221.15246 c 0,-32.07086 -25.88171,-58.31094 -58.32102,-58.31094 -32.07182,0 -58.31467,26.24008 -58.31467,58.31094 0,32.43513 26.24285,58.31028 58.31467,58.31028 32.43931,0 58.32102,-25.87515 58.32102,-58.31028"
     id="path6871"
     inkscape:connector-curvature="0" />
  <path
     style="fill:#ffffff;fill-opacity:1;fill-rule:evenodd;stroke:none;stroke-width:8.33333302;stroke-miterlimit:4.62068987;stroke-dasharray:none"
     d="m 2812.15,1116.9564 c 0,-32.0684 -25.8817,-58.3084 -58.3211,-58.3084 -32.0718,0 -58.3146,26.24 -58.3146,58.3084 0,32.4358 26.2428,58.3146 58.3146,58.3146 32.4394,0 58.3211,-25.8788 58.3211,-58.3146 z"
     id="path6873"
     inkscape:connector-curvature="0" />
  <path
     style="fill:none;stroke:#000000;stroke-width:8.33333302;stroke-linecap:round;stroke-linejoin:round;stroke-miterlimit:4.62068987;stroke-dasharray:none;stroke-opacity:1"
     d="m 2812.15,1116.9564 c 0,-32.0684 -25.8817,-58.3084 -58.3211,-58.3084 -32.0718,0 -58.3146,26.24 -58.3146,58.3084 0,32.4358 26.2428,58.3146 58.3146,58.3146 32.4394,0 58.3211,-25.8788 58.3211,-58.3146"
     id="path6875"
     inkscape:connector-curvature="0" />
  <path
     style="fill:#000000;fill-opacity:1;fill-rule:evenodd;stroke:none;stroke-width:8.33333302;stroke-miterlimit:4.62068987;stroke-dasharray:none"
     d="m 2777.1574,1116.9564 c 0,-12.7526 -10.207,-23.3197 -23.3285,-23.3197 -12.7539,0 -23.322,10.5671 -23.322,23.3197 0,13.1199 10.5681,23.3258 23.322,23.3258 13.1215,0 23.3285,-10.2059 23.3285,-23.3258 z"
     id="path6877"
     inkscape:connector-curvature="0" />
  <path
     style="fill:none;stroke:#000000;stroke-width:8.33333302;stroke-linecap:round;stroke-linejoin:round;stroke-miterlimit:4.62068987;stroke-dasharray:none;stroke-opacity:1"
     d="m 2777.1574,1116.9564 c 0,-12.7526 -10.207,-23.3197 -23.3285,-23.3197 -12.7539,0 -23.322,10.5671 -23.322,23.3197 0,13.1199 10.5681,23.3258 23.322,23.3258 13.1215,0 23.3285,-10.2059 23.3285,-23.3258"
     id="path6879"
     inkscape:connector-curvature="0" />
  <path
     style="fill:none;stroke:#000000;stroke-width:8.33333302;stroke-linecap:round;stroke-linejoin:bevel;stroke-miterlimit:4.62068987;stroke-dasharray:none;stroke-opacity:1"
     d="m 614.02518,279.46274 0,110.79026"
     id="path6881"
     inkscape:connector-curvature="0" />
  <path
     style="fill:none;stroke:#000000;stroke-width:8.33333302;stroke-linecap:round;stroke-linejoin:bevel;stroke-miterlimit:4.62068987;stroke-dasharray:none;stroke-opacity:1"
     d="m 614.02518,390.253 -29.15733,-81.63488 m 29.15733,81.63488 29.16359,-81.63488"
     id="path6883"
     inkscape:connector-curvature="0" />
  <path
     style="fill:none;stroke:#000000;stroke-width:8.33333302;stroke-linecap:round;stroke-linejoin:bevel;stroke-miterlimit:4.62068987;stroke-dasharray:none;stroke-opacity:1"
     d="m 2753.829,885.1956 0,172.5193"
     id="path6889"
     inkscape:connector-curvature="0" />
  <path
     style="fill:none;stroke:#000000;stroke-width:8.33333302;stroke-linecap:round;stroke-linejoin:bevel;stroke-miterlimit:4.62068987;stroke-dasharray:none;stroke-opacity:1"
     d="m 2753.8289,1058.648 -29.1573,-81.6343 m 29.1573,81.6343 29.1636,-81.6343"
     id="path6891"
     inkscape:connector-curvature="0" />
  <path
     style="fill:none;stroke:#000000;stroke-width:8.33333302;stroke-linecap:round;stroke-linejoin:bevel;stroke-miterlimit:4.62068987;stroke-dasharray:none;stroke-opacity:1"
     d="m 614.02518,571.01641 0,122.45135"
     id="path6909"
     inkscape:connector-curvature="0" />
  <path
     style="fill:none;stroke:#000000;stroke-width:8.33333302;stroke-linecap:round;stroke-linejoin:bevel;stroke-miterlimit:4.62068987;stroke-dasharray:none;stroke-opacity:1"
     d="m 614.02518,693.46776 -29.15733,-81.63423 m 29.15733,81.63423 29.16359,-81.63423"
     id="path6911"
     inkscape:connector-curvature="0" />
</svg>
