<svg xmlns="http://www.w3.org/2000/svg" viewBox="0 0 1773 1962"><g transform="scale(1,-1) translate(824,-969)">
<path d="M940,463 363,665 358,666 353,664 -327,324 -335,320 -335,311 -335,242 -335,233 -327,229 -285,208 -230,-300 -229,-308 -222,-312 284,-548 291,-551 298,-546 798,-185 802,-182 803,-176 886,336 942,369 949,373 949,381 949,450 949,460 940,463 Z" fill="#000000" fill-rule="evenodd" stroke="none"/>
<path d="M226,-12 227,-7 227,-7 227,57 921,435 921,389 226,-12 Z" fill="#b0b0b0" fill-rule="evenodd" stroke="none"/>
<path d="M-307,297 213,57 213,-6 -307,250 -307,297 Z" fill="#ededed" fill-rule="evenodd" stroke="none"/>
<path d="M360,636 910,444 220,69 -297,308 360,636 Z" fill="#e9e9e9" fill-rule="evenodd" stroke="none"/>
<path d="M-255,194 221,-41 227,-44 234,-40 303,0 283,-517 -204,-290 -255,194 Z" fill="#ededed" fill-rule="evenodd" stroke="none"/>
<path d="M777,-166 297,-512 317,7 855,318 777,-166 Z" fill="#b0b0b0" fill-rule="evenodd" stroke="none"/>
<path d="M-191,305 224,124 227,123 230,124 807,437 820,444 806,450 368,602 365,603 363,602 -192,317 -205,311 -191,305 Z" fill="#000000" fill-rule="evenodd" stroke="none"/>
<path d="M142,211 136,210 137,203 142,175 65,208 65,209 31,355 134,390 165,277 168,278 169,218 142,211 Z" fill="#bfbfbf" fill-rule="evenodd" stroke="none"/>
<path d="M49,215 -7,240 33,283 49,215 Z" fill="#e8e8e8" fill-rule="evenodd" stroke="none"/>
<path d="M256,375 268,382 218,466 282,499 338,409 243,369 200,440 212,448 256,375 Z" fill="#e8e8e8" fill-rule="evenodd" stroke="none"/>
<path d="M230,363 217,358 183,414 196,421 230,363 Z" fill="#ffffff" fill-rule="evenodd" stroke="none"/>
<path d="M204,353 192,347 166,388 178,396 204,353 Z" fill="#e8e8e8" fill-rule="evenodd" stroke="none"/>
<path d="M179,342 171,338 167,337 167,332 167,322 149,389 150,387 179,342 Z" fill="#ffffff" fill-rule="evenodd" stroke="none"/>
<path d="M450,458 543,433 514,311 514,376 514,381 509,383 438,407 450,458 Z" fill="#dadada" fill-rule="evenodd" stroke="none"/>
<path d="M333,279 500,366 500,295 394,302 387,302 387,295 384,226 388,226 333,196 333,279 Z" fill="#9a9a9a" fill-rule="evenodd" stroke="none"/>
<path d="M400,288 492,282 398,231 400,288 Z" fill="#e8e8e8" fill-rule="evenodd" stroke="none"/>
<path d="M548,395 646,366 526,301 548,395 Z" fill="#dddddd" fill-rule="evenodd" stroke="none"/>
<path d="M551,408 558,437 559,443 553,445 446,473 439,475 438,468 425,412 382,426 379,427 377,426 364,421 372,586 786,442 661,374 662,376 551,408 Z" fill="#ededed" fill-rule="evenodd" stroke="none"/>
<path d="M350,416 291,512 287,517 282,514 205,475 199,471 202,465 205,460 187,448 182,445 185,439 189,433 170,423 164,419 168,413 171,407 153,396 148,393 146,401 144,408 137,406 21,366 15,364 16,358 30,300 -20,246 -19,245 -172,312 358,584 350,416 Z" fill="#b0b0b0" fill-rule="evenodd" stroke="none"/>
<path d="M227,138 156,169 157,169 152,199 242,220 261,192 215,172 220,159 220,159 220,159 220,159 316,200 320,189 227,138 Z" fill="#e8e8e8" fill-rule="evenodd" stroke="none"/>
<path d="M285,-603 279,-599 273,-597 267,-596 261,-595 256,-596 251,-598 246,-600 243,-604 240,-613 242,-624 248,-634 258,-643 264,-647 270,-649 276,-651 282,-651 287,-650 292,-649 297,-646 300,-642 303,-633 301,-622 295,-612 285,-603 Z" fill="#000000" fill-rule="evenodd" stroke="none"/>
<path d="M649,-315 640,-324 634,-335 633,-346 636,-355 639,-359 644,-361 649,-363 654,-363 660,-363 666,-361 672,-359 678,-355 688,-345 694,-334 695,-323 691,-314 688,-310 683,-308 678,-307 673,-306 667,-307 661,-309 655,-311 649,-315 Z" fill="#000000" fill-rule="evenodd" stroke="none"/>
<path d="M-185,-377 -194,-386 -200,-397 -201,-408 -198,-417 -195,-421 -190,-423 -185,-425 -180,-425 -174,-424 -168,-423 -162,-420 -156,-416 -146,-407 -140,-396 -139,-385 -143,-376 -146,-372 -151,-370 -156,-369 -161,-368 -167,-369 -173,-371 -179,-373 -185,-377 Z" fill="#000000" fill-rule="evenodd" stroke="none"/>
<path d="M322,289 323,290 488,375 380,412 187,330 322,289 Z" fill="#dddddd" fill-rule="evenodd" stroke="none"/>
<path d="M181,324 183,221 244,235 249,236 251,232 274,197 317,216 320,217 320,283 320,284 181,324 Z" fill="#bfbfbf" fill-rule="evenodd" stroke="none"/>
<path d="M-279,792 -275,793 -272,795 -270,798 -269,802 -270,806 -272,809 -275,811 -279,812 -283,811 -286,809 -288,806 -289,802 -288,798 -286,795 -283,793 -279,792 Z" fill="#000000" fill-rule="evenodd" stroke="none"/>
<path d="M-283,-345 -283,-345 -283,-345 -283,-345 Z" fill="#ffffff" fill-rule="evenodd" stroke="none"/>
<path d="M-613,-518 -613,-518 -613,-518 -613,-518 Z" fill="#ffffff" fill-rule="evenodd" stroke="none"/>
<path d="M-688,-948 -695,-947 -701,-943 -707,-939 -712,-933 -716,-928 -719,-924 -721,-920 -722,-919 -723,-919 -724,-919 -727,-920 -731,-920 -736,-920 -741,-920 -747,-920 -753,-919 -764,-912 -772,-899 -776,-887 -778,-882 -779,-884 -783,-890 -788,-897 -793,-905 -796,-912 -797,-916 -796,-919 -795,-920 -795,-922 -796,-926 -796,-932 -795,-939 -793,-943 -788,-947 -782,-951 -776,-955 -769,-959 -763,-961 -760,-963 -758,-964 -744,-953 -744,-955 -742,-960 -739,-968 -732,-978 -726,-981 -718,-981 -707,-978 -695,-973 -684,-966 -672,-959 -663,-953 -656,-948 -653,-945 -653,-943 -656,-943 -660,-943 -667,-945 -674,-946 -681,-948 -688,-948 Z" fill="#000000" fill-rule="evenodd" stroke="none"/>
<path d="M-12,-569 -19,-570 -27,-572 -35,-574 -43,-577 -50,-579 -56,-580 -60,-582 -61,-582 -62,-584 -64,-590 -68,-599 -74,-609 -79,-613 -85,-616 -93,-617 -100,-618 -107,-617 -113,-617 -117,-616 -119,-616 -117,-618 -114,-624 -109,-632 -104,-640 -99,-646 -95,-648 -92,-648 -91,-648 -90,-649 -86,-651 -81,-653 -74,-656 -69,-656 -64,-654 -57,-650 -51,-646 -45,-641 -40,-637 -36,-634 -35,-633 -40,-616 -38,-616 -33,-617 -24,-617 -12,-616 -5,-613 4,-605 14,-595 24,-584 32,-571 39,-559 43,-549 43,-541 40,-537 36,-537 31,-541 25,-547 17,-553 8,-560 -2,-566 -12,-569 Z" fill="#000000" fill-rule="evenodd" stroke="none"/>
<path d="M157,224 153,227 148,226 79,212 76,211 73,210 70,207 67,204 62,189 61,170 63,149 65,132 50,120 36,111 20,102 4,92 -13,83 -29,75 -43,68 -55,63 -64,60 -69,64 -74,72 -81,83 -88,97 -96,113 -105,131 -113,150 -122,171 -121,170 -110,184 -108,187 -108,190 -108,215 -108,219 -111,222 -125,239 -108,256 -88,256 -79,256 -77,265 -77,270 -76,281 -79,295 -85,311 -92,318 -102,325 -116,332 -130,339 -146,345 -160,350 -173,354 -182,357 -188,359 -193,355 -195,354 -198,353 -204,350 -213,347 -220,344 -226,340 -231,335 -235,331 -238,326 -241,321 -243,316 -244,312 -255,315 -267,319 -280,323 -293,327 -308,331 -324,335 -342,340 -360,345 -361,345 -361,345 -361,345 -362,345 -345,406 -342,417 -353,420 -410,434 -410,448 -409,463 -408,476 -407,485 -404,486 -400,486 -395,486 -390,486 -386,486 -381,486 -377,486 -372,486 -368,486 -363,487 -358,488 -353,489 -343,496 -335,511 -329,533 -324,561 -321,593 -319,627 -317,663 -317,699 -309,699 -300,699 -292,699 -284,699 -276,700 -269,701 -264,703 -259,706 -257,709 -255,712 -254,715 -254,718 -254,721 -255,724 -257,728 -262,732 -269,737 -280,741 -296,745 -316,749 -310,933 -309,943 -319,944 -333,947 -351,950 -373,954 -396,957 -419,960 -440,961 -456,960 -468,957 -473,954 -478,950 -481,945 -483,940 -483,931 -479,922 -474,914 -467,906 -466,905 -465,905 -465,904 -464,903 -467,902 -471,900 -475,899 -478,897 -486,895 -493,892 -500,888 -507,884 -511,881 -516,876 -521,870 -523,861 -520,851 -514,842 -504,834 -494,827 -493,826 -492,826 -491,825 -490,825 -491,822 -493,819 -494,815 -495,810 -495,803 -494,798 -491,794 -489,791 -483,787 -476,785 -468,785 -461,785 -471,449 -495,455 -508,458 -509,445 -515,381 -525,382 -534,383 -543,383 -551,384 -559,384 -565,383 -571,382 -575,381 -581,378 -587,371 -594,362 -602,349 -611,331 -622,308 -635,281 -651,247 -726,91 -758,16 -781,-59 -797,-130 -807,-196 -812,-253 -814,-297 -815,-326 -814,-337 -814,-345 -806,-347 -804,-348 -801,-348 -797,-349 -792,-351 -785,-352 -778,-354 -769,-356 -760,-358 -761,-372 -761,-389 -760,-408 -758,-428 -754,-449 -748,-469 -740,-489 -729,-506 -714,-521 -698,-533 -682,-542 -664,-548 -648,-552 -633,-555 -620,-556 -609,-556 -607,-582 -606,-611 -606,-639 -609,-664 -616,-681 -629,-702 -646,-726 -667,-751 -689,-775 -710,-797 -729,-817 -745,-832 -754,-840 -745,-848 -713,-876 -707,-881 -706,-880 -703,-879 -701,-878 -700,-877 -412,-696 -394,-683 -378,-667 -363,-649 -349,-628 -336,-606 -325,-583 -314,-559 -305,-535 -300,-535 -293,-536 -285,-536 -277,-537 -267,-537 -257,-538 -247,-538 -237,-538 -227,-540 -214,-544 -199,-551 -182,-560 -165,-570 -148,-580 -133,-590 -119,-599 -109,-606 -108,-604 -106,-600 -104,-597 -103,-595 -85,-564 -82,-558 -86,-552 -96,-538 -108,-521 -122,-501 -136,-480 -149,-460 -161,-442 -170,-427 -175,-416 -181,-406 -190,-398 -201,-391 -214,-385 -228,-380 -241,-377 -254,-374 -264,-372 -264,-368 -263,-364 -263,-361 -262,-358 -251,-349 -241,-340 -232,-332 -224,-325 -218,-319 -213,-314 -210,-311 -208,-309 -206,-306 -205,-303 -180,-86 -174,-94 -168,-101 -162,-107 -157,-112 -152,-117 -147,-121 -143,-123 -140,-125 -138,-125 -136,-126 -134,-125 -130,-124 -125,-122 -118,-118 -110,-113 -99,-106 -87,-96 -72,-84 -54,-69 -34,-51 -10,-29 17,-3 47,27 82,61 88,61 95,60 103,60 111,60 119,60 127,60 134,61 139,62 146,64 152,68 158,73 164,79 170,86 176,94 182,102 188,111 192,117 198,122 204,127 210,132 217,137 223,141 228,144 232,146 248,154 246,156 241,160 236,163 234,165 157,224 Z" fill="#000000" fill-rule="evenodd" stroke="none"/>
<path d="M-145,228 -130,211 -130,194 -131,193 -135,202 -138,211 -142,219 -145,228 Z" fill="#bebebe" fill-rule="evenodd" stroke="none"/>
<path d="M-206,326 -199,328 -193,331 -188,333 -184,335 -170,330 -156,325 -143,320 -131,315 -121,310 -114,306 -108,302 -105,299 -102,294 -100,288 -99,283 -99,278 -112,278 -117,278 -120,275 -148,247 -151,243 -155,251 -159,261 -164,271 -169,280 -171,283 -174,285 -178,288 -184,291 -191,294 -200,298 -210,302 -222,306 -221,310 -218,316 -213,322 -206,326 Z" fill="#bebebe" fill-rule="evenodd" stroke="none"/>
<path d="M-407,599 -405,598 -403,597 -402,595 -400,594 -399,593 -398,593 -397,592 -396,591 -398,592 -401,574 -402,576 -402,578 -403,579 -404,581 -406,587 -407,593 -408,597 -407,599 Z" fill="#ffffff" fill-rule="evenodd" stroke="none"/>
<path d="M-385,584 -381,582 -377,580 -374,579 -370,579 -373,559 -376,559 -379,560 -382,560 -385,561 -386,561 -387,562 -387,562 -388,562 -385,584 Z" fill="#ffffff" fill-rule="evenodd" stroke="none"/>
<path d="M-356,578 -353,579 -350,579 -347,579 -344,580 -345,575 -345,570 -346,566 -347,561 -349,560 -352,560 -355,560 -359,559 -356,578 Z" fill="#ffffff" fill-rule="evenodd" stroke="none"/>
<path d="M-448,444 -438,798 -438,813 -452,809 -458,808 -464,807 -469,807 -473,807 -472,810 -471,813 -470,814 -469,816 -467,818 -466,821 -465,825 -465,829 -467,834 -470,838 -475,842 -481,846 -486,849 -492,853 -497,857 -500,861 -500,862 -499,863 -497,864 -495,865 -489,868 -483,871 -477,874 -470,876 -465,878 -460,880 -455,882 -451,885 -447,887 -444,890 -442,893 -440,897 -440,900 -440,903 -441,908 -444,912 -445,914 -447,916 -448,918 -450,920 -453,924 -457,929 -459,933 -461,936 -460,936 -460,937 -459,937 -458,937 -452,939 -442,939 -428,938 -412,937 -393,935 -373,932 -353,928 -332,924 -339,739 -339,729 -329,728 -324,727 -318,726 -313,726 -308,725 -303,724 -298,723 -294,722 -290,721 -294,721 -298,721 -302,721 -307,721 -312,721 -316,721 -321,722 -326,722 -339,724 -339,722 -339,718 -339,713 -339,711 -339,681 -340,652 -341,622 -343,595 -347,594 -351,593 -355,592 -360,592 -365,592 -370,592 -375,594 -379,596 -383,599 -386,601 -389,603 -391,605 -396,609 -401,612 -406,614 -410,614 -413,612 -416,610 -418,608 -419,606 -421,599 -421,591 -420,583 -417,576 -412,566 -405,558 -398,552 -390,548 -385,546 -379,545 -374,545 -368,545 -363,545 -358,546 -353,546 -349,547 -351,533 -353,523 -356,515 -359,510 -363,509 -367,509 -371,508 -374,508 -378,508 -382,508 -386,508 -390,508 -396,508 -402,508 -408,507 -414,506 -419,504 -423,501 -427,497 -429,492 -430,481 -431,467 -432,452 -432,439 -450,444 -448,444 Z" fill="#bebebe" fill-rule="evenodd" stroke="none"/>
<path d="M-488,430 -369,401 -384,351 -389,352 -394,354 -399,355 -403,356 -407,358 -411,359 -415,360 -418,361 -425,363 -433,365 -442,367 -452,370 -462,372 -472,374 -482,376 -493,378 -488,430 Z" fill="#ffffff" fill-rule="evenodd" stroke="none"/>
<path d="M-196,-424 -190,-436 -181,-452 -169,-471 -155,-492 -141,-512 -128,-531 -117,-547 -108,-559 -116,-574 -127,-567 -142,-558 -158,-548 -175,-539 -192,-530 -209,-523 -224,-518 -237,-516 -246,-516 -254,-516 -263,-516 -271,-515 -279,-515 -286,-515 -292,-514 -298,-514 -293,-497 -288,-481 -283,-464 -280,-449 -276,-434 -273,-419 -270,-406 -268,-394 -257,-396 -245,-399 -234,-402 -223,-406 -213,-410 -205,-414 -199,-419 -196,-424 Z" fill="#7d7d7d" fill-rule="evenodd" stroke="none"/>
<path d="M-424,-678 -705,-854 -721,-839 -707,-825 -688,-807 -668,-785 -646,-761 -626,-736 -608,-711 -595,-688 -588,-668 -584,-622 -585,-573 -589,-533 -591,-515 -613,-518 -613,-520 -612,-523 -612,-527 -611,-534 -620,-533 -632,-532 -645,-530 -659,-526 -673,-521 -687,-514 -700,-505 -711,-493 -727,-462 -736,-426 -739,-391 -738,-363 -720,-367 -700,-372 -679,-376 -657,-381 -635,-386 -612,-391 -589,-395 -565,-400 -543,-404 -520,-408 -499,-411 -478,-414 -459,-417 -441,-418 -425,-420 -411,-420 -395,-419 -378,-416 -362,-412 -346,-407 -331,-400 -316,-393 -302,-385 -288,-376 -294,-407 -302,-446 -314,-489 -328,-533 -346,-577 -368,-618 -394,-652 -424,-678 Z" fill="#7d7d7d" fill-rule="evenodd" stroke="none"/>
<path d="M-256,51 -274,38 -267,28 -259,17 -250,5 -241,-7 -231,-21 -221,-35 -210,-48 -200,-62 -227,-297 -230,-300 -235,-304 -240,-309 -247,-315 -254,-322 -263,-329 -273,-337 -283,-345 -283,-345 -283,-345 -283,-345 -283,-346 -283,-346 -297,-356 -311,-365 -327,-374 -343,-382 -360,-388 -377,-394 -394,-397 -411,-398 -429,-397 -450,-395 -474,-392 -500,-389 -528,-384 -557,-379 -586,-373 -616,-367 -645,-361 -673,-355 -700,-349 -724,-344 -746,-339 -765,-334 -781,-331 -792,-328 -792,-305 -791,-270 -788,-225 -781,-172 -771,-112 -756,-49 -735,16 -707,81 -631,238 -619,263 -609,285 -599,305 -590,323 -582,338 -575,349 -570,357 -566,361 -558,362 -546,361 -529,360 -509,357 -488,354 -466,350 -444,345 -425,340 -420,338 -414,337 -408,335 -400,333 -392,330 -384,328 -375,326 -366,323 -355,320 -343,317 -331,314 -317,310 -303,306 -289,302 -275,298 -261,294 -248,290 -235,286 -223,282 -213,279 -204,275 -196,272 -191,269 -187,267 -180,254 -174,240 -170,229 -168,225 -143,161 -122,114 -104,80 -91,58 -80,45 -72,39 -66,37 -62,37 -52,40 -39,45 -23,52 -7,61 10,70 26,79 41,88 53,95 64,74 48,58 32,43 16,28 0,12 -15,-2 -30,-16 -45,-30 -59,-43 -72,-54 -85,-65 -96,-75 -107,-84 -116,-91 -124,-97 -130,-101 -135,-103 -142,-96 -153,-84 -167,-68 -182,-48 -200,-25 -218,0 -237,25 -256,51 Z" fill="#8f8f8f" fill-rule="evenodd" stroke="none"/>
<path d="M169,124 165,117 160,111 156,104 151,98 147,93 142,88 138,85 134,83 130,82 125,82 119,82 113,82 106,82 98,82 91,83 84,83 71,108 85,119 90,124 89,130 85,150 84,168 84,182 85,190 148,203 207,157 202,154 197,151 192,147 187,143 182,138 177,134 173,129 169,124 Z" fill="#bebebe" fill-rule="evenodd" stroke="none"/>
<path d="M-376,719 -372,720 -369,722 -367,725 -366,729 -367,733 -369,735 -372,737 -376,738 -380,737 -383,735 -385,733 -386,729 -385,725 -383,722 -380,720 -376,719 Z" fill="#000000" fill-rule="evenodd" stroke="none"/>
</g></svg>
